SplineFontDB: 3.0
FontName: Mothanna
FullName: Mothanna
FamilyName: Mothanna
Weight: Regular
Copyright: Copyright (c) 2008, Khaled Hosny (http://www.arabeyes.org).\n\nThis font is distributed under Open Font License.
UComments: "2008-2-16: Created." 
Version: 0.02
ItalicAngle: 0
UnderlinePosition: -51
UnderlineWidth: 25
Ascent: 819
Descent: 205
LayerCount: 2
Layer: 0 0 "Back" 
Layer: 1 0 "Fore" 
XUID: [1021 609 1740717738 9903670]
FSType: 0
OS2Version: 0
OS2_WeightWidthSlopeOnly: 0
OS2_UseTypoMetrics: 0
CreationTime: 1203118867
ModificationTime: 1218901091
PfmFamily: 33
TTFWeight: 500
TTFWidth: 5
LineGap: 47
VLineGap: 0
OS2TypoAscent: 0
OS2TypoAOffset: 1
OS2TypoDescent: 0
OS2TypoDOffset: 1
OS2TypoLinegap: 47
OS2WinAscent: 0
OS2WinAOffset: 1
OS2WinDescent: 0
OS2WinDOffset: 1
HheadAscent: 0
HheadAOffset: 1
HheadDescent: 0
HheadDOffset: 1
OS2Vendor: 'AE  '
Lookup: 2 0 0 "'isol' Isolated Forms in Arabic lookup 0"  {"'isol' Isolated Forms in Arabic lookup 0-1"  } ['isol' ('DFLT' <'dflt' > 'arab' <'dflt' > ) ]
Lookup: 2 0 0 "'init' Initial Forms in Arabic lookup 0"  {"'init' Initial Forms in Arabic lookup 0-1"  } ['init' ('DFLT' <'dflt' > 'arab' <'dflt' > ) ]
Lookup: 2 0 0 "'medi' Medial Forms in Arabic lookup 0"  {"'medi' Medial Forms in Arabic lookup 0-1"  } ['medi' ('DFLT' <'dflt' > 'arab' <'dflt' > ) ]
Lookup: 2 0 0 "'fina' Terminal Forms in Arabic lookup 0"  {"'fina' Terminal Forms in Arabic lookup 0-1"  } ['fina' ('DFLT' <'dflt' > 'arab' <'dflt' > ) ]
Lookup: 6 9 0 "'calt' Contextual Substitution in Arabic lookup 0"  {"'calt' Contextual Substitution in Arabic lookup 0-2"  "'calt' Contextual Substitution in Arabic lookup 0-1"  } ['calt' ('DFLT' <'dflt' > 'arab' <'dflt' > ) ]
Lookup: 6 1 0 "'calt' Contextual Substitution in Arabic lookup 1"  {"'calt' Contextual Substitution in Arabic lookup 1-1"  } ['calt' ('DFLT' <'dflt' > 'arab' <'dflt' > ) ]

StartChar: arabiccomma
Encoding: 1548 1548 4
Width: 211
VWidth: 921
GlyphClass: 2
Flags: W
HStem: 0 90<80.0508 165.514>
VStem: 42 33<130 188.165>
LayerCount: 2
Fore
SplineSet
116 258 m 5
 131 244 l 5
 111 224 96 206 88 191 c 4
 79 176 75 159 75 142 c 6
 76 130 l 5
 78 116 l 6
 80 112 82 103 88 90 c 5
 98.784 95.3196 135.2 106.8 158 84 c 4
 169 74 174 62 174 48 c 4
 174 35 169 24 158 14 c 4
 148 4 134 0 118 0 c 4
 95 0 76 10 63 30 c 4
 50 51 42 79 42 114 c 4
 42 130 44 144 46 156 c 4
 50 170 54 182 61 193 c 4
 66 204 74 214 83 226 c 4
 92 237 104 248 116 258 c 5
EndSplineSet
EndChar

StartChar: arabicsemicolon
Encoding: 1563 1563 5
Width: 211
VWidth: 921
GlyphClass: 2
Flags: W
HStem: 0 80<86.3765 146.669> 142 90<80.0508 165.514>
VStem: 42 33<272 330.165> 75 83<11.331 75.9789>
LayerCount: 2
Fore
SplineSet
116 400 m 5
 131 386 l 5
 111 366 96 348 88 333 c 4
 79 318 75 301 75 284 c 6
 76 272 l 5
 78 258 l 6
 80 254 82 245 88 232 c 5
 98.7842 237.319 135.2 248.8 158 226 c 4
 169 216 174 204 174 190 c 4
 174 177 169 166 158 156 c 4
 148 146 134 142 118 142 c 4
 95 142 76 152 63 172 c 4
 50 193 42 221 42 256 c 4
 42 272 44 286 46 298 c 4
 50 312 54 324 61 335 c 4
 66 346 74 356 83 368 c 4
 92 379 104 390 116 400 c 5
116 0 m 0
 104 0 94 4 86 11 c 0
 78 18 75 28 75 40 c 0
 75 52 78 61 86 68 c 0
 94 76 104 80 116 80 c 0
 129 80 139 76 146 69 c 0
 154 62 158 53 158 42 c 0
 158 29 154 18 147 11 c 0
 140 4 129 0 116 0 c 0
EndSplineSet
EndChar

StartChar: arabicquestionmark
Encoding: 1567 1567 6
Width: 496
VWidth: 921
GlyphClass: 2
Flags: W
HStem: 14 101.021<213.506 287.807> 617 66<230.296 279.969>
VStem: 67.1475 67.8525<500 521.358> 203 100<24.6382 100.907>
LayerCount: 2
Fore
SplineSet
436.835 507.342 m 1
 435.495 495.284 l 1
 430.726 488.131 l 1
 422.223 481.045 l 1
 411.022 476.564 l 1
 402.249 475.215 l 1
 390.829 477.355 l 1
 381.418 482.062 l 1
 373.005 491.877 l 1
 370.356 498.498 l 1
 367.544 510.66 l 1
 364.59 521.444 l 1
 362.709 530.941 l 1
 362.525 531.857 l 1
 362.23 532.743 l 1
 358.079 545.157 l 1
 354.079 555.157 l 1
 350.23 566.743 l 1
 349.11 570.103 l 1
 337.484 581.729 l 1
 332.146 589.202 l 1
 322.36 597.591 l 1
 311.918 602.812 l 1
 302.577 609.817 l 1
 299.638 610.552 l 1
 291.16 612.655 l 1
 279.969 614.7 l 1
 269.646 617 l 1
 243.759 617 l 1
 230.296 614.752 l 1
 208.428 610.383 l 1
 196.741 605.188 l 1
 186.865 598.601 l 1
 178.029 593.082 l 1
 168.37 584.63 l 1
 167.711 583.878 l 1
 160.661 575.819 l 1
 153.184 567.097 l 1
 148.438 556.4 l 1
 143.005 545.55 l 1
 136.198 522.863 l 1
 136.062 521.358 l 1
 135.031 509.679 l 1
 135 498 l 1
 135 483.565 l 1
 144.032 456.469 l 1
 150.587 442.302 l 1
 157.793 428.889 l 1
 158.326 427.899 l 1
 159 427 l 1
 168.306 414.619 l 1
 180.81 400.016 l 1
 194.008 385.793 l 1
 194.764 384.98 l 1
 199.328 381.328 l 1
 207.054 371.672 l 1
 216.564 363.111 l 1
 220.726 356.869 l 1
 227.489 351.233 l 1
 232.959 344.982 l 1
 239.241 335.114 l 1
 245.241 325.114 l 1
 252.528 313.673 l 1
 259.078 304.304 l 1
 263.198 296.063 l 1
 267.124 285.333 l 1
 272.149 274.263 l 1
 274.742 267.394 l 1
 277.528 257.054 l 1
 277.829 255.951 l 1
 281.617 247.428 l 1
 283.183 239.783 l 1
 284.068 230.574 l 1
 285.134 218.844 l 1
 285.291 218.059 l 1
 287.191 208.701 l 1
 287.766 203.28 l 1
 285.464 195.225 l 1
 278.675 187.201 l 1
 268.059 182.247 l 1
 254.259 179 l 1
 243 179 l 2
 241.576 179 240.099 179.027 238.346 179.391 c 2
 230.467 182.345 l 1
 223.113 184.184 l 1
 221.15 185.306 220.305 186.173 218.885 190.015 c 0
 217.686 193.261 217.109 196.515 216.853 198.062 c 2
 214.797 216.659 l 1
 210.74 232.888 l 1
 209.568 241.085 l 1
 208.787 242.909 l 1
 205.916 249.588 l 1
 203.138 257.005 l 1
 200.894 263.755 l 1
 200.416 264.708 l 1
 196.068 273.329 l 1
 190.36 282.475 l 1
 184.464 290.381 l 1
 178.142 300.919 l 1
 161.789 319.314 l 1
 154.329 329.973 l 1
 142.349 340.853 l 1
 127.657 355.557 l 1
 119.877 367.226 l 1
 119.149 368.034 l 1
 110.432 377.702 l 1
 103.001 386.986 l 1
 96.4717 396.327 l 1
 89.8838 406.669 l 1
 85.1406 415.233 l 1
 79.5957 425.399 l 1
 75.791 434.889 l 1
 70.791 445.889 l 1
 67.1475 454.94 l 1
 64.7822 462.928 l 1
 63.8174 472.217 l 1
 61.8174 482.217 l 1
 60.9258 491.492 l 1
 60.0752 500 l 1
 60.9629 509.254 l 1
 61 518.515 l 1
 62.709 527.059 l 1
 64.8174 537.783 l 1
 65.7588 546.844 l 1
 68.2988 554.473 l 1
 71.2988 564.473 l 1
 73.9688 572.582 l 1
 77.707 580.908 l 1
 81.5615 589.6 l 1
 84.3281 595.114 l 1
 92.3281 603.114 l 1
 96.5908 611.641 l 1
 101.614 617.515 l 1
 107.911 625.596 l 1
 113.381 630.306 l 1
 121 636 l 1
 121.853 636.64 l 1
 122.606 637.394 l 1
 130.185 645.002 l 1
 135.61 649.624 l 1
 144.027 654.3 l 1
 151.859 659.896 l 1
 157.865 664.399 l 1
 166.222 666.906 l 1
 176.092 671.293 l 1
 184.418 675.031 l 1
 192.19 677.608 l 1
 199.052 679.326 l 1
 210.704 681.248 l 1
 219.485 683 l 1
 230.646 683 l 1
 239.646 685 l 1
 259.515 685 l 1
 269.515 683 l 1
 278.647 683 l 1
 288.031 681.3 l 1
 296.902 679.324 l 1
 306.556 677.41 l 1
 315.62 674.919 l 1
 322.004 671.735 l 1
 331.004 666.735 l 1
 338.456 663.001 l 1
 347.456 657.001 l 1
 348.292 656.584 l 1
 355.456 653.001 l 1
 362.443 648.343 l 1
 367.758 643.053 l 1
 376.122 635.711 l 1
 384.181 628.661 l 1
 389.496 624.104 l 1
 393.399 617.865 l 1
 398.021 610.926 l 1
 404.021 603.926 l 1
 409.001 596.457 l 1
 412.78 588.925 l 1
 416.78 581.925 l 1
 419.758 575.943 l 1
 421.758 566.943 l 1
 429.686 551.089 l 1
 431.324 542.902 l 1
 435 526.354 l 1
 435 516.515 l 1
 436.835 507.342 l 1
303 66 m 0
 303 51.4424 298.594 39.8066 288.394 29.6064 c 0
 286.932 28.1445 282.426 22.9834 271.292 17.416 c 0
 265.212 14.376 259.158 14 254 14 c 0
 239.997 14 228.692 20.499 218.6 30.5996 c 0
 208.714 40.4922 203 51.9971 203 66 c 0
 203 79.0449 207.912 90.1689 217.762 98.6113 c 2
 218.718 99.4307 l 1
 219.523 100.397 l 2
 221.77 103.093 224.975 105.717 234.708 110.584 c 0
 238.148 112.304 244.348 115 254 115 c 0
 254.466 115 255.158 115.021 256.045 115.021 c 0
 261.736 115.021 275.422 114.16 288.417 101.386 c 0
 298.809 91.1689 303 80.3174 303 66 c 0
EndSplineSet
Validated: 1
EndChar

StartChar: hamza
Encoding: 1569 1569 7
Width: 527
VWidth: 921
GlyphClass: 2
Flags: HW
HStem: 0 101<235.506 424.721> 279 93<233.248 340.955>
VStem: 112.728 91.994<130.964 250.816>
AnchorPoint: "harakaBelow" 292 -110 basechar 0
AnchorPoint: "harakaAbove" 288 522 basechar 0
LayerCount: 2
Fore
SplineSet
467 53 m 0
 467 31.2393 460.702 17.2578 443.681 6.70703 c 1
 437.719 4.74023 427.91 1.67188 416.901 0 c 1
 116.939 0 l 2
 101.821 1.91211 92.1846 3.58691 86.8232 6.35742 c 0
 68.0957 16.0371 60 31.5488 60 53 c 0
 60 67.4912 63.0947 84.4434 85.7588 94.1592 c 0
 97.9023 99.3652 114.544 100.701 117.86 101.116 c 2
 138.897 103.745 l 1
 119.846 141.85 l 2
 117.378 149.003 112.728 166.853 112.728 190.804 c 0
 112.728 220.554 119.903 259.717 147.347 299.482 c 0
 196.658 370.931 271.534 372 297 372 c 0
 343.807 372 386.535 344.132 407.235 322.557 c 0
 415.391 314.057 426.988 299.524 440.361 272.778 c 0
 444.991 259.342 452.796 249.08 454.037 232.254 c 0
 454.037 222.938 451.705 215.951 448.584 209.708 c 0
 444.713 201.967 436.662 194.303 422.443 189.284 c 0
 415.093 187.05 407.565 184.994 398.958 184.017 c 1
 358.965 185.255 365.533 236.031 336.997 261.365 c 2
 336.271 261.988 l 2
 329.534 269.067 315.286 279 286 279 c 0
 261.484 279 241.313 267.851 224.711 248.878 c 2
 224.064 248.138 l 1
 223.52 247.32 l 2
 210.618 227.968 204.722 207.94 204.722 189.097 c 0
 204.722 152.908 226.47 121.092 262.099 106.841 c 2
 279.768 101.609 l 1
 281.84 101 l 1
 416.759 101 l 1
 433.534 98.2041 l 2
 439.485 97.2119 441.521 96.4688 443.292 95.584 c 0
 457.691 88.3838 467 76.5381 467 53 c 0
EndSplineSet
EndChar

StartChar: alefwithmaddaabove
Encoding: 1570 1570 8
Width: 661
VWidth: 921
GlyphClass: 2
Flags: MW
LayerCount: 2
Fore
SplineSet
330.5 448.189 m 0
 512.555 448.189 660.308 300.437 660.308 118.382 c 0
 660.308 -63.6729 512.555 -211.426 330.5 -211.426 c 0
 148.445 -211.426 0.692383 -63.6729 0.692383 118.382 c 0
 0.692383 300.437 148.445 448.189 330.5 448.189 c 0
354.885 406.432 m 1
 396.083 220.562 l 1
 590.252 244.603 l 1
 547.301 334.366 458.895 398.287 354.885 406.432 c 1
308.138 406.259 m 1
 204.717 397.581 116.886 333.785 74.1885 244.345 c 1
 266.078 220.562 l 1
 308.138 406.259 l 1
331.103 380.585 m 1
 288.097 186.545 l 1
 76.0811 214.585 l 1
 76.0811 211.574 l 1
 258.079 104.577 l 1
 170.091 -89.4199 l 1
 171.08 -89.4199 l 1
 338.069 60.583 l 1
 484.072 -87.4414 l 1
 486.094 -85.4199 l 1
 399.094 104.577 l 1
 584.06 211.574 l 1
 582.081 214.585 l 1
 374.064 186.545 l 1
 331.103 380.585 l 1
609.39 191.835 m 1
 440.078 90.5576 l 1
 521.401 -92.8174 l 1
 580.699 -40.4365 618.12 36.1455 618.12 121.436 c 0
 618.12 145.732 615.104 169.306 609.39 191.835 c 1
54.6641 189.728 m 1
 49.2881 167.835 46.4502 144.978 46.4502 121.436 c 0
 46.4502 37.5586 82.6777 -37.8965 140.288 -90.1934 c 1
 223.073 90.5576 l 1
 54.6641 189.728 l 1
331.103 14.5674 m 1
 181.272 -121.201 l 1
 225.107 -148.548 276.871 -164.378 332.307 -164.378 c 0
 387.139 -164.378 438.357 -148.904 481.879 -122.104 c 1
 331.103 14.5674 l 1
EndSplineSet
MultipleSubs2: "'fina' Terminal Forms in Arabic lookup 0-1" alif.fina.short maddah
MultipleSubs2: "'isol' Isolated Forms in Arabic lookup 0-1" alif.isol.short maddah
EndChar

StartChar: tatweel
Encoding: 1600 1600 33
Width: 557
VWidth: 921
GlyphClass: 2
Flags: W
HStem: 0 100<0 557>
AnchorPoint: "harakaAbove" 278.5 680 basechar 0
LayerCount: 2
Fore
SplineSet
0 0 m 1
 0 100 l 1
 557 100 l 1
 557 0 l 1
 0 0 l 1
EndSplineSet
EndChar

StartChar: fathatan
Encoding: 1611 1611 44
Width: 0
VWidth: 921
GlyphClass: 4
Flags: W
HStem: 783.365 254.605
VStem: -144.361 291.67
AnchorPoint: "harakaAboveDot" 0 679 mark 0
AnchorPoint: "harakaAbove" 0 680 mark 0
LayerCount: 2
Fore
SplineSet
111.178 1037.97 m 5
 114.485 1039.24 117.892 1039.84 121.229 1039.84 c 4
 131.987 1039.84 142.027 1033.61 145.736 1023.41 c 4
 145.737 1023.4 145.739 1023.4 145.74 1023.4 c 4
 145.741 1023.39 145.743 1023.39 145.744 1023.38 c 4
 146.805 1020.47 147.309 1017.47 147.309 1014.52 c 4
 147.309 1003.98 140.879 994.004 130.469 990.189 c 5
 -111.036 902.365 l 4
 -113.799 901.36 -116.636 900.887 -119.442 900.887 c 4
 -130.206 900.887 -140.506 907.848 -144.361 918.449 c 4
 -144.362 918.452 -144.364 918.457 -144.365 918.461 c 4
 -144.366 918.464 -144.368 918.468 -144.369 918.471 c 4
 -145.414 921.346 -145.916 924.286 -145.916 927.175 c 4
 -145.916 937.715 -139.244 947.565 -128 951 c 5
 111.178 1037.97 l 5
111.178 918.974 m 5
 114.485 920.242 117.892 920.842 121.229 920.842 c 4
 131.987 920.842 142.027 914.606 145.736 904.407 c 4
 145.737 904.404 145.739 904.399 145.74 904.396 c 4
 145.741 904.393 145.743 904.388 145.744 904.385 c 4
 146.805 901.467 147.309 898.471 147.309 895.52 c 4
 147.309 884.976 140.879 875.005 130.469 871.189 c 5
 -111.036 783.365 l 4
 -113.799 782.36 -116.636 781.888 -119.442 781.888 c 4
 -130.206 781.888 -140.506 788.849 -144.361 799.449 c 4
 -144.362 799.452 -144.364 799.457 -144.365 799.461 c 4
 -144.366 799.464 -144.368 799.468 -144.369 799.471 c 4
 -145.414 802.346 -145.916 805.286 -145.916 808.175 c 4
 -145.916 818.715 -139.244 828.564 -128 832 c 5
 111.178 918.974 l 5
EndSplineSet
Substitution2: "Single Substitution lookup 5-1" fathatan.alt.short
Substitution2: "Single Substitution lookup 4-1" fathatan.alt
EndChar

StartChar: dammatan
Encoding: 1612 1612 45
Width: 0
VWidth: 921
GlyphClass: 4
Flags: W
HStem: 1000.41 51.08<10.3862 83.368>
VStem: 88.125 53.726<923.198 995.747>
AnchorPoint: "harkaAboveHaraka" 0 780 mark 0
AnchorPoint: "harakaAboveDot" 0 680 mark 0
AnchorPoint: "harakaAbove" 0 680 mark 0
LayerCount: 2
Fore
SplineSet
59.7168 920.816 m 4
 62.5146 921.571 76.3369 925.906 83.9316 941.693 c 4
 87.1396 948.362 88.125 954.525 88.125 959.615 c 4
 88.125 966.482 86.3311 971.394 85.7842 972.955 c 4
 81.9629 983.863 75.2676 991.199 64.8242 996.225 c 4
 58.1592 999.431 52.0322 1000.41 46.9805 1000.41 c 4
 40.1553 1000.41 35.291 998.623 33.7119 998.126 c 4
 22.6123 994.632 14.877 987.87 9.81348 977.348 c 4
 4.93555 967.204 4.89941 957.432 8.90527 946.812 c 4
 9.92871 944.101 13.8428 930.657 29.6299 923.063 c 4
 39.1211 918.498 49.6953 918.115 59.7168 920.816 c 4
-49.8037 782.881 m 4
 -53.7061 780.751 -57.7969 778.852 -63.0557 778.852 c 4
 -64.251 778.852 -65.5068 778.95 -66.835 779.166 c 4
 -72.1973 780.038 -76.1748 781.193 -81 787.832 c 4
 -83.5977 790.73 -84.7178 795.552 -85.1582 798.624 c 4
 -85.667 802.167 -84.7939 806.618 -84.4785 809.985 c 4
 -84.1523 813.473 -84.001 816.919 -84.001 820.314 c 4
 -84.001 840.95 -89.583 859.701 -95.2842 874.258 c 4
 -106.024 901.684 -120.729 922.797 -149.451 937.185 c 4
 -155.228 940.078 -160 943.667 -162 948 c 4
 -164.033 952.404 -165.025 956.827 -165.025 960.994 c 4
 -165.025 966.56 -163.255 971.669 -159.832 975.668 c 4
 -155.917 980.243 -150.02 983.485 -142.999 984.503 c 4
 -136.114 985.5 -129.317 983.819 -121.081 979.697 c 4
 -89.9277 964.104 -68.2119 932.805 -53.6494 899.915 c 4
 -45.5742 881.678 -39.6172 864.377 -36.9961 847.271 c 5
 8.09668 877.484 l 5
 -8.71875 885.573 -28.4473 897.494 -38.8867 923.666 c 4
 -43.2021 934.484 -44.7861 945.32 -44.7861 955.354 c 4
 -44.7861 974.926 -38.7578 991.446 -35.21 998.822 c 4
 -29.3516 1009.8 -14.3057 1039.39 28.6318 1049.11 c 4
 35.6289 1050.7 42.5713 1051.49 49.4473 1051.49 c 4
 63.0176 1051.49 76.3262 1048.4 89.2783 1042.17 c 4
 112.498 1031 127.119 1012.33 135.492 989.464 c 4
 139.671 978.051 141.851 966.955 141.851 956.019 c 4
 141.851 943.612 139.045 931.411 133.164 919.187 c 4
 128.519 909.528 123.318 902.956 116.105 896.828 c 4
 93.3857 877.529 -44.041 786.026 -49.8037 782.881 c 4
EndSplineSet
EndChar

StartChar: kasratan
Encoding: 1613 1613 46
Width: 0
VWidth: 921
GlyphClass: 4
Flags: W
HStem: -373.635 254.609
VStem: -144.361 291.67
AnchorPoint: "harakaBelowDot" 0 -100 mark 0
AnchorPoint: "harakaBelow" 0 -158 mark 0
LayerCount: 2
Fore
SplineSet
111.178 -119.026 m 5
 114.485 -117.758 117.892 -117.158 121.229 -117.158 c 4
 131.987 -117.158 142.027 -123.394 145.736 -133.593 c 4
 145.737 -133.596 145.739 -133.601 145.74 -133.604 c 4
 145.741 -133.607 145.743 -133.612 145.744 -133.615 c 4
 146.805 -136.533 147.309 -139.529 147.309 -142.481 c 4
 147.309 -153.024 140.879 -162.996 130.469 -166.811 c 5
 -111.036 -254.635 l 4
 -113.799 -255.64 -116.636 -256.113 -119.442 -256.113 c 4
 -130.206 -256.113 -140.506 -249.152 -144.361 -238.551 c 4
 -144.362 -238.548 -144.364 -238.543 -144.365 -238.539 c 4
 -144.366 -238.536 -144.368 -238.532 -144.369 -238.529 c 4
 -145.414 -235.654 -145.916 -232.714 -145.916 -229.825 c 4
 -145.916 -219.285 -139.244 -209.435 -128 -206 c 5
 111.178 -119.026 l 5
111.178 -238.026 m 5
 114.485 -236.758 117.892 -236.158 121.229 -236.158 c 4
 131.987 -236.158 142.027 -242.394 145.736 -252.593 c 4
 145.737 -252.596 145.739 -252.601 145.74 -252.604 c 4
 145.741 -252.607 145.743 -252.612 145.744 -252.615 c 4
 146.805 -255.533 147.309 -258.529 147.309 -261.48 c 4
 147.309 -272.024 140.879 -281.995 130.469 -285.811 c 5
 -111.036 -373.635 l 4
 -113.799 -374.64 -116.636 -375.112 -119.442 -375.112 c 4
 -130.206 -375.112 -140.506 -368.151 -144.361 -357.551 c 4
 -144.362 -357.548 -144.364 -357.543 -144.365 -357.539 c 4
 -144.366 -357.536 -144.368 -357.532 -144.369 -357.529 c 4
 -145.414 -354.654 -145.916 -351.714 -145.916 -348.825 c 4
 -145.916 -338.285 -139.244 -328.436 -128 -325 c 5
 111.178 -238.026 l 5
EndSplineSet
Substitution2: "Single Substitution lookup 5-1" kasratan.alt.short
EndChar

StartChar: fatha
Encoding: 1614 1614 47
Width: 0
VWidth: 921
GlyphClass: 4
Flags: W
HStem: 782.888 138.954
VStem: -144.361 291.67
AnchorPoint: "harakaAboveDot" 0 680 mark 0
AnchorPoint: "harakaAbove" 0 680 mark 0
LayerCount: 2
Fore
SplineSet
111.178 919.974 m 5
 114.485 921.242 117.892 921.842 121.229 921.842 c 4
 131.987 921.842 142.027 915.606 145.736 905.407 c 4
 145.737 905.404 145.739 905.399 145.74 905.396 c 4
 145.741 905.393 145.743 905.388 145.744 905.385 c 4
 146.805 902.467 147.309 899.471 147.309 896.52 c 4
 147.309 885.976 140.879 876.005 130.469 872.189 c 5
 -111.036 784.365 l 4
 -113.799 783.36 -116.636 782.888 -119.442 782.888 c 4
 -130.206 782.888 -140.506 789.849 -144.361 800.449 c 4
 -144.362 800.452 -144.364 800.457 -144.365 800.461 c 4
 -144.366 800.464 -144.368 800.468 -144.369 800.471 c 4
 -145.414 803.346 -145.916 806.286 -145.916 809.175 c 4
 -145.916 819.715 -139.244 829.564 -128 833 c 5
 111.178 919.974 l 5
EndSplineSet
Substitution2: "Single Substitution lookup 5-1" fatha.alt.short
Substitution2: "Single Substitution lookup 4-1" fatha.alt
EndChar

StartChar: damma
Encoding: 1615 1615 48
Width: 0
VWidth: 921
GlyphClass: 4
Flags: W
HStem: 1000.41 51.08<-37.6138 35.368>
VStem: -92.7861 50.8047<923.792 996.033> 40.125 53.7266<923.198 959.615 959.615 995.747>
AnchorPoint: "harkaAboveHaraka" 0 780 mark 0
AnchorPoint: "harakaAboveDot" 0 680 mark 0
AnchorPoint: "harakaAbove" 0 680 mark 0
LayerCount: 2
Fore
SplineSet
-97.8037 782.882 m 5
 -101.466 780.882 -104.955 779.06 -109.262 779.06 c 4
 -110.588 779.06 -111.991 779.232 -113.501 779.626 c 4
 -118.767 780.996 -123.88 782.663 -128.84 789.359 c 4
 -131.884 793.471 -133.796 798.985 -133.796 803.51 c 4
 -133.796 810.141 -130.001 817.235 -124.473 820.822 c 4
 -98 838 -75.1797 853.831 -39.9033 877.484 c 5
 -56.7188 885.573 -76.4473 897.494 -86.8867 923.666 c 4
 -91.2021 934.484 -92.7861 945.32 -92.7861 955.354 c 4
 -92.7861 974.926 -86.7578 991.446 -83.21 998.822 c 4
 -77.3516 1009.8 -62.3057 1039.39 -19.3682 1049.11 c 4
 -12.3711 1050.7 -5.42871 1051.49 1.44727 1051.49 c 4
 15.0176 1051.49 28.3262 1048.4 41.2783 1042.17 c 4
 64.498 1031 79.1201 1012.33 87.4922 989.464 c 4
 91.6709 978.051 93.8516 966.955 93.8516 956.019 c 4
 93.8516 943.612 91.0449 931.411 85.1641 919.187 c 4
 80.5186 909.528 75.3184 902.956 68.1055 896.828 c 4
 45.3857 877.529 -92.041 786.025 -97.8037 782.881 c 5
 -97.8037 782.882 l 5
11.7168 920.816 m 4
 14.5146 921.571 28.3369 925.906 35.9316 941.693 c 4
 39.1396 948.362 40.125 954.525 40.125 959.615 c 4
 40.125 966.482 38.3311 971.394 37.7842 972.955 c 4
 33.9629 983.863 27.2676 991.199 16.8242 996.225 c 4
 10.1592 999.431 4.03223 1000.41 -1.01953 1000.41 c 4
 -7.84473 1000.41 -12.709 998.623 -14.2881 998.126 c 4
 -25.3877 994.633 -33.123 987.87 -38.1865 977.348 c 4
 -40.7559 972.006 -41.9814 966.767 -41.9814 961.453 c 4
 -41.9814 956.676 -40.9912 951.839 -39.0947 946.812 c 4
 -38.0713 944.101 -34.1572 930.657 -18.3701 923.063 c 4
 -12.7539 920.362 -6.75781 919.125 -0.72168 919.125 c 4
 3.44238 919.125 7.62598 919.713 11.7168 920.816 c 4
EndSplineSet
EndChar

StartChar: kasra
Encoding: 1616 1616 49
Width: 0
VWidth: 921
GlyphClass: 4
Flags: W
HStem: 15.8877 138.954
VStem: -144.361 291.67
AnchorPoint: "harakaBelowDot" 0 172 mark 0
AnchorPoint: "harakaBelow" 0 114 mark 0
LayerCount: 2
Fore
SplineSet
111.178 152.974 m 5
 114.485 154.242 117.892 154.842 121.229 154.842 c 4
 131.987 154.842 142.027 148.606 145.736 138.407 c 4
 145.737 138.404 145.739 138.399 145.74 138.396 c 4
 145.741 138.393 145.743 138.388 145.744 138.385 c 4
 146.805 135.467 147.309 132.471 147.309 129.52 c 4
 147.309 118.976 140.879 109.005 130.469 105.189 c 5
 -111.036 17.3652 l 4
 -113.799 16.3604 -116.636 15.8877 -119.442 15.8877 c 4
 -130.206 15.8877 -140.506 22.8486 -144.361 33.4492 c 4
 -144.362 33.4521 -144.364 33.457 -144.365 33.4609 c 4
 -144.366 33.4639 -144.368 33.4678 -144.369 33.4707 c 4
 -145.414 36.3457 -145.916 39.2861 -145.916 42.1748 c 4
 -145.916 52.7148 -139.244 62.5645 -128 66 c 5
 111.178 152.974 l 5
EndSplineSet
Substitution2: "Single Substitution lookup 5-1" kasra.alt.short
EndChar

StartChar: shadda
Encoding: 1617 1617 50
Width: 0
VWidth: 921
GlyphClass: 4
Flags: W
HStem: 780 50<-104 -26 26 104>
VStem: -155 51<830 978.666> -26 52<830 978.666> 104 51<830 977.717>
CounterMasks: 1 70
AnchorPoint: "harkaAboveHaraka" 0 1030 basemark 0
AnchorPoint: "harakaAboveDot" 0 680 mark 0
AnchorPoint: "harakaAbove" 0 680 mark 0
LayerCount: 2
Fore
SplineSet
26 830 m 5
 104 830 l 5
 104 951 l 5
 104 966 115 978 129 978 c 4
 144 978 155 967 155 953 c 5
 155 807 l 5
 153 799 l 6
 152 795 148 792 145 788 c 4
 142 786 138 784 132 782 c 4
 128 781 122 780 115 780 c 6
 -115 780 l 6
 -121 780 -127 781 -131 782 c 4
 -138 784 -142 786 -144 789 c 4
 -148 792 -151 795 -152 800 c 6
 -155 807 l 5
 -155 953 l 5
 -155 967 -143 979 -129 979 c 4
 -115 979 -104 966 -104 951 c 5
 -104 830 l 5
 -26 830 l 5
 -26 951 l 5
 -26 966 -14 979 0 979 c 4
 14 979 27 967 26 953 c 5
 26 830 l 5
EndSplineSet
EndChar

StartChar: sukun
Encoding: 1618 1618 51
Width: 0
VWidth: 921
GlyphClass: 4
Flags: W
HStem: 778.975 42.025<-46.3352 44.1816> 941.591 39.649<-44.7571 42.5886>
VStem: -101.188 39.8921<837.585 924.931> 59.2949 41.7821<835.992 926.509>
AnchorPoint: "harkaAboveHaraka" 0 780 mark 0
AnchorPoint: "harakaAbove" 0 680 mark 0
AnchorPoint: "harakaAboveDot" 0 680 mark 0
LayerCount: 2
Fore
SplineSet
101.077 880.107 m 4
 101.077 824.282 55.7695 778.975 -0.0556641 778.975 c 4
 -55.8809 778.975 -101.188 824.282 -101.188 880.107 c 4
 -101.188 935.933 -55.8809 981.24 -0.0556641 981.24 c 4
 55.7695 981.24 101.077 935.933 101.077 880.107 c 4
59.2949 881.296 m 5
 59.2949 914.578 32.2832 941.591 -1 941.591 c 4
 -34.2832 941.591 -61.2959 914.578 -61.2959 881.296 c 4
 -61.2959 848.013 -34.2832 821 -1 821 c 4
 32.2832 821 59.2949 848.013 59.2949 881.296 c 5
EndSplineSet
EndChar

StartChar: uni0653
Encoding: 1619 1619 52
Width: 0
GlyphClass: 2
Flags: W
HStem: 582.75 53.533<-4.79171 111.189> 622.25 50.845<-108.754 -9.57839>
AnchorPoint: "hamzaAbove" -1.5 699 mark 0
LayerCount: 2
Fore
SplineSet
-54.4209 622.244 m 0x80
 -55.0818 622.25 l 0
 -70.544 622.25 -90.2545 612.185 -106.954 601.385 c 0
 -126.283 588.884 -141.577 575.401 -141.579 575.4 c 0
 -145.997 572.365 -149.748 571.314 -154.192 571.314 c 0
 -155.087 571.314 -156.01 571.356 -156.972 571.434 c 0
 -164 572 -170 574.5 -174.608 583.982 c 0
 -176.307 587.478 -176.986 591.115 -176.986 594.646 c 0
 -176.986 597.683 -176.484 600.642 -175.696 603.367 c 0
 -174.756 606.62 -171.345 614.807 -164.662 619.87 c 0
 -155.184 628.788 -146.023 636.346 -137.201 642.711 c 0
 -121.52 654.025 -106.898 661.577 -93.4229 666.323 c 0
 -79.6383 671.178 -67.0541 673.095 -55.7638 673.095 c 0x40
 -53.6798 673.095 -51.6398 673.029 -49.6445 672.905 c 0
 -11.8496 670.553 9.91699 647.07 11.6436 646.103 c 0
 23.6441 639.381 36.0099 636.283 48.6139 636.283 c 0
 52.5858 636.283 56.5814 636.59 60.5967 637.189 c 0
 78.626 639.882 97.0518 648.448 115.518 661.409 c 0
 129.021 670.884 135.922 678.846 139.396 680.773 c 0
 143.726 683.747 148.915 685.225 153.776 685.225 c 0
 154.872 685.225 155.951 685.15 157 685 c 0
 164 684 167.3 681.535 171 677 c 0
 174.791 672.351 175.293 668.284 175.293 661.131 c 0
 175.293 661.129 175.293 661.123 175.293 661.121 c 0
 175.293 661.117 175.293 661.112 175.293 661.107 c 0
 175.293 656.544 174.787 652.265 171.667 647.097 c 0
 169.753 643.924 166.852 640.417 162.479 636.304 c 0
 157.075 631.218 149.423 625.208 138.6 617.759 c 0
 121.603 605.594 105.937 597.255 91.6387 591.778 c 0
 74.4762 585.204 59.2838 582.75 46.1258 582.75 c 0
 43.0077 582.75 40.0039 582.888 37.1152 583.141 c 0
 17.8516 584.827 3.70703 591.651 -5.07129 597.021 c 0
 -17.627 604.702 -28.1543 621.747 -54.4209 622.244 c 0x80
EndSplineSet
Validated: 1
EndChar

StartChar: uni0654
Encoding: 1620 1620 53
Width: 0
VWidth: 921
GlyphClass: 2
Flags: W
HStem: 725.997 61.003<-123.082 -81.7354 -31.3884 100.279> 875 57.572<-34.686 37.9768>
VStem: -95.8281 56.4385<798.585 871.042>
AnchorPoint: "hamzaAbove" 1 932 mark 0
AnchorPoint: "harakaAboveDot" 0 932 basemark 0
LayerCount: 2
Fore
SplineSet
101 756 m 0
 101 730.621 86.9893 725.993 70.8154 725.993 c 2
 -81.875 725.997 l 2
 -103.493 727.077 -124.006 728.332 -124.006 756.773 c 0
 -124.006 786.983 -94.8887 786.006 -81.7354 786.651 c 1
 -90.4092 803.999 l 2
 -94.0596 813.8 -95.8281 824.107 -95.8281 834.476 c 0
 -95.8281 864.862 -80.6348 895.764 -53.084 915.939 c 0
 -42.0088 924.05 -22.1387 931.581 0 932.482 c 0
 1.46191 932.542 2.93359 932.572 4.41309 932.572 c 0
 37.9434 932.572 75.5898 916.834 95.4941 865.09 c 1
 95.1816 840.646 82.2129 832.231 68.5547 832.231 c 0
 60.0605 832.231 52.1396 835.5 47.1318 839.49 c 0
 31.8799 859.92 32.9023 875 1 875 c 0
 -27.9922 875 -39.3896 851.948 -39.3896 831.12 c 0
 -39.3896 815.448 -33.4727 806.963 -32 805 c 0
 -18.9717 787.629 -4.7168 788.634 0.188477 787 c 1
 70.8574 787.004 l 2
 88.5098 787.005 101 780.807 101 756 c 0
EndSplineSet
EndChar

StartChar: uni0655
Encoding: 1621 1621 54
Width: 0
VWidth: 921
GlyphClass: 2
Flags: W
HStem: -495.003 60.654<-123.275 -81.7354 -31.3884 100.366> -346 57.572<-34.686 37.9768>
VStem: -95.8281 56.4385<-422.415 -349.958>
AnchorPoint: "hamzaBelow" 0 -465 mark 0
LayerCount: 2
Fore
SplineSet
101 -465 m 0
 101 -490.379 86.9893 -495.007 70.8154 -495.007 c 2
 -81.875 -495.003 l 2
 -103.493 -493.923 -124.006 -492.668 -124.006 -464.227 c 0
 -124.006 -434.017 -94.8887 -434.994 -81.7354 -434.349 c 1
 -90.4092 -417.001 l 2
 -94.0596 -407.2 -95.8281 -396.893 -95.8281 -386.524 c 0
 -95.8281 -356.138 -80.6348 -325.236 -53.084 -305.061 c 0
 -42.0088 -296.95 -22.1387 -289.419 0 -288.518 c 0
 1.46191 -288.458 2.93359 -288.428 4.41309 -288.428 c 0
 37.9434 -288.428 75.5898 -304.166 95.4941 -355.91 c 1
 95.1816 -380.354 82.2129 -388.769 68.5547 -388.769 c 0
 60.0605 -388.769 52.1396 -385.5 47.1318 -381.51 c 0
 31.8799 -361.08 32.9023 -346 1 -346 c 0
 -27.9922 -346 -39.3896 -369.052 -39.3896 -389.88 c 0
 -39.3896 -405.552 -33.4727 -414.037 -32 -416 c 0
 -18.9717 -433.371 -4.7168 -432.366 0.188477 -434 c 1
 70.8574 -433.996 l 2
 88.5098 -433.995 101 -440.193 101 -465 c 0
EndSplineSet
EndChar

StartChar: arabicindicdigitzero
Encoding: 1632 1632 55
Width: 289
VWidth: 921
GlyphClass: 2
Flags: W
HStem: 127 126<98.3538 189.98>
VStem: 82 125<143.321 235.813>
LayerCount: 2
Fore
SplineSet
207 190 m 0
 207 172.242 200.993 158.207 188.394 145.606 c 0
 175.793 133.007 161.758 127 144 127 c 0
 126.643 127 113.207 134.007 100.606 146.606 c 0
 88.207 159.007 82 172.643 82 190 c 0
 82 207.199 89.0107 221.812 100.589 233.388 c 0
 112.894 245.689 126.777 253 144 253 c 0
 161.085 253 175.452 245.759 187.227 233.59 c 0
 199.325 221.085 207 207.223 207 190 c 0
EndSplineSet
EndChar

StartChar: arabicindicdigitone
Encoding: 1633 1633 56
Width: 258
VWidth: 921
GlyphClass: 2
Flags: W
VStem: 62.5273 133.061
LayerCount: 2
Fore
SplineSet
150.618 547.634 m 2
 195.588 56.3164 l 2
 195.561 47.1621 194.336 39.1982 192.193 32.375 c 4
 188.803 21.5791 183.112 13.6416 176.222 8.375 c 0
 169.157 2.97559 160.832 0.382812 152.432 0.393555 c 0
 143.79 0.405273 135.068 3.17188 127.557 8.47266 c 0
 121.097 13.0312 115.531 19.4648 111.682 27.6309 c 0
 109.082 33.1436 107.266 39.4443 106.481 46.4932 c 2
 62.5273 539.665 l 2
 62.126 546.758 62.792 553.125 64.3066 558.761 c 0
 67.1299 569.268 72.8984 577.233 80.1816 582.624 c 0
 88.6035 588.857 99.0508 591.646 109.307 590.942 c 0
 117.518 590.377 125.605 587.572 132.436 582.5 c 0
 138.896 577.702 144.23 570.877 147.478 562 c 0
 149.052 557.694 150.136 552.906 150.618 547.634 c 2
EndSplineSet
EndChar

StartChar: arabicindicdigittwo
Encoding: 1634 1634 57
Width: 402
VWidth: 921
GlyphClass: 2
Flags: W
HStem: 466 99<144.706 338.547>
VStem: 97.5186 85.7324<12.2213 51.7588 51.7588 116.755>
LayerCount: 2
Fore
SplineSet
347.519 515 m 0
 347.519 499.154 341.158 488.298 337.8 482.939 c 0
 334.827 478.196 328.405 469.677 311.083 465.602 c 1
 182.461 466 l 1
 174.519 466 l 2
 164.881 465.061 143.519 461.678 143.519 433 c 2
 143.519 424.148 l 1
 184.519 63.1484 l 1
 185.636 52.6504 185.077 43.625 183.251 36 c 0
 180.687 25.2998 175.625 17.3555 169.186 11.9668 c 0
 157.213 1.94629 140.478 0.757812 126.186 7.10059 c 0
 116.15 11.5547 107.319 19.7217 102.186 31.1533 c 0
 99.4932 37.1465 97.8184 44.0361 97.5186 51.7588 c 1
 55.4434 464.503 l 1
 54.4814 473.746 l 2
 54.5938 542.469 75.5957 565 155.567 565 c 2
 309.633 564.994 l 5
 315.333 564.281 l 2
 319.394 562.967 329.468 559.049 338.994 546.69 c 1
 344.426 537.082 347.519 525.854 347.519 515 c 0
EndSplineSet
EndChar

StartChar: arabicindicdigitthree
Encoding: 1635 1635 58
Width: 567
VWidth: 921
GlyphClass: 2
Flags: W
HStem: 316 81.212<172.901 257.236 340.236 419.236>
VStem: 257.236 83<398.69 538.139> 419.236 83<398.91 539.138>
LayerCount: 2
Fore
SplineSet
502.236 513.565 m 2
 502.236 403 l 2
 502.37 388.24 500.421 375.853 496.899 364.411 c 0
 493.345 352.859 488.153 344.094 479.133 336.064 c 0
 474.088 331.575 465.007 322.54 448.536 318.739 c 2
 429.219 316 l 1
 172.901 316 l 1
 195.264 54.3623 l 1
 195.575 47.7305 195.139 41.7227 194.082 36.333 c 0
 192.373 27.6182 189.044 20.5176 184.644 15 c 0
 177.004 5.41992 166.134 0.612305 154.903 0.410156 c 0
 147.448 0.275391 139.836 2.1709 132.903 6.0459 c 0
 125.597 10.1299 119.048 16.4141 114.236 24.8398 c 0
 110.917 30.6553 108.425 37.4922 107.085 45.3301 c 1
 65.167 496.44 l 1
 58.2363 560.667 141.236 575.667 153.505 507.764 c 1
 165.787 397.212 l 1
 257.236 397.76 l 1
 257.236 514.066 l 2
 257.236 569 340.236 577.501 340.236 512.565 c 2
 340.236 398.69 l 1
 419.236 398.303 l 1
 419.236 515.066 l 2
 419.708 569.998 502.236 578.501 502.236 513.565 c 2
EndSplineSet
EndChar

StartChar: arabicindicdigitfour
Encoding: 1636 1636 59
Width: 448
VWidth: 921
GlyphClass: 2
Flags: W
HStem: 0 84<160.904 372.829>
LayerCount: 2
Fore
SplineSet
343.097 0 m 2
 98.0967 0 l 2
 49.1602 0 48.8643 61.001 72.2285 90.207 c 2
 181.468 257.038 l 1
 183.917 263.16 194.661 278.641 175.954 298.97 c 0
 172.076 303.192 165.159 309.266 152.825 316.855 c 2
 106.825 343.855 l 2
 94.3857 351.51 84.7285 358.582 74.7031 368.606 c 0
 38.7607 404.549 51.1494 460.583 76.7656 478.996 c 0
 88.8604 487.69 138.767 511.333 220.096 550.999 c 1
 298.004 576.351 291.366 500.62 260.295 488.366 c 1
 137.964 429.061 l 1
 237.863 362.463 l 2
 262.144 346.751 309.191 317.302 260.288 235.807 c 0
 228.818 181.213 195.43 134.333 160.904 84 c 1
 342.612 84 l 2
 413.43 84 413.097 0 343.097 0 c 2
EndSplineSet
EndChar

StartChar: arabicindicdigitfive
Encoding: 1637 1637 60
Width: 475
VWidth: 921
GlyphClass: 2
Flags: W
HStem: 0 68<189.419 291.657> 415 81<184.215 286.316>
VStem: 62.9551 71.9849<125.266 349.857> 338.956 73.089<121.743 349.094>
LayerCount: 2
Fore
SplineSet
62.9551 232.134 m 0
 62.9551 312.001 97.5557 496 235.956 496 c 0
 340.991 496 403.956 381 411.015 249.863 c 0
 411.679 237.522 412.045 225.369 412.045 213.47 c 0
 412.045 95.6152 376.201 2.72461 239.956 0 c 0
 68.2021 -3.47266 64.6631 136.395 62.9551 232.134 c 0
338.956 234 m 0
 338.956 274.19 325.918 412.424 238.125 415 c 0
 154.505 417.472 134.94 291.49 134.94 220.216 c 4
 134.94 133.591 181.07 68 240.956 68 c 0
 271.661 68 338.956 90.8262 338.956 234 c 0
EndSplineSet
EndChar

StartChar: arabicindicdigitsix
Encoding: 1638 1638 61
Width: 449
VWidth: 921
GlyphClass: 2
Flags: W
HStem: 469 98<72.5042 260.604>
VStem: 58 333
LayerCount: 2
Fore
SplineSet
391 53.2432 m 1
 385.333 -26.7314 309.255 -7.09277 301.872 49.9053 c 1
 260.604 468.907 l 1
 106.052 469 l 2
 93.4609 469 77.1182 472.686 69.8643 482.16 c 0
 60.8047 493.995 58 504.184 58 517 c 0
 58 527.378 62.0107 539.229 72.0967 552.154 c 0
 80.7041 563.188 94.8057 567 109.944 567 c 2
 244.944 567 l 1
 277.871 566.119 l 1
 294.72 562.596 339.27 564.382 349 468.243 c 2
 391 53.2432 l 1
EndSplineSet
EndChar

StartChar: arabicindicdigitseven
Encoding: 1639 1639 62
Width: 575
VWidth: 921
GlyphClass: 2
Flags: W
VStem: 62.751 85.668<547.141 576.041>
LayerCount: 2
Fore
SplineSet
512.911 519.669 m 1
 507.605 501.939 l 1
 333.245 34.3838 l 1
 329.932 28.5801 l 2
 310.404 -3.97363 272.541 -15.333 245.207 31.3359 c 1
 64.3486 512.111 l 1
 62.751 520.101 l 2
 60.5918 545.652 54.8584 566.166 88.6143 580.143 c 0
 126.13 595.688 143.762 554.126 148.419 547.141 c 1
 287.874 170.834 l 1
 427.329 547.141 l 1
 450.023 580.097 474.682 584.325 491.874 574.102 c 0
 507.838 564.608 517.367 542.655 512.911 519.669 c 1
EndSplineSet
EndChar

StartChar: arabicindicdigiteight
Encoding: 1640 1640 63
Width: 575
VWidth: 921
GlyphClass: 2
Flags: W
VStem: 62.751 85.668<4.95949 33.8594>
LayerCount: 2
Fore
SplineSet
512.911 61.3311 m 1
 517.367 38.3447 507.838 16.3916 491.874 6.89844 c 0
 474.682 -3.3252 450.023 0.90332 427.329 33.8594 c 1
 287.874 410.166 l 1
 148.419 33.8594 l 1
 143.762 26.874 126.131 -14.6875 88.6143 0.857422 c 0
 54.8584 14.834 60.5918 35.3486 62.751 60.8994 c 2
 64.3486 68.8887 l 1
 245.207 549.664 l 1
 272.541 596.333 310.403 584.974 329.932 552.42 c 2
 333.245 546.616 l 1
 507.605 79.0605 l 1
 512.911 61.3311 l 1
EndSplineSet
EndChar

StartChar: arabicindicdigitnine
Encoding: 1641 1641 64
Width: 449
VWidth: 921
GlyphClass: 2
Flags: W
VStem: 55.3525 338.031
LayerCount: 2
Fore
SplineSet
393.384 49.3125 m 2
 398.979 -9.08008 313.728 -22.3271 307.326 44.623 c 2
 280.932 320.673 l 1
 268.259 306.584 258.321 303.354 242.353 297 c 1
 206.591 281.237 164.596 285.509 138.853 296 c 0
 115.621 305.468 97.4902 322.256 84.1484 342 c 0
 64.624 370.892 55.3525 406.115 55.3525 434 c 0
 55.3525 476.688 70.0088 510.489 92.8525 534.893 c 0
 121.541 565.54 163.145 581.361 204.853 581.337 c 0
 233.914 581.319 263.023 573.608 287.853 557.858 c 0
 318.028 538.717 343.879 507.7 353.625 464.188 c 2
 393.384 49.3125 l 2
231.303 486.72 m 0
 197.66 507.01 161.9 491.818 145.457 464.713 c 0
 133.37 444.789 131.718 418.427 149.017 394.988 c 0
 168.67 365.435 212.731 361.713 238.173 383.239 c 0
 260.326 402.801 265.527 424.475 261.747 443.347 c 0
 257.954 462.274 245.125 478.385 231.303 486.72 c 0
EndSplineSet
EndChar

StartChar: arabicpercentsign
Encoding: 1642 1642 65
Width: 631
VWidth: 921
GlyphClass: 2
Flags: W
HStem: 1 124<456.071 545.768> 499 124.021<86.2156 172.634>
VStem: 66.8369 125<517.207 604.761> 439.837 125<16.4648 105.859>
LayerCount: 2
Fore
SplineSet
191.837 561 m 0
 191.837 544.178 185.133 530.511 173.235 518.602 c 0
 160.94 506.291 147.06 499 129.837 499 c 0
 111.292 499 94.5771 505.468 84.5205 516.575 c 0
 72.335 530.037 66.8369 544.19 66.8369 561 c 0
 66.8369 578.09 71.8652 592.012 85.4258 605.388 c 0
 102.258 621.991 120.26 623.021 127.462 623.021 c 0
 145.769 623.021 160.548 618.072 173.23 605.394 c 0
 185.83 592.793 191.837 578.758 191.837 561 c 0
550.873 539.729 m 1
 169.619 36.6904 l 1
 116.878 -34.5088 37.5078 25.6113 76.6279 88.041 c 1
 457.696 589.816 l 2
 508.36 653.812 580.949 605.751 550.873 539.729 c 1
564.837 63 m 0
 564.837 45.2422 558.03 31.4062 545.23 18.6064 c 0
 533.03 6.40625 519.194 1 501.837 1 c 0
 485.948 1 471.996 6.91113 458.096 19.9434 c 0
 445.615 31.6436 439.837 45.7773 439.837 63 c 0
 439.837 79.8232 446.182 93.5098 458.27 105.226 c 0
 471.066 117.626 484.48 125 501.837 125 c 0
 517.775 125 532.858 119.123 546.404 106.226 c 0
 554.464 98.5498 564.837 81.1787 564.837 63 c 0
EndSplineSet
EndChar

StartChar: arabicfivepointedstar
Encoding: 1645 1645 66
Width: 662
VWidth: 921
GlyphClass: 2
Flags: W
LayerCount: 2
Fore
SplineSet
333 24 m 1
 162 -131 l 1
 132 -103 l 1
 225 100 l 1
 28 216 l 1
 42 258 l 1
 268 230 l 1
 316 442 l 1
 351 442 l 1
 398 230 l 1
 624 258 l 1
 636 216 l 1
 442 100 l 1
 532 -103 l 1
 504 -131 l 1
 333 24 l 1
173 -80 m 1
 340 70 l 1
 486 -78 l 1
 488 -76 l 1
 401 114 l 1
 586 221 l 1
 584 224 l 1
 376 196 l 1
 333 390 l 1
 290 196 l 1
 78 224 l 1
 78 221 l 1
 260 114 l 1
 172 -80 l 1
 173 -80 l 1
EndSplineSet
EndChar

StartChar: uni066E
Encoding: 1646 1646 67
Width: 925
VWidth: 921
GlyphClass: 2
Flags: W
HStem: 0 99<176.149 762.233> 248 100<178.072 544.944>
VStem: 60 94<120.937 225.288> 766 100<103.425 141.411 141.411 322.066>
AnchorPoint: "ring" 514 -1 basechar 0
AnchorPoint: "harakaBelow" 517 -141 basechar 0
AnchorPoint: "harakaAbove" 435 680 basechar 0
AnchorPoint: "dotAbove" 670 680 basechar 0
AnchorPoint: "dotBleow" 515 -140 basechar 0
LayerCount: 2
Fore
SplineSet
841.146 22.3486 m 0
 822.54 2.67578 794.007 0 794 0 c 2
 234 0 l 2
 195.041 0 140.806 15.4062 104.606 51.6064 c 0
 75.79 80.4229 60 120.947 60 174 c 0
 60 225.96 75.0566 265.738 104.765 296.557 c 0
 141.669 334.84 208.087 348 234 348 c 2
 516.986 348 l 2
 530.447 346.137 539.61 344.062 544.454 341.522 c 0
 567.355 329.516 569 311.223 569 298 c 0
 569 277.056 561.61 262.878 545.166 254.352 c 0
 540.46 251.912 533.825 250.276 516.997 248 c 2
 238.562 248 l 2
 227.396 248 154 242.655 154 170 c 0
 154 104.85 227.254 99 239.469 99 c 2
 720 99 l 2
 766.263 99 766 134.5 766 141.411 c 2
 766 295.906 l 1
 767.504 305.901 769.766 314.579 773.04 321.833 c 0
 780.708 338.82 793.932 348 816 348 c 0
 836.396 348 850.754 339.952 859.584 322.292 c 0
 861.95 317.558 865.257 307.14 866.02 296.466 c 2
 866 73 l 2
 866 53.4785 852.515 34.3672 841.146 22.3486 c 0
EndSplineSet
EndChar

StartChar: uni066F
Encoding: 1647 1647 68
Width: 712
VWidth: 921
GlyphClass: 2
Flags: W
HStem: -0.0136719 99.0111<184.405 541.352> 171.979 96.021<432.397 535.917> 420 84<432.44 535.714>
VStem: 60 105<150.945 388.881> 325 84<290.917 396.595> 548.682 97.417<107.905 184.633> 559 91.815<200.91 396.348>
AnchorPoint: "dotAbove.alt" 482 680 basechar 0
AnchorPoint: "harakaBelow" 222 -205 basechar 0
AnchorPoint: "harakaAbove" 482 680 basechar 0
AnchorPoint: "dotAbove" 482 680 basechar 0
LayerCount: 2
Fore
SplineSet
476 99 m 2xfc
 476.412 98.9983 476.821 98.9974 477.228 98.9974 c 0
 538.715 98.9974 548.682 118.811 548.682 155.484 c 0xfc
 548.682 157.462 548.653 159.488 548.602 161.564 c 2
 548.029 184.633 l 1
 525.414 179.502 513.596 172.575 486.446 171.979 c 0
 443.535 171.979 404.807 186.406 372.606 218.606 c 0
 342.229 248.984 325 287.242 325 333 c 0
 325 379.619 340.529 424.683 372.529 456.317 c 0
 420.15 503.395 470.075 504 485.824 504 c 0
 487 504 l 0
 521.254 504 554.197 495.702 584.607 471.308 c 0
 612.768 448.718 632.207 419.287 643.416 383.386 c 2
 646.1 361.077 l 2
 648.702 339.444 650.815 312.884 650.815 269.416 c 0xfa
 650.815 235.212 649.507 190.538 646.099 129.557 c 0
 637.54 7.00546 535.285 -0.138074 511.477 -0.138074 c 0
 508.336 -0.138074 506.56 -0.0136719 506.546 -0.0136719 c 2
 238 0 l 2
 201.782 0.00195312 179.216 2.7334 165.134 5.66602 c 0
 141.501 10.5879 119.98 19.6826 102.469 36.7412 c 0
 85.7275 53.0488 73.2539 76.2969 64.7656 105.914 c 1
 60 147.85 l 1
 60 340.058 l 2
 60.6143 344.861 61.8652 359.898 66.7881 371.131 c 0
 74.8945 389.624 90.3926 397 112 397 c 0
 139.95 397 151.625 384.209 158.584 370.292 c 2
 159.001 369.456 l 1
 159.52 368.68 l 2
 162.372 364.4 164.452 345.262 165 340.188 c 2
 165 167.605 l 1
 168.124 150.945 l 2
 170.145 129.649 181.266 118.207 183.896 115.935 c 0
 194.637 106.654 212.671 103.359 219.938 102.147 c 2
 239.169 100 l 1
 476 99 l 2xfc
559 343 m 0xfa
 559 362.842 550.909 381.078 537.04 396.155 c 0
 523.36 411.026 504.424 420 483.849 420 c 0
 478.318 420 453.684 419.896 431.394 397.606 c 0
 415.949 382.163 409 364.827 409 342.849 c 0
 409 337.318 409.104 312.684 431.394 290.394 c 0
 445.778 276.009 464.19 268 484.151 268 c 0
 489.682 268 514.316 268.104 536.606 290.394 c 0
 551.606 305.393 559 321.958 559 343 c 0xfa
EndSplineSet
EndChar

StartChar: ornateleftparenthesis
Encoding: 64830 64830 69
Width: 548
VWidth: 921
GlyphClass: 2
Flags: W
HStem: 71 61<246.234 291.296> 246 60<243.651 283.446> 346 20<196.661 249.095>
VStem: 45 25<172.666 199.828> 92 20<227.571 257> 152 58<167.375 211.562> 326 58<158.838 211.065> 424 18<235 260> 466 24<177.857 205.356>
LayerCount: 2
Fore
SplineSet
504 -276 m 1
 504 -280 500 -282 493 -282 c 0
 481 -282 462 -272 435 -253 c 0
 404 -228 373 -198 341 -158 c 0
 308 -114 277 -58 249 10 c 1
 220 10 198 12 180 17 c 0
 163 22 154 28 154 36 c 1
 172 50 186 64 196 80 c 0
 210 98 216 116 216 136 c 1
 201 136 186 128 169 113 c 2
 120 69 l 1
 118 69 114 76 106 88 c 1
 100 110 l 1
 94 143 l 1
 78 150 66 158 58 166 c 0
 50 173 45 180 45 186 c 0
 45 192 48 198 55 206 c 0
 64 215 76 224 92 234 c 1
 92 252 94 268 99 282 c 0
 104 297 108 304 114 304 c 1
 130 288 146 274 164 260 c 0
 180 246 198 240 216 240 c 1
 214 258 206 276 193 292 c 2
 150 340 l 1
 150 344 160 349 180 356 c 2
 194 360 l 1
 214 364 l 2
 224 366 234 366 246 366 c 1
 255 394 268 424 284 459 c 2
 306 501 l 1
 319 521 l 1
 334 541 l 2
 362 581 392 614 426 640 c 0
 452 660 470 670 482 670 c 0
 487 670 490 668 490 660 c 0
 490 658 479 644 458 620 c 0
 435 594 412 562 390 524 c 0
 369 486 351 432 338 362 c 1
 356 360 368 356 373 354 c 1
 375 352 378 349 382 342 c 1
 374 336 366 328 360 320 c 2
 340 297 l 2
 326 280 319 262 319 242 c 1
 336 242 353 250 370 263 c 2
 416 308 l 1
 417 308 418 306 418 306 c 0
 424 298 428 292 432 284 c 1
 440 260 l 2
 442 252 442 244 442 235 c 1
 449 232 l 2
 451 232 453 230 454 228 c 1
 466 221 l 1
 474 216 l 2
 476 215 478 214 480 211 c 1
 486 204 490 198 490 190 c 0
 490 184 487 178 482 172 c 0
 474 165 462 156 445 147 c 1
 445 122 442 104 438 92 c 0
 434 80 428 75 420 75 c 1
 406 90 392 104 378 115 c 0
 360 128 342 136 321 138 c 1
 321 125 328 108 342 86 c 2
 387 36 l 1
 387 32 384 29 378 26 c 1
 338 16 l 1
 342 -2 349 -28 360 -60 c 0
 364 -73 370 -86 377 -98 c 2
 398 -136 l 2
 428 -188 460 -229 495 -260 c 1
 496 -262 499 -266 504 -276 c 1
450 638 m 1
 410 610 372 572 340 522 c 0
 332 510 324 497 318 485 c 2
 296 443 l 1
 258 346 l 1
 230 346 210 344 196 343 c 0
 192 342 188 339 184 334 c 1
 210 308 l 2
 216 302 224 290 236 270 c 1
 242 282 248 291 254 297 c 0
 261 304 266 306 270 306 c 0
 272 306 274 306 278 302 c 1
 298 270 l 1
 304 284 312 296 322 308 c 2
 349 338 l 1
 349 341 338 344 315 348 c 1
 333 418 l 1
 336 433 l 2
 336 438 338 441 339 442 c 1
 343 455 l 2
 353 488 366 517 381 543 c 2
 392 563 l 1
 410 586 l 1
 432 615 l 1
 450 638 l 1
466 192 m 0
 466 200 452 209 424 218 c 1
 424 233 422 246 420 256 c 0
 416 268 414 274 412 276 c 1
 380 246 l 2
 367 234 354 226 341 221 c 1
 370 209 384 198 384 188 c 0
 384 182 382 178 376 173 c 2
 363 166 l 1
 343 158 l 1
 359 152 374 144 386 134 c 2
 416 107 l 1
 418 110 l 1
 422 120 l 1
 424 159 l 1
 452 174 466 186 466 192 c 0
326 188 m 0
 326 204 320 218 309 229 c 0
 298 240 284 246 268 246 c 0
 252 246 238 240 227 229 c 0
 216 218 210 204 210 188 c 0
 210 174 216 160 226 149 c 0
 237 138 251 132 268 132 c 0
 284 132 297 138 308 148 c 0
 320 159 326 172 326 188 c 0
194 156 m 1
 182 162 172 168 164 174 c 0
 158 180 153 185 152 190 c 1
 152 200 166 210 194 220 c 1
 182 224 168 232 150 243 c 1
 120 271 l 1
 118 268 l 1
 113 257 l 1
 112 218 l 1
 84 203 70 192 70 186 c 0
 70 178 84 170 112 159 c 1
 112 150 l 1
 112 140 l 1
 116 117 l 2
 118 108 120 102 122 102 c 0
 124 102 132 110 145 123 c 0
 158 137 175 148 194 156 c 1
470 -257 m 1
 437 -226 407 -188 380 -142 c 0
 348 -90 328 -33 319 30 c 1
 342 30 354 34 355 40 c 1
 326 67 l 2
 316 79 306 92 298 108 c 1
 293 96 288 86 284 81 c 0
 279 76 274 72 268 71 c 1
 261 71 250 84 238 108 c 1
 232 92 223 78 213 66 c 2
 188 39 l 1
 192 38 l 1
 201 34 l 1
 230 30 l 1
 245 31 l 1
 261 32 l 1
 268 10 l 1
 276 -10 l 2
 281 -24 286 -38 293 -49 c 0
 304 -74 320 -98 338 -124 c 0
 376 -180 420 -225 470 -257 c 1
EndSplineSet
Validated: 1
EndChar

StartChar: ornaterightparenthesis
Encoding: 64831 64831 70
Width: 548
VWidth: 921
GlyphClass: 2
Flags: W
HStem: 22 21<299.614 322> 82 61<259.963 304.165> 257 61<247.2 316.798> 282 32<126.744 134> 358 21<296.049 349>
VStem: 59 25<188 212.225> 104 22<235.479 281.264> 166 57<177.311 232.424> 340 58<177.415 220.976>
LayerCount: 2
Fore
SplineSet
504 204 m 256xdf80
 504 198 500 191 494 184 c 0
 486 174 474 164 457 154 c 1
 457 140 455 124 450 108 c 0
 446 92 441 84 435 84 c 1
 410 108 l 1
 386 128 l 2
 368 142 350 150 333 150 c 1
 334 130 342 113 356 97 c 2
 400 49 l 1
 388 42 l 1
 370 32 l 1
 362 30 352 27 340 25 c 2
 322 23 l 1
 303 22 l 1
 293 -10 280 -40 266 -70 c 2
 242 -112 l 1
 230 -132 l 1
 216 -152 l 2
 188 -192 158 -225 124 -251 c 0
 98 -272 80 -282 68 -282 c 0
 62 -282 59 -279 59 -273 c 1
 67 -262 l 1
 91 -232 l 2
 118 -202 140 -171 158 -138 c 0
 184 -88 203 -34 212 26 c 1
 192 30 180 33 175 36 c 0
 170 38 168 42 167 46 c 1
 175 53 182 60 190 68 c 0
 197 76 204 84 210 92 c 0
 224 108 230 127 230 147 c 1
 212 147 195 140 179 126 c 2
 134 80 l 1
 128 80 122 88 116 104 c 1
 110 133 l 1
 107 154 l 1
 88 163 76 171 68 178 c 1
 62 188 l 1
 59 198 l 1
 59 204 62 210 68 216 c 0
 74 222 86 232 104 242 c 1
 104 266 106 284 112 298 c 0
 116 308 122 314 129 314 c 1
 138 304 154 290 173 273 c 0
 186 264 204 256 228 251 c 1
 228 268 221 286 206 302 c 2
 162 353 l 1
 164 356 l 1
 170 363 l 1
 211 373 l 1
 206 394 200 420 190 448 c 2
 182 466 l 1
 178 476 l 1
 173 486 l 1
 164 504 l 1
 158 514 l 1
 152 526 l 2
 126 574 94 614 54 648 c 0
 48 655 45 660 45 664 c 0
 45 668 49 670 56 670 c 0
 68 670 88 661 114 642 c 0
 146 619 178 588 208 548 c 0
 242 504 272 447 300 379 c 1
 330 379 354 376 370 372 c 0
 386 368 395 362 395 354 c 1
 378 340 364 325 352 308 c 0
 340 291 333 272 333 254 c 1
 348 254 364 260 380 275 c 2
 429 320 l 1
 432 320 436 314 441 304 c 0
 446 292 450 274 454 246 c 1
 463 242 470 238 476 234 c 2
 478 234 484 230 492 223 c 0
 500 216 504 210 504 204 c 256xdf80
362 350 m 1
 360 350 l 1
 349 355 l 1
 320 358 l 1
 304 358 l 1
 288 357 l 1
 280 380 270 408 256 438 c 2
 248 454 l 1
 236 477 l 2
 228 490 220 502 212 513 c 0
 178 560 134 604 78 646 c 1
 106 620 136 580 170 526 c 0
 198 476 219 420 230 358 c 1
 220 358 l 1
 215 358 l 1
 206 355 l 2
 198 353 195 350 194 348 c 1
 223 322 l 2
 234 310 244 297 251 281 c 1
 257 294 262 304 267 310 c 0
 272 315 276 318 281 318 c 0xef80
 293 318 303 306 312 281 c 1
 318 298 326 312 336 323 c 2
 362 350 l 1
479 204 m 1
 477 207 l 1
 470 213 l 2
 468 214 457 220 438 230 c 1
 438 247 436 260 433 269 c 2
 426 286 l 1
 394 256 l 2
 382 245 369 237 355 232 c 1
 369 226 379 220 386 214 c 0
 393 209 397 204 398 198 c 0
 398 189 384 179 356 169 c 1
 372 164 386 156 400 146 c 2
 429 118 l 1
 431 118 433 122 435 130 c 1
 437 154 l 1
 438 170 l 1
 456 181 l 1
 469 190 l 2
 473 193 476 198 479 204 c 1
340 200 m 0
 340 216 334 230 322 240 c 0
 312 252 298 257 281 257 c 0
 267 257 254 252 242 240 c 0
 230 230 223 216 223 200 c 0
 223 184 229 171 240 160 c 0
 252 148 266 143 281 143 c 0
 297 143 311 148 322 160 c 0
 334 171 340 184 340 200 c 0
208 168 m 1
 196 173 185 178 177 184 c 0
 170 191 166 196 166 200 c 1
 166 207 179 217 206 232 c 1
 190 237 176 244 164 254 c 2
 134 282 l 1xdf80
 130 282 128 278 127 269 c 0
 126 260 126 247 126 230 c 1
 110 222 100 215 93 210 c 0
 86 205 84 200 84 196 c 0
 84 189 98 180 126 170 c 1
 126 148 126 134 129 128 c 2
 136 113 l 1
 138 113 146 120 160 134 c 0
 173 148 190 160 208 168 c 1
366 54 m 1
 354 65 l 1
 340 80 l 2
 331 90 322 104 314 119 c 1
 304 104 l 2
 301 98 298 94 295 91 c 0
 288 86 284 82 280 82 c 0
 277 82 273 84 270 88 c 1
 251 119 l 1
 246 105 238 92 228 81 c 2
 200 52 l 1
 200 48 206 46 219 44 c 0
 226 43 232 42 234 40 c 1
 222 -16 212 -52 206 -66 c 2
 202 -86 196 -101 190 -112 c 2
 184 -129 177 -142 169 -153 c 0
 154 -181 130 -213 98 -249 c 1
 139 -223 176 -185 208 -136 c 0
 221 -116 236 -89 252 -56 c 0
 264 -29 278 4 292 43 c 1
 303 43 l 1
 312 43 l 1
 320 43 l 1
 325 43 l 1
 330 43 l 2
 342 43 350 44 353 46 c 1
 360 48 364 50 366 54 c 1
EndSplineSet
Validated: 1
EndChar

StartChar: uniFC63
Encoding: 64611 64611 71
Width: 0
VWidth: 921
Flags: W
HStem: 684.5 36.136<-70.6356 -18.5498 17.9561 70.0428>
VStem: -107.786 36.8749<720.729 787.847> -18.5498 36.5059<720.729 787.775 833.131 940.775> 70.3184 36.8736<720.636 787.874>
LayerCount: 2
Fore
SplineSet
-18.5498 932.082 m 2
 -17.8994 936.422 -16.96 939.165 -16.2217 940.953 c 1
 -12.9759 945.86 -7.07082 948.34 -0.195026 948.34 c 0
 6.67009 948.33 12.354 945.811 15.6279 940.86 c 0
 16.3662 939.072 17.3057 936.33 17.9561 931.99 c 2
 17.9561 842.01 l 2
 17.9561 837.621 16.3662 834.928 15.6279 833.14 c 1
 12.3701 828.213 6.68457 825.68 -0.112305 825.66 c 24
 -7.02344 825.64 -12.9629 828.12 -16.2217 833.047 c 1
 -16.96 834.835 -18.5498 837.529 -18.5498 841.918 c 2
 -18.5498 932.082 l 2
67 684.5 m 2
 -67.5928 684.592 l 2
 -74.2041 684.592 -80.1084 685.461 -84.1436 686.591 c 0
 -90.5674 688.391 -94.8438 690.381 -97.5146 693.202 c 0
 -101.035 696.918 -103.374 700.274 -105.31 704.144 c 2
 -107.786 710.685 l 1
 -107.786 779.081 l 1
 -107.123 783.502 -106.161 786.264 -105.417 788.05 c 1
 -102.425 792.989 -97.3145 795.34 -89.3486 795.34 c 0
 -81.0771 795.34 -76.0645 793.048 -73.1973 787.924 c 0
 -72.2861 786.295 -71.832 784.463 -70.9111 779.023 c 1
 -70.9111 720.729 l 1
 -18.5498 720.729 l 1
 -18.5498 779.082 l 1
 -17.8994 783.422 -16.96 786.165 -16.2217 787.953 c 1
 -12.9759 792.86 -7.07082 795.34 -0.195026 795.34 c 0
 6.67009 795.33 12.354 792.811 15.6279 787.86 c 0
 16.3662 786.072 17.3057 783.33 17.9561 778.99 c 1
 17.9561 720.636 l 1
 70.3184 720.636 l 1
 70.3184 778.93 l 1
 71.2393 784.37 71.6924 786.203 72.6045 787.832 c 0
 75.4717 792.956 80.4844 795.248 88.7559 795.248 c 0
 96.7217 795.248 101.832 792.896 104.824 787.958 c 1
 105.568 786.172 106.53 783.409 107.192 778.989 c 1
 107.192 710.592 l 1
 104.716 704.052 l 2
 102.78 700.181 100.442 696.826 96.9219 693.109 c 0
 94.251 690.29 89.9746 688.299 83.5508 686.499 c 0
 79.5156 685.368 73.6113 684.491 67 684.5 c 2
EndSplineSet
Validated: 33
EndChar

StartChar: alif.isol
Encoding: 65536 -1 72
Width: 226
VWidth: 921
Flags: W
HStem: 0 21G<102.038 127.602>
VStem: 59.9922 106.016<22.9759 634.042 634.042 681.353>
AnchorPoint: "harakaAbove" 113.992 780 basechar 0
AnchorPoint: "hamzaBelow" 114.992 -203 basechar 0
LayerCount: 2
Fore
SplineSet
166.008 59.4678 m 2
 165.165 46.001 163.232 36.1602 159.212 26.9102 c 0
 153.149 12.9697 141.212 0 113.992 0 c 0
 90.084 0 75.1875 8.18848 66.8037 22.7744 c 0
 64.4316 26.9033 61.1709 41.958 59.9922 48.375 c 1
 59.9922 633.989 l 2
 59.9922 648.872 64.7432 657.96 67.4082 663.292 c 0
 74.3672 677.209 86.042 690 113.992 690 c 0
 141.344 690 152.676 677.094 159.576 663.292 c 0
 162.058 658.327 165.036 639.602 165.992 633.759 c 1
 166.008 59.4678 l 2
EndSplineSet
EndChar

StartChar: alif.isol.short
Encoding: 65538 -1 73
Width: 323
VWidth: 921
GlyphClass: 2
Flags: W
HStem: 0 21G<153.536 178.522>
VStem: 109.998 107.002<21.7344 421.784>
AnchorPoint: "hamzaAbove" 166 690 basechar 0
LayerCount: 2
Fore
SplineSet
217 60 m 2
 217 42.4824 212.586 33.665 210.183 27.8311 c 0
 203.732 12.1729 192.044 0 165 0 c 0
 142.072 0 126.899 7.03223 117.653 21.4424 c 1
 115.515 27.6504 112.21 35.2236 111 47.958 c 2
 109.998 58.5 l 1
 109.006 391.624 l 5
 111.94 407.025 114.723 416.718 117.475 422.41 c 4
 126.068 440.184 142.205 449 165 449 c 4
 185.383 449 199.497 440.544 208.723 422.043 c 4
 211.402 416.667 214.899 401.073 217 391.376 c 5
 217 60 l 2
EndSplineSet
Validated: 1
EndChar

StartChar: alif.fina.lamAlif
Encoding: 65539 -1 74
Width: 201
VWidth: 921
GlyphClass: 2
Flags: W
VStem: 25 106.015<75.9759 615.042 615.042 662.352>
AnchorPoint: "harakaAbove" 78 780 basechar 0
LayerCount: 2
Fore
SplineSet
131.015 112.468 m 2
 131.015 98.9746 128.24 89.1602 124.219 79.9102 c 0
 118.157 65.9697 106.219 53 79 53 c 0
 55.0918 53 40.1953 61.1885 31.8115 75.7744 c 0
 29.4395 79.9033 26.1787 94.958 25 101.375 c 1
 25 614.989 l 2
 25 629.872 29.751 638.96 32.416 644.292 c 0
 39.375 658.209 51.0498 671 79 671 c 0
 106.351 671 117.683 658.094 124.584 644.292 c 0
 127.065 639.327 130.044 620.602 131 614.759 c 1
 131.015 112.468 l 2
EndSplineSet
Substitution2: "Single Substitution lookup 3-1" alif.fina.lamAlif.alt
EndChar

StartChar: alif.fina
Encoding: 65540 -1 75
Width: 274
VWidth: 921
GlyphClass: 2
Flags: W
HStem: 0 100<166.113 274>
VStem: 60.9841 104.914<101.639 666.193>
AnchorPoint: "harakaAbove" 117 780 basechar 0
AnchorPoint: "hamzaBelow" 165 -203 basechar 0
LayerCount: 2
Fore
SplineSet
274 0 m 1
 166 0 l 2
 68.2096 0 60.9841 50.2031 60.9841 109.977 c 0
 60.9841 111.695 60.99 113.42 61 115.153 c 2
 61 623 l 2
 61 642.328 66.291 658.854 75.7129 670.63 c 0
 80.6299 676.776 92.2275 688 117 688 c 0
 139.99 688 149.173 676.612 155.35 666.939 c 0
 165.439 651.14 166 627.777 166 618 c 2
 166.026 142.377 l 17
 166.136 137.312 165.898 132.482 165.898 128.012 c 0
 165.898 113.174 168.513 102.305 195.111 100 c 9
 274 100 l 1
 274 0 l 1
EndSplineSet
Validated: 1
MultipleSubs2: "Single Substitution lookup 2-1" alif.fina.lamAlif
EndChar

StartChar: alif.fina.short
Encoding: 65541 -1 76
Width: 274
VWidth: 921
GlyphClass: 2
Flags: W
HStem: 0 100<166.113 274>
VStem: 61 105.026<103.639 421.193>
AnchorPoint: "hamzaAbove" 110 690 basechar 0
LayerCount: 2
Fore
SplineSet
274 0 m 1
 166 0 l 2
 65.3994 0 61 53.1289 61 115.153 c 2
 61 378 l 2
 61 397.328 66.291 413.854 75.7129 425.63 c 0
 80.6299 431.776 92.2275 443 117 443 c 0
 139.99 443 149.173 431.612 155.35 421.939 c 0
 165.439 406.14 166 382.777 166 373 c 2
 166.026 142.377 l 17
 166.136 137.312 165.898 132.482 165.898 128.012 c 0
 165.898 113.174 168.513 102.305 195.111 100 c 9
 274 100 l 1
 274 0 l 1
EndSplineSet
Validated: 1
MultipleSubs2: "Single Substitution lookup 2-1" alif.fina.short.lamAlif
EndChar

StartChar: beh.isol
Encoding: 65542 -1 77
Width: 925
VWidth: 921
GlyphClass: 2
Flags: W
HStem: 0 99<176.149 762.233> 248 100<178.072 544.944>
VStem: 60 94<120.937 225.288> 766 100<103.425 141.411 141.411 322.066>
AnchorPoint: "ring" 514 -1 basechar 0
AnchorPoint: "harakaBelow" 517 -141 basechar 0
AnchorPoint: "harakaAbove" 435 680 basechar 0
AnchorPoint: "dotAbove" 670 680 basechar 0
AnchorPoint: "dotBleow" 515 -140 basechar 0
LayerCount: 2
Fore
SplineSet
841.146 22.3486 m 0
 822.54 2.67578 794.007 0 794 0 c 2
 234 0 l 2
 195.041 0 140.806 15.4062 104.606 51.6064 c 0
 75.79 80.4229 60 120.947 60 174 c 0
 60 225.96 75.0566 265.738 104.765 296.557 c 0
 141.669 334.84 208.087 348 234 348 c 2
 516.986 348 l 2
 530.447 346.137 539.61 344.062 544.454 341.522 c 0
 567.355 329.516 569 311.223 569 298 c 0
 569 277.056 561.61 262.878 545.166 254.352 c 0
 540.46 251.912 533.825 250.276 516.997 248 c 2
 238.562 248 l 2
 227.396 248 154 242.655 154 170 c 0
 154 104.85 227.254 99 239.469 99 c 2
 720 99 l 2
 766.263 99 766 134.5 766 141.411 c 2
 766 295.906 l 1
 767.504 305.901 769.766 314.579 773.04 321.833 c 0
 780.708 338.82 793.932 348 816 348 c 0
 836.396 348 850.754 339.952 859.584 322.292 c 0
 861.95 317.558 865.257 307.14 866.02 296.466 c 2
 866 73 l 2
 866 53.4785 852.515 34.3672 841.146 22.3486 c 0
EndSplineSet
Validated: 33
EndChar

StartChar: beh.init
Encoding: 65543 -1 78
Width: 296
VWidth: 921
GlyphClass: 2
Flags: W
HStem: 0 100<0 133.549>
VStem: 137 100<103.731 340.351>
AnchorPoint: "dotBelow.alt" 190 -140 basechar 0
AnchorPoint: "ring" 87 0 basechar 0
AnchorPoint: "harakaBelow" 105 -141 basechar 0
AnchorPoint: "harakaAbove" 180 680 basechar 0
AnchorPoint: "hamzaAbove" 180 680 basechar 0
AnchorPoint: "dotAbove" 180 680 basechar 0
AnchorPoint: "dotBleow" 104 -140 basechar 0
LayerCount: 2
Fore
SplineSet
237 76 m 2
 237 75.9873 235.31 0 160.025 0 c 2
 0 0 l 1
 0 100 l 1
 92 100 l 2
 117.461 100 137 110.167 137 143.169 c 2
 137 295.926 l 1
 139.305 311.796 140.756 317.315 143.292 322.055 c 0
 152.198 338.693 164.58 348 187 348 c 0
 209.455 348 221.512 338.438 229.584 322.292 c 0
 232.004 317.452 235.345 306.728 237 295.898 c 1
 237 76 l 2
EndSplineSet
EndChar

StartChar: beh.medi
Encoding: 65544 -1 79
Width: 332
VWidth: 921
GlyphClass: 2
Flags: W
HStem: 1 100<0 133.452 239 332>
VStem: 139 100<104.657 340.991> 238 94<1 67.0215>
AnchorPoint: "dotBelow.alt" 200 -140 basechar 0
AnchorPoint: "ring" 87 0 basechar 0
AnchorPoint: "harakaBelow" 150 -141 basechar 0
AnchorPoint: "harakaAbove" 190 680 basechar 0
AnchorPoint: "hamzaAbove" 190 680 basechar 0
AnchorPoint: "dotAbove" 190 680 basechar 0
AnchorPoint: "dotBleow" 150 -140 basechar 0
LayerCount: 2
Fore
SplineSet
238.009 67.0215 m 1xa0
 235.333 47.833 224.259 29.0889 216.651 21.8525 c 0
 201.214 7.1709 176.168 1 162.982 1 c 2
 0 1 l 1
 0 101 l 1
 94 101 l 2
 94.9583 101 96.4288 100.925 98.2636 100.925 c 0
 109.516 100.925 134.47 103.758 139 144.169 c 2
 139 297.066 l 1
 139 301.5 139.118 311.604 145.292 323.055 c 0
 154.294 339.738 166.792 349 188 349 c 0
 199.189 349 220.023 346.518 232.708 323.055 c 0
 234.203 320.289 236.783 311.944 239 296.917 c 1
 239 101 l 1xc0
 332 101 l 1
 332 1 l 1
 238 1 l 1
 238.009 67.0215 l 1xa0
EndSplineSet
EndChar

StartChar: beh.fina
Encoding: 65545 -1 80
Width: 973
VWidth: 921
GlyphClass: 2
Flags: W
HStem: 1 99<173.149 759.233 863 973> 249 100<175.072 541.944>
VStem: 57 94<121.937 226.288> 763 100<104.425 142.411 142.411 341.523> 863 110<1 73.6826>
AnchorPoint: "ring" 514 -1 basechar 0
AnchorPoint: "harakaBelow" 516 -141 basechar 0
AnchorPoint: "harakaAbove" 435 680 basechar 0
AnchorPoint: "dotAbove" 663 680 basechar 0
AnchorPoint: "dotBleow" 515 -140 basechar 0
LayerCount: 2
Fore
SplineSet
863 101 m 1
 973 101 l 1
 973 1 l 1
 863 1 l 1
 863.002 73.6826 l 2
 863 54.4785 849.515 35.3672 838.146 23.3486 c 0
 819.54 3.67578 791.007 1 791 1 c 2
 231 1 l 2
 192.041 1 137.806 16.4062 101.606 52.6064 c 0
 72.79 81.4229 57 121.947 57 175 c 0
 57 226.96 72.0566 266.738 101.765 297.557 c 0
 138.669 335.84 205.087 349 231 349 c 2
 513.986 349 l 2
 527.447 347.137 536.61 345.062 541.454 342.522 c 0
 564.355 330.516 566 312.223 566 299 c 0
 566 278.056 558.61 263.878 542.166 255.352 c 0
 537.46 252.912 530.825 251.276 513.997 249 c 2
 235.562 249 l 2
 224.396 249 151 243.655 151 171 c 0
 151 105.85 224.254 100 236.469 100 c 2
 717 100 l 2
 763.263 100 763 135.5 763 142.411 c 2
 763 296.906 l 1
 764.504 306.901 766.766 315.579 770.04 322.833 c 0
 777.708 339.82 790.932 349 813 349 c 0
 833.396 349 847.754 340.952 856.584 323.292 c 0
 858.95 318.558 863.021 308.167 863.02 297.466 c 2
 863 101 l 1
EndSplineSet
Validated: 33
EndChar

StartChar: hah.isol
Encoding: 65546 -1 81
Width: 650
VWidth: 921
GlyphClass: 2
Flags: W
HStem: -206 101<163.719 490.522> 1 97.0066<163.412 400.781 515.161 586.522> 253 105<88.9608 402.011>
VStem: 60 95<-95.2234 -7.22342> 423 104.007<119.418 232.318>
AnchorPoint: "dotBleow" 310 -316 basechar 0
AnchorPoint: "hamzaAbove" 270 680 basechar 0
AnchorPoint: "harakaBelow" 169 -270 basechar 0
AnchorPoint: "harakaAbove" 270 680 basechar 0
AnchorPoint: "dotAbove" 270 680 basechar 0
LayerCount: 2
Fore
SplineSet
538 102 m 1
 543.843 101.044 562.568 98.0654 567.533 95.584 c 0
 581.335 88.6826 594.241 79.3506 594.241 52 c 0
 594.241 24.0498 581.45 15.375 567.533 8.41602 c 0
 562.201 5.75098 553.112 1 538.23 1 c 2
 206 1 l 2
 175.4 1 155 -20.2002 155 -52 c 0
 155 -98.1543 195.008 -102.515 203.955 -105 c 1
 442 -105 l 1
 447.843 -105.956 466.568 -108.935 471.533 -111.416 c 0
 485.335 -118.317 498.241 -127.649 498.241 -155 c 0
 498.241 -182.95 485.45 -191.625 471.533 -198.584 c 0
 466.201 -201.249 457.112 -206 442.23 -206 c 2
 206 -206 l 2
 195.657 -206 182.739 -204.063 168.752 -200.478 c 0
 146.141 -194.681 119.297 -184.521 97.6992 -162.487 c 0
 69.0811 -133.292 60 -96.6777 60 -57 c 0
 60 -17.9805 67.9473 22.2061 97.0059 53.8105 c 0
 114.64 72.9883 137.908 86.1855 167.537 93.4229 c 0
 184.788 97.6374 196.238 98.0066 203.968 98.0066 c 0
 204.676 98.0066 205.353 98.0035 206 98 c 2
 352.466 98.2041 l 1
 376.52 102.214 423 114.963 423 178 c 0
 423 245.544 362.725 250.229 349.562 253 c 1
 118.241 253 l 1
 112.398 253.956 93.6729 256.935 88.708 259.416 c 0
 74.9062 266.317 62 277.649 62 305 c 0
 62 332.95 74.791 344.625 88.708 351.584 c 0
 94.04 354.249 103.267 355.972 118.695 358 c 1
 384.254 358.037 l 2
 384.27 358.037 472.334 334.684 506.839 269.81 c 0
 527.703 230.561 526.688 185.493 527.007 177.688 c 0
 527.007 158.166 525.9 142.768 522.518 129.906 c 2
 515.161 101.933 l 1
 538 102 l 1
EndSplineSet
EndChar

StartChar: hah.init
Encoding: 65547 -1 82
Width: 730
VWidth: 921
GlyphClass: 2
Flags: W
HStem: -1 100<0 471.579 577.845 663.944> 252 99<67.9867 469.853>
VStem: 491 104<117.552 230.797>
AnchorPoint: "hamzaAbove" 322 680 basechar 0
AnchorPoint: "harakaBelow" 321 -141 basechar 0
AnchorPoint: "harakaAbove" 320 680 basechar 0
AnchorPoint: "dotBleow" 320 -140 basechar 0
AnchorPoint: "dotAbove" 325 680 basechar 0
LayerCount: 2
Fore
SplineSet
634.797 -1 m 1
 0 -1 l 1
 0 99 l 1
 418.934 99 l 2
 441.373 99 491 109.844 491 178 c 0
 491 243.624 427.981 249.704 417.646 252 c 1
 102.707 252 l 1
 88.0156 255.523 77.9395 260.901 70.9277 270.07 c 0
 64.709 278.203 59 289.016 59 302 c 0
 59 314.151 63.3994 324.866 71 335 c 0
 74.8105 340.08 82.6162 347.671 102.219 351 c 1
 453.169 351 l 2
 468.483 349.3 502.165 339.66 527.429 321.694 c 0
 547.92 307.121 564.271 290.385 574.283 269.856 c 0
 574.841 268.712 595 216.499 595 176 c 0
 595 134.239 586.905 121.651 577.845 99 c 1
 637.501 99.0166 l 2
 642.477 99.0176 651.775 96.2998 661 84 c 0
 667.856 74.8574 671 64.7256 671 50 c 0
 671 37.6514 667.802 26.7441 661.52 17.3203 c 0
 655.962 8.98438 647.006 2.36328 634.797 -1 c 1
EndSplineSet
EndChar

StartChar: hah.medi
Encoding: 65548 -1 83
Width: 682
VWidth: 921
GlyphClass: 2
Flags: W
HStem: 0 100<0 471.579 577.845 682> 253 99<67.9867 469.853>
VStem: 491 104<118.552 231.797>
AnchorPoint: "hamzaAbove" 321 680 basechar 0
AnchorPoint: "harakaBelow" 303 -141 basechar 0
AnchorPoint: "harakaAbove" 320 680 basechar 0
AnchorPoint: "dotBleow" 304 -140 basechar 0
AnchorPoint: "dotAbove" 325 680 basechar 0
LayerCount: 2
Fore
SplineSet
682 0 m 1
 0 0 l 1
 0 100 l 1
 418.934 100 l 2
 441.373 100 491 110.844 491 179 c 0
 491 244.624 427.981 250.704 417.646 253 c 1
 102.707 253 l 1
 88.0156 256.523 77.9395 261.901 70.9277 271.07 c 0
 64.709 279.203 59 290.016 59 303 c 0
 59 315.151 63.3994 325.866 71 336 c 0
 74.8105 341.08 82.6162 348.671 102.219 352 c 1
 453.169 352 l 2
 468.483 350.3 502.165 340.66 527.429 322.694 c 0
 547.92 308.121 564.271 291.385 574.283 270.856 c 0
 574.841 269.712 595 217.499 595 177 c 0
 595 135.239 586.905 122.651 577.845 100 c 1
 682 100 l 1
 682 0 l 1
EndSplineSet
EndChar

StartChar: hah.fina
Encoding: 65549 -1 84
Width: 616
VWidth: 921
GlyphClass: 2
Flags: W
HStem: -207 101<163.719 490.522> 0 97.0066<163.412 400.781 515.114 616 616 616> 252 106<70.6476 402.011>
VStem: 60 95<-96.2234 -8.22342> 423 104.007<118.469 231.318>
AnchorPoint: "dotBleow" 310 -316 basechar 0
AnchorPoint: "hamzaAbove" 270 680 basechar 0
AnchorPoint: "harakaBelow" 169 -270 basechar 0
AnchorPoint: "harakaAbove" 270 680 basechar 0
AnchorPoint: "dotAbove" 270 680 basechar 0
LayerCount: 2
Fore
SplineSet
206 0 m 2
 175.4 0 155 -21.2002 155 -53 c 0
 155 -99.1543 195.008 -103.515 203.955 -106 c 1
 442 -106 l 1
 447.843 -106.956 466.568 -109.935 471.533 -112.416 c 0
 485.335 -119.317 498.241 -128.649 498.241 -156 c 0
 498.241 -183.95 485.45 -192.625 471.533 -199.584 c 0
 466.201 -202.249 457.112 -207 442.23 -207 c 2
 206 -207 l 2
 195.657 -207 182.739 -205.063 168.752 -201.478 c 0
 146.141 -195.681 119.297 -185.521 97.6992 -163.487 c 0
 69.0811 -134.292 60 -97.6777 60 -58 c 0
 60 -18.9805 67.9473 21.2061 97.0059 52.8105 c 0
 114.64 71.9883 137.908 85.1855 167.537 92.4229 c 0
 184.788 96.6374 196.238 97.0066 203.968 97.0066 c 0
 204.676 97.0066 205.353 97.0035 206 97 c 2
 352.466 97.2041 l 1
 376.52 101.214 423 113.963 423 177 c 0
 423 244.544 362.725 249.229 349.562 252 c 1
 118.241 252 l 1
 112.398 252.956 93.6729 255.935 88.708 258.416 c 0
 74.9062 265.317 62 276.649 62 304 c 0
 62 331.95 74.791 343.625 88.708 350.584 c 0
 94.04 353.249 103.267 355.972 118.695 358 c 1
 384.254 357.037 l 2
 384.27 357.037 472.334 333.684 506.839 268.81 c 0
 527.703 229.561 526.688 184.493 527.007 176.688 c 0
 527.007 157.166 525.817 141.789 522.518 128.906 c 2
 515.114 100 l 1
 616 100 l 1
 616 0 l 1
 206 0 l 2
EndSplineSet
EndChar

StartChar: dal.isol
Encoding: 65550 -1 85
Width: 470
VWidth: 921
GlyphClass: 2
Flags: W
HStem: 0 100<68.3122 112.615 112.615 314> 288 102.054<189.26 292.187>
VStem: 314 97.016<100 266.641>
AnchorPoint: "dotBleow" 248 -140 basechar 0
AnchorPoint: "ring" 253 0 basechar 0
AnchorPoint: "harakaBelow" 249 -141 basechar 0
AnchorPoint: "harakaAbove" 235 680 basechar 0
AnchorPoint: "dotAbove" 235 680 basechar 0
LayerCount: 2
Fore
SplineSet
188.646 270.725 m 0
 163.798 250.742 147.797 208.634 124 188.003 c 0
 115.589 180.711 106.203 176.102 95.1083 176.102 c 0
 86.2058 176.102 76.2028 179.07 64.7196 186 c 0
 48.9392 195.523 42.1343 209.322 42.1343 225.477 c 0
 42.1343 230.755 42.8609 236.285 44.2383 242 c 0
 50.7178 268.881 71.5996 299.844 99 327.911 c 0
 136.388 366.208 188.796 388.861 240 390.008 c 0
 241.36 390.038 242.72 390.054 244.078 390.054 c 0
 299.259 390.054 352.538 364.825 383.52 307 c 0
 400.697 274.941 411.02 232.864 411.016 179.512 c 2
 411 0 l 1
 111.026 0 l 2
 98.2109 1.81738 89.0684 5.08398 84.9453 7.29199 c 0
 69.7217 15.4473 61 27.6602 61 53 c 0
 61 75.96 70.4678 87.4639 84.708 94.584 c 0
 89.5703 97.0146 106.272 99.165 112.935 100 c 2
 314 100 l 1
 313.989 189.395 l 2
 313.141 205.502 314.284 240.354 294.767 264 c 0
 283.252 277.95 264.547 288 234 288 c 0
 217.046 288 201.712 281.232 188.646 270.725 c 0
EndSplineSet
Validated: 33
EndChar

StartChar: dal.fina
Encoding: 65551 -1 86
Width: 473
VWidth: 921
GlyphClass: 2
Flags: W
HStem: 0 100<68.3122 112.615 112.615 314 411 473> 288 102.054<189.26 292.187>
VStem: 314 97<100 266.641>
AnchorPoint: "harakaBelow" 253 -141 basechar 0
AnchorPoint: "dotBleow" 252 -140 basechar 0
AnchorPoint: "ring" 253 0 basechar 0
AnchorPoint: "harakaAbove" 240 680 basechar 0
AnchorPoint: "dotAbove" 240 680 basechar 0
LayerCount: 2
Fore
SplineSet
111.007 0 m 2
 98.082 0 89.0684 5.08398 84.9453 7.29199 c 0
 69.7217 15.4473 61 27.6602 61 53 c 0
 61 75.96 70.4678 87.4639 84.708 94.584 c 0
 89.5703 97.0146 106.272 99.165 112.935 100 c 2
 314 100 l 1
 313.989 189.395 l 2
 313.141 205.502 314.284 240.354 294.767 264 c 0
 283.252 277.95 264.547 288 234 288 c 0
 217.046 288 201.712 281.232 188.646 270.725 c 0
 163.798 250.742 147.797 208.634 124 188.003 c 0
 115.589 180.711 106.203 176.102 95.1083 176.102 c 0
 86.2058 176.102 76.2028 179.07 64.7196 186 c 0
 48.9392 195.523 42.1343 209.322 42.1343 225.477 c 0
 42.1343 230.755 42.8609 236.285 44.2383 242 c 0
 50.7178 268.881 71.5996 299.844 99 327.911 c 0
 136.388 366.208 188.796 388.861 240 390.008 c 0
 241.36 390.038 242.72 390.054 244.078 390.054 c 0
 299.259 390.054 352.538 364.825 383.52 307 c 0
 400.697 274.941 411.026 232.863 411.016 179.512 c 2
 411 100 l 1
 473 100 l 1
 473 0 l 1
 111.007 0 l 2
EndSplineSet
Validated: 33
EndChar

StartChar: reh.isol
Encoding: 65552 -1 87
Width: 296
VWidth: 921
GlyphClass: 2
Flags: W
VStem: 131.963 105.037<-83.5044 350.749>
AnchorPoint: "secondDot" 49 0 basechar 0
AnchorPoint: "dotBleow" 138 -298 basechar 0
AnchorPoint: "ring" 221 -152 basechar 0
AnchorPoint: "harakaBelow" 138 -300 basechar 0
AnchorPoint: "harakaAbove" 185 680 basechar 0
AnchorPoint: "dotAbove" 185 680 basechar 0
LayerCount: 2
Fore
SplineSet
184.509 359.002 m 6
 227.779 359.002 232.235 327.157 237 298.754 c 5
 237 -65 l 6
 237 -169.589 191.163 -177.829 184 -184 c 5
 184 -184 167 -189 159 -189 c 4
 156.624 -189.272 150.541 -189.338 144.559 -189.338 c 4
 138.905 -189.338 133.34 -189.279 131.081 -189.279 c 4
 129.374 -189.296 127.666 -189.31 125.959 -189.31 c 4
 78.7083 -189.31 60.0327 -169.562 60 -139.831 c 4
 60 -66.2187 132.245 -107.008 132.245 -61.0815 c 4
 132.245 -57.6419 131.972 -54.1891 131.963 -50.7461 c 6
 131 299.062 l 5
 130.999 299.503 l 6
 130.999 324.136 141.308 358.737 184 359 c 6
 184.509 359.002 l 6
EndSplineSet
EndChar

StartChar: reh.fina
Encoding: 65553 -1 88
Width: 321
VWidth: 921
GlyphClass: 2
Flags: W
HStem: 0 100<237 321>
VStem: 131.963 189.037<0 100> 131.963 105.037<-83.5044 0 100 350.749>
AnchorPoint: "secondDot" 49 0 basechar 0
AnchorPoint: "dotBleow" 138 -298 basechar 0
AnchorPoint: "ring" 221 -152 basechar 0
AnchorPoint: "harakaBelow" 138 -300 basechar 0
AnchorPoint: "harakaAbove" 185 680 basechar 0
AnchorPoint: "dotAbove" 185 680 basechar 0
LayerCount: 2
Fore
SplineSet
125.959 -189.31 m 0xa0
 78.7083 -189.31 60.0327 -169.562 60 -139.831 c 0
 60 -66.2187 132.245 -107.008 132.245 -61.0815 c 0
 132.245 -57.6419 131.972 -54.1891 131.963 -50.7461 c 2
 131 299.062 l 1
 130.999 299.503 l 2
 130.999 324.136 141.308 358.737 184 359 c 2
 184.509 359.002 l 2
 227.779 359.002 232.235 327.157 237 298.754 c 1
 237 100 l 1xa0
 321 100 l 1
 321 0 l 1xc0
 237 0 l 1
 237 -65 l 2
 237 -169.589 191.163 -177.829 184 -184 c 1
 184 -184 167 -189 159 -189 c 0
 156.624 -189.272 150.541 -189.338 144.559 -189.338 c 0
 138.905 -189.338 133.34 -189.279 131.081 -189.279 c 0
 129.374 -189.296 127.666 -189.31 125.959 -189.31 c 0xa0
EndSplineSet
Validated: 1
EndChar

StartChar: alif.isol.long
Encoding: 65537 -1 89
Width: 226
VWidth: 921
GlyphClass: 2
Flags: W
VStem: 60 106.015<-138.025 663.049>
LayerCount: 2
Fore
SplineSet
166.015 -101.532 m 2
 165.173 -114.999 163.24 -124.84 159.219 -134.09 c 0
 153.157 -148.03 141.219 -161 114 -161 c 0
 90.0918 -161 75.1953 -152.812 66.8115 -138.226 c 0
 64.4395 -134.097 61.1787 -119.042 60 -112.625 c 1
 60 633.989 l 2
 62.0283 648.733 64.751 657.96 67.416 663.292 c 0
 74.375 677.209 86.0498 690 114 690 c 0
 141.351 690 152.683 677.094 159.584 663.292 c 0
 162.065 658.327 165.044 639.602 166 633.759 c 1
 166.015 -101.532 l 2
EndSplineSet
Validated: 1
EndChar

StartChar: lam.medi.lamAlif
Encoding: 65599 -1 90
Width: 250
VWidth: 921
GlyphClass: 2
Flags: W
HStem: -205 97<-53.965 55.124> 0 100<178 250>
VStem: -173.019 105.019<-83.1172 -25.4619 -25.4619 -10.2614> 72 178<0 100> 72.4785 105.521<-90.268 0 100 651.819>
AnchorPoint: "harakaBelow" 170 -205 basechar 0
AnchorPoint: "harakaAbove" 122 780 basechar 0
LayerCount: 2
Fore
SplineSet
250 0 m 1xf0
 178 0 l 1
 178 -51.584 l 1
 169.865 -94.4229 165.019 -132.121 125.247 -165.615 c 0
 86.9248 -197.887 39.0576 -205 -3 -205 c 0
 -56.7949 -205 -95.792 -192.361 -124.648 -169.272 c 0
 -170.983 -132.2 -173.019 -83.6543 -173.019 -44.0176 c 0
 -173.019 -40.2002 -173 -36.4648 -173 -32.8311 c 2
 -172.182 -25.4619 l 1
 -170.527 -18.0186 l 2
 -167.207 -8.16406 -159.62 11 -120 11 c 0
 -95.7148 11 -81.1328 4.47363 -73.2803 -9.96875 c 0
 -69.9492 -16.0938 -66.9238 -29.8496 -68 -34.1533 c 1
 -68 -43 l 2
 -68 -57.4688 -64.4893 -72.125 -56.2402 -83.6602 c 0
 -44.3438 -100.297 -23.752 -108 -1 -108 c 0
 58.71 -108 72.4785 -67.2158 72.4785 -29.1836 c 0xe8
 72.4785 -24.8945 72.3037 -20.6416 72 -16.4854 c 1xf0
 71.9805 626.466 l 2
 72.9014 639.355 76.1562 647.62 78.3398 652.176 c 0
 86.1299 668.433 100.698 677 123 677 c 0
 144.966 677 160.312 669.602 169.708 652.055 c 0
 172.335 647.146 175.838 634.099 178 625.229 c 1
 178 100 l 1xe8
 250 100 l 1
 250 0 l 1xf0
EndSplineSet
EndChar

StartChar: seen.isol
Encoding: 65554 -1 91
Width: 999
VWidth: 921
GlyphClass: 2
Flags: W
HStem: -206 101<190.984 320.001> 0 99<458.968 595 694 837>
VStem: 60 97.996<-9.65625 194.119 194.119 215.545> 353 100<99 339.687> 595 99<99 339.807> 837 102<99 341.19>
AnchorPoint: "dotBleow" 654 -105 basechar 0
AnchorPoint: "harakaBelow" 261 -300 basechar 0
AnchorPoint: "harakaAbove" 645 680 basechar 0
AnchorPoint: "dotAbove" 645 680 basechar 0
LayerCount: 2
Fore
SplineSet
939 95 m 2
 939 84.2168 939.014 77.9092 938.248 73.7041 c 0
 937.568 69.9775 935.359 61.1543 932 52.333 c 0
 928.849 44.0576 920.27 32.9371 912.714 25.9092 c 0
 893.008 7.58203 852.284 1.04986 844.934 0 c 1
 458.968 0 l 1
 444.546 -65.0547 l 2
 432.191 -103.07 413.887 -133.292 389.469 -157.319 c 0
 356.656 -189.605 312.838 -206 260 -206 c 0
 180.385 -206 141.188 -171.708 127.457 -158.248 c 0
 102.995 -134.27 84.7979 -103.943 72.4336 -64.9463 c 2
 60 -14.1875 l 1
 60 193.727 l 1
 61.4688 202.088 63.6846 210.264 65.3828 214.989 c 1
 74.7139 228.103 88.2871 234 110 234 c 0
 131.139 234 145.104 229.062 152.893 215.735 c 0
 155.239 211.719 157.164 205.168 158.994 193.861 c 1
 157.996 -8.79395 l 1
 158.092 -9.65625 l 2
 161.825 -43.241 167.859 -50.4611 171.137 -56.8359 c 0
 182.3 -78.5488 204.892 -105 254 -105 c 0
 306.807 -105 329.352 -76.8673 341.449 -55.6973 c 0
 345.309 -46.6949 348.19 -34.5344 352.709 -11.9414 c 2
 353 -10.4854 l 1
 353 316.846 l 1
 354.4 325.821 356.692 335.519 358.812 339.226 c 0
 367.387 354.208 381.525 362 403 362 c 0
 424.295 362 437.37 355.919 446.86 339.787 c 0
 448.075 337.723 450.709 331.081 453 316.828 c 1
 453 99 l 1
 595 99 l 1
 595 316.846 l 1
 596.4 325.821 598.112 335.127 600.48 338.68 c 0
 602.903 342.306 609.184 362 644 362 c 0
 668.283 362 680.03 354.342 687.721 340.031 c 0
 690.265 335.297 693.213 327.95 694.021 317.425 c 2
 694 99 l 1
 837 99 l 1
 837 316.927 l 1
 838.036 324.075 838.958 329.043 839.674 331.948 c 0
 841.699 340.156 851.865 362 886 362 c 0
 912.83 362 925.061 350.54 931.9 341.489 c 1
 934.637 335.116 937.372 328.535 939 317.898 c 1
 939 95 l 2
EndSplineSet
Validated: 33
EndChar

StartChar: seen.init
Encoding: 65555 -1 92
Width: 766
VWidth: 921
GlyphClass: 2
Flags: W
HStem: 0 99<0 126 226 368 467 610>
VStem: 126 100<99.5146 339.687> 368 99<99 339.807> 610 102<99 341.19>
AnchorPoint: "dotBleow" 420 -101 basechar 0
AnchorPoint: "harakaBelow" 405 -203 basechar 0
AnchorPoint: "harakaAbove" 415 680 basechar 0
AnchorPoint: "dotAbove" 415 680 basechar 0
LayerCount: 2
Fore
SplineSet
126 99.5146 m 5
 126 316.846 l 5
 127.4 325.821 129.692 335.519 131.812 339.226 c 4
 140.387 354.208 154.525 362 176 362 c 4
 197.295 362 210.37 355.919 219.86 339.787 c 4
 221.075 337.723 223.709 331.081 226 316.828 c 5
 226 99 l 5
 368 99 l 5
 368 316.846 l 5
 369.4 325.821 371.112 335.127 373.48 338.68 c 4
 375.902 342.306 382.185 362 417 362 c 4
 441.283 362 453.03 354.342 460.721 340.031 c 4
 463.265 335.297 466.213 327.95 467.021 317.425 c 6
 467 99 l 5
 610 99 l 5
 610 316.927 l 5
 611.036 324.075 611.958 329.043 612.674 331.948 c 4
 614.698 340.156 624.864 362 659 362 c 4
 685.83 362 698.061 350.54 704.9 341.489 c 5
 707.637 335.116 710.372 328.535 712 317.898 c 5
 712 95 l 6
 712 84.2168 712.014 77.9092 711.248 73.7041 c 4
 710.568 69.9775 708.359 61.1543 705 52.333 c 4
 701.849 44.0576 693.271 32.9375 685.714 25.9092 c 4
 666.008 7.58203 625.284 1.0498 617.934 0 c 5
 125.968 0 l 5
 0 0 l 5
 0 100 l 5
 126 99.5146 l 5
EndSplineSet
Validated: 33
EndChar

StartChar: seen.medi
Encoding: 65556 -1 93
Width: 805
VWidth: 921
GlyphClass: 2
Flags: W
HStem: 0 361<128.538 217.559 370.459 459.558 612.563 700.789> 0 100<0 122 223 366 465 607 707 805>
VStem: 122 101<100 354.689> 366 99<98 355.705> 607 100<100 339.048>
AnchorPoint: "dotBleow" 420 -101 basechar 0
AnchorPoint: "harakaBelow" 420 -204 basechar 0
AnchorPoint: "harakaAbove" 415 680 basechar 0
AnchorPoint: "dotAbove" 415 680 basechar 0
LayerCount: 2
Fore
SplineSet
0 0 m 1x78
 0 100 l 1
 122 100 l 1x78
 121.974 317.377 l 2
 122.754 326.735 126.362 334.375 129.22 339.925 c 0
 139.662 360.202 164.283 361 173 361 c 0
 185.609 361 206.98 359.545 217.001 339.456 c 0
 219.46 335.775 220.848 330.638 223 316.846 c 1
 223 98 l 1
 366 98 l 1
 366 316.605 l 1
 367.322 323.656 366 331.25 371.14 339.787 c 0
 379.667 353.95 392.65 361 415 361 c 0
 427.611 361 448.971 359.541 459.001 339.457 c 0
 461.458 335.774 462.848 330.638 465 316.846 c 1
 465 98 l 1
 607 98 l 1
 607 316.748 l 1
 608.962 328.306 610.838 335.616 613.083 339.664 c 0
 621.281 354.447 634.989 361 657 361 c 0xb8
 679.025 361 692.768 353.934 701.188 339.226 c 0
 703.31 335.521 705.6 325.821 707 316.846 c 1
 707 100 l 1
 805 100 l 1
 805 0 l 1
 0 0 l 1x78
EndSplineSet
Validated: 1
EndChar

StartChar: seen.fina
Encoding: 65557 -1 94
Width: 1034
VWidth: 921
GlyphClass: 2
Flags: W
HStem: -206 101<190.984 320.001> 0 99<458.968 595 694 837 939 1034>
VStem: 60 97.996<-9.65625 194.119 194.119 215.545> 353 100<99 339.687> 595 99<99 339.807> 837 102<100 341.19>
AnchorPoint: "dotBleow" 654 -105 basechar 0
AnchorPoint: "harakaBelow" 261 -300 basechar 0
AnchorPoint: "harakaAbove" 650 680 basechar 0
AnchorPoint: "dotAbove" 650 680 basechar 0
LayerCount: 2
Fore
SplineSet
939 100 m 1
 1034 100 l 1
 1034 0 l 1
 845.232 0 l 1
 458.968 0 l 1
 444.546 -65.0547 l 2
 432.191 -103.07 413.887 -133.292 389.469 -157.319 c 0
 356.656 -189.605 312.838 -206 260 -206 c 0
 180.385 -206 141.188 -171.708 127.457 -158.248 c 0
 102.995 -134.27 84.7979 -103.943 72.4336 -64.9463 c 2
 60 -14.1875 l 1
 60 193.727 l 1
 61.4688 202.088 63.6846 210.264 65.3828 214.989 c 1
 74.7139 228.103 88.2871 234 110 234 c 0
 131.139 234 145.104 229.062 152.893 215.735 c 0
 155.239 211.719 157.164 205.168 158.994 193.861 c 1
 157.996 -8.79395 l 1
 158.092 -9.65625 l 2
 161.825 -43.241 167.859 -50.4611 171.137 -56.8359 c 0
 182.3 -78.5488 204.892 -105 254 -105 c 0
 306.807 -105 329.352 -76.8673 341.449 -55.6973 c 0
 345.309 -46.6949 348.19 -34.5344 352.709 -11.9414 c 2
 353 -10.4854 l 1
 353 316.846 l 1
 354.4 325.821 356.692 335.519 358.812 339.226 c 0
 367.387 354.208 381.525 362 403 362 c 0
 424.295 362 437.37 355.919 446.86 339.787 c 0
 448.075 337.723 450.709 331.081 453 316.828 c 1
 453 99 l 1
 595 99 l 1
 595 316.846 l 1
 596.4 325.821 598.112 335.127 600.48 338.68 c 0
 602.903 342.306 609.184 362 644 362 c 0
 668.283 362 680.03 354.342 687.721 340.031 c 0
 690.265 335.297 693.213 327.95 694.021 317.425 c 2
 694 99 l 1
 837 99 l 1
 837 316.927 l 1
 838.036 324.075 838.958 329.043 839.674 331.948 c 0
 841.699 340.156 851.865 362 886 362 c 0
 912.83 362 925.061 350.54 931.9 341.489 c 1
 934.637 335.116 937.372 328.535 939 317.898 c 1
 939 100 l 1
EndSplineSet
Validated: 1
EndChar

StartChar: sad.isol
Encoding: 65558 -1 95
Width: 1055
VWidth: 921
GlyphClass: 2
Flags: W
HStem: -199 98<184.246 317.294> 0 100<451.17 801.86> 253 99<448.758 803.86>
VStem: 60 98<-15.7529 217.259> 347 100<-33.2683 0 100 253 352 365.14> 886 106.226<122.308 228.183>
AnchorPoint: "dotBleow" 654 -105 basechar 0
AnchorPoint: "harakaBelow" 261 -300 basechar 0
AnchorPoint: "harakaAbove" 645 680 basechar 0
AnchorPoint: "dotAbove" 645 680 basechar 0
LayerCount: 2
Fore
SplineSet
840.518 108.055 m 0
 871.645 120.704 886 144.179 886 175 c 0
 886 196.958 878.512 225.999 842.575 242.506 c 0
 828.276 249.074 807.892 252.378 803.86 252.884 c 2
 802.934 253 l 1
 447 253 l 1
 447 100 l 1
 800.934 100 l 1
 801.86 100.116 l 2
 818.246 102.171 830.439 103.959 840.518 108.055 c 0
839 0 m 2
 451.17 0 l 1
 441.325 -62.9746 l 2
 431.905 -99.7139 416.013 -128.407 390.723 -152.075 c 0
 351.137 -189.122 299.562 -199 250 -199 c 0
 192.733 -199 149.099 -183.33 116.348 -152.142 c 0
 88.1367 -125.275 74.6914 -91.5938 66.7295 -62.9854 c 2
 60 -12.9951 l 1
 59.9775 195.425 l 2
 60.1631 197.835 61.0479 209.833 65.3447 218.152 c 0
 72.5967 232.194 85.374 239 107 239 c 0
 129.861 239 144.211 232.613 152.95 217.641 c 0
 157.671 209.554 157.837 197.835 158.022 195.425 c 2
 158 -14.8789 l 1
 158.103 -15.7529 l 2
 158.612 -20.0801 160.942 -42.7959 168.643 -57.8232 c 0
 179.087 -78.2041 200.421 -101 248 -101 c 0
 300.22 -101 323.563 -76.0508 335.033 -58.4756 c 0
 338.83 -50.8643 344.227 -38.0537 346.884 -16.8604 c 2
 347 -15.9336 l 1
 347 367 l 2
 347 372.163 346.908 374.83 347.392 376.81 c 0
 354.551 406.158 368.035 424 399 424 c 0
 413.315 424 429.602 420.137 440.223 397.006 c 0
 445.68 385.12 446.709 368.392 447.116 365.14 c 2
 448.758 352 l 1
 837.121 352 l 2
 863.799 348.903 886.793 341.551 906.288 331 c 0
 933.501 316.272 953.895 295.313 967.969 271 c 0
 986.763 238.534 992.068 204.947 992.226 176.678 c 0
 992.226 146.622 985.724 116.572 973.325 90 c 0
 961.131 63.8662 943.23 41.0977 920.202 25 c 0
 897.809 9.34668 870.565 0 839 0 c 2
EndSplineSet
Validated: 1
EndChar

StartChar: sad.init
Encoding: 65559 -1 96
Width: 775
VWidth: 921
GlyphClass: 2
Flags: W
HStem: 0 100<0.169922 77 184 538.86> 253 99<184 540.86>
VStem: 77 107<100.066 253 352 365.14> 623 99.226<122.308 228.478>
AnchorPoint: "dotBleow" 356 -101 basechar 0
AnchorPoint: "harakaBelow" 357 -204 basechar 0
AnchorPoint: "harakaAbove" 400 680 basechar 0
AnchorPoint: "dotAbove" 400 680 basechar 0
LayerCount: 2
Fore
SplineSet
577.518 108.055 m 0
 608.645 120.704 623 144.179 623 175 c 0
 623 196.958 615.512 225.999 579.575 242.506 c 0
 565.276 249.074 544.892 252.378 540.86 252.884 c 2
 539.934 253 l 1
 184 253 l 1
 184 100 l 1
 537.934 100 l 1
 538.86 100.116 l 2
 555.246 102.171 567.439 103.959 577.518 108.055 c 0
0.169922 0 m 1
 0 100 l 1
 77 100.066 l 1
 77 367 l 2
 77 372.163 76.9082 374.83 77.3916 376.81 c 0
 84.5508 406.158 98.0352 424 129 424 c 0
 143.315 424 159.602 420.137 170.223 397.006 c 0
 175.68 385.12 176.709 368.392 177.116 365.14 c 2
 178.758 352 l 1
 567.121 352 l 2
 593.799 348.903 616.793 341.551 636.288 331 c 0
 663.501 316.272 683.895 295.313 697.969 271 c 0
 712.038 246.697 722.226 214.407 722.226 176.678 c 0
 722.226 146.622 715.724 116.572 703.325 90 c 0
 691.131 63.8662 673.23 41.0977 650.202 25 c 0
 627.809 9.34668 600.565 0 569 0 c 2
 0.169922 0 l 1
EndSplineSet
Validated: 1
EndChar

StartChar: sad.medi
Encoding: 65560 -1 97
Width: 800
VWidth: 921
GlyphClass: 2
Flags: W
HStem: 0 100<0 76 183 537.86 705.84 800> 254 99<183 539.86>
VStem: 76 107<101 254 353 366.14> 622 99.226<123.266 229.485>
AnchorPoint: "dotBleow" 356 -101 basechar 0
AnchorPoint: "harakaBelow" 357 -204 basechar 0
AnchorPoint: "harakaAbove" 400 680 basechar 0
AnchorPoint: "dotAbove" 400 680 basechar 0
LayerCount: 2
Fore
SplineSet
576.518 109.055 m 0
 607.645 121.704 622 145.179 622 176 c 0
 622 197.958 614.512 226.999 578.575 243.506 c 0
 564.276 250.074 543.892 253.378 539.86 253.884 c 2
 538.934 254 l 1
 183 254 l 1
 183 101 l 1
 536.934 101 l 1
 537.86 101.116 l 2
 554.246 103.171 566.439 104.959 576.518 109.055 c 0
705.84 100 m 1
 800 100 l 1
 800 0 l 1
 0 0 l 1
 0 100 l 1
 76 100.066 l 1
 76 368 l 2
 76 373.163 75.9082 375.83 76.3916 377.81 c 0
 83.5508 407.158 97.0352 425 128 425 c 0
 142.315 425 158.602 421.137 169.223 398.006 c 0
 174.68 386.12 175.709 369.392 176.116 366.14 c 2
 177.758 353 l 1
 566.121 353 l 2
 592.799 349.903 615.793 342.551 635.288 332 c 0
 662.501 317.272 682.895 296.313 696.969 272 c 0
 711.034 247.704 721.226 215.427 721.226 177.711 c 0
 721.226 150.74 715.901 124.484 705.84 100 c 1
EndSplineSet
Validated: 1
EndChar

StartChar: sad.fina
Encoding: 65561 -1 98
Width: 1043
VWidth: 921
GlyphClass: 2
Flags: W
HStem: -199 98<184.246 317.294> 0 100<451.17 801.86 977.487 1043> 253 99<448.758 803.86>
VStem: 60 98<-15.7529 217.259> 347 100<-33.2683 0 100 253 352 365.14> 886 106.226<122.223 228.169>
AnchorPoint: "dotBleow" 654 -105 basechar 0
AnchorPoint: "harakaBelow" 261 -300 basechar 0
AnchorPoint: "harakaAbove" 645 680 basechar 0
AnchorPoint: "dotAbove" 645 680 basechar 0
LayerCount: 2
Fore
SplineSet
840.518 108.055 m 0
 871.645 120.704 886 144.179 886 175 c 0
 886 196.958 878.512 225.999 842.575 242.506 c 0
 828.276 249.074 807.892 252.378 803.86 252.884 c 2
 802.934 253 l 1
 447 253 l 1
 447 100 l 1
 800.934 100 l 1
 801.86 100.116 l 2
 818.246 102.171 830.439 103.959 840.518 108.055 c 0
977.487 99 m 1
 1043 99 l 1
 1043 0 l 25
 451.17 0 l 1
 441.325 -62.9746 l 2
 431.905 -99.7139 416.013 -128.407 390.723 -152.075 c 0
 351.137 -189.122 299.562 -199 250 -199 c 0
 192.733 -199 149.099 -183.33 116.348 -152.142 c 0
 88.1367 -125.275 74.6914 -91.5938 66.7295 -62.9854 c 2
 60 -12.9951 l 1
 59.9775 195.425 l 2
 60.1631 197.835 61.0479 209.833 65.3447 218.152 c 0
 72.5967 232.194 85.374 239 107 239 c 0
 129.861 239 144.211 232.613 152.95 217.641 c 0
 157.671 209.554 157.837 197.835 158.022 195.425 c 2
 158 -14.8789 l 1
 158.103 -15.7529 l 2
 158.612 -20.0801 160.942 -42.7959 168.643 -57.8232 c 0
 179.087 -78.2041 200.421 -101 248 -101 c 0
 300.22 -101 323.563 -76.0508 335.033 -58.4756 c 0
 338.83 -50.8643 344.227 -38.0537 346.884 -16.8604 c 2
 347 -15.9336 l 1
 347 367 l 2
 347 372.163 346.908 374.83 347.392 376.81 c 0
 354.551 406.158 368.035 424 399 424 c 0
 413.315 424 429.602 420.137 440.223 397.006 c 0
 445.68 385.12 446.709 368.392 447.116 365.14 c 2
 448.758 352 l 1
 837.121 352 l 2
 863.799 348.903 886.793 341.551 906.288 331 c 0
 933.501 316.272 953.895 295.313 967.969 271 c 0
 986.774 238.515 992.069 204.902 992.226 176.614 c 0
 992.226 150.003 987.259 123.178 977.487 99 c 1
EndSplineSet
Validated: 1
EndChar

StartChar: tah.isol
Encoding: 65562 -1 99
Width: 837
VWidth: 921
GlyphClass: 2
Flags: HW
HStem: 0.494141 99.9999<72.8309 141 240.425 595.285> 253.494 99<241.183 597.285>
VStem: 141 100.183<101.425 253.494 352.494 659.259> 679.425 106.226<122.803 228.973>
AnchorPoint: "harakaBelow" 357 -204 basechar 0
AnchorPoint: "harakaAbove" 520 680 basechar 0
AnchorPoint: "dotAbove" 520 680 basechar 0
LayerCount: 2
Fore
SplineSet
94.5752 101.183 m 6
 141 101.425 l 1
 140.978 637.425 l 2
 140.982 639.842 143.048 651.833 147.345 660.152 c 0
 154.597 674.194 167.374 681 189 681 c 0
 211.861 681 226.211 674.613 234.95 659.641 c 0
 239.671 651.554 241.013 639.842 241.022 637.425 c 2
 241.183 352.494 l 17
 630.546 352.494 l 2
 657.402 352.494 680.218 342.045 699.713 331.494 c 0
 726.926 316.767 747.319 295.807 761.394 271.494 c 0
 775.462 247.192 785.651 214.904 785.651 177.178 c 0
 785.651 147.12 779.149 117.067 766.75 90.4941 c 0
 754.556 64.3604 736.655 41.5918 713.627 25.4941 c 0
 691.233 9.84082 663.99 0.494141 632.425 0.494141 c 2
 244.595 0.494141 l 1
 94.4033 0.757812 l 6
 91.9863 0.745117 79.9785 1.57227 71.584 5.7207 c 4
 57.0726 12.8919 49.9854 27.2006 49.9854 49.6366 c 4
 49.9854 71.616 57.9939 86.9304 72.4531 95.7168 c 4
 80.4551 100.581 92.1582 101.17 94.5752 101.183 c 6
633.942 108.549 m 0
 665.069 121.198 679.425 144.673 679.425 175.494 c 0
 679.425 197.452 671.937 226.493 636 243 c 0
 621.701 249.568 601.316 252.872 597.285 253.378 c 2
 596.358 253.494 l 1
 240.425 253.494 l 1
 240.425 100.494 l 1
 594.358 100.494 l 1
 595.285 100.61 l 2
 611.671 102.665 623.864 104.453 633.942 108.549 c 0
EndSplineSet
EndChar

StartChar: tah.init
Encoding: 65563 -1 100
Width: 797
VWidth: 921
GlyphClass: 2
Flags: W
HStem: 0 100<0.412109 102.817 202.242 557.103> 253 99<202.242 559.103>
VStem: 102.817 99.183<100.931 253 352 658.764> 641.242 106.226<122.308 228.478>
AnchorPoint: "harakaBelow" 357 -204 basechar 0
AnchorPoint: "harakaAbove" 500 680 basechar 0
AnchorPoint: "dotAbove" 500 680 basechar 0
LayerCount: 2
Fore
SplineSet
0.412109 0 m 1
 0 101 l 1
 102.817 100.931 l 1
 102.795 636.931 l 2
 102.795 639.348 104.865 651.339 109.162 659.658 c 0
 116.414 673.7 129.191 680.506 150.817 680.506 c 0
 173.679 680.506 188.028 674.119 196.768 659.146 c 0
 201.488 651.06 202.847 639.348 202.84 636.931 c 2
 202 352 l 17
 592.363 352 l 2
 619.22 352 642.035 341.551 661.53 331 c 0
 688.743 316.272 709.137 295.312 723.211 271 c 0
 737.28 246.697 747.468 214.407 747.468 176.678 c 0
 747.468 146.622 740.966 116.572 728.567 90 c 0
 716.373 63.8662 698.473 41.0977 675.444 25 c 0
 653.051 9.34668 625.808 0 594.242 0 c 2
 0.412109 0 l 1
595.76 108.055 m 0
 626.887 120.704 641.242 144.179 641.242 175 c 0
 641.242 196.958 633.754 225.999 597.817 242.506 c 0
 583.519 249.074 563.134 252.378 559.103 252.884 c 2
 558.176 253 l 1
 202.242 253 l 1
 202.242 100 l 1
 556.176 100 l 1
 557.103 100.116 l 2
 573.488 102.171 585.682 103.959 595.76 108.055 c 0
EndSplineSet
Validated: 33
EndChar

StartChar: tah.medi
Encoding: 65564 -1 101
Width: 821
VWidth: 921
GlyphClass: 2
Flags: W
HStem: 0 100<0.412109 102.817 202.242 557.103 732.703 821> 253 99<202.242 559.103>
VStem: 102.817 99.183<100.931 253 352 658.764> 641.242 106.226<122.33 228.479>
AnchorPoint: "harakaBelow" 357 -204 basechar 0
AnchorPoint: "harakaAbove" 480 680 basechar 0
AnchorPoint: "dotAbove" 480 680 basechar 0
LayerCount: 2
Fore
SplineSet
732.703 101 m 1
 821 101 l 1
 821 0 l 25
 0.412109 0 l 1
 0 101 l 1
 102.817 100.931 l 1
 102.795 636.931 l 2
 102.795 639.348 104.865 651.339 109.162 659.658 c 0
 116.414 673.7 129.191 680.506 150.817 680.506 c 0
 173.679 680.506 188.028 674.119 196.768 659.146 c 0
 201.488 651.06 202.847 639.348 202.84 636.931 c 2
 202 352 l 17
 592.363 352 l 2
 619.22 352 642.035 341.551 661.53 331 c 0
 688.743 316.272 709.137 295.312 723.211 271 c 0
 737.279 246.699 747.468 214.411 747.468 176.684 c 0
 747.468 150.607 742.561 124.54 732.703 101 c 1
595.76 108.055 m 0
 626.887 120.704 641.242 144.179 641.242 175 c 0
 641.242 196.958 633.754 225.999 597.817 242.506 c 0
 583.519 249.074 563.134 252.378 559.103 252.884 c 2
 558.176 253 l 1
 202.242 253 l 1
 202.242 100 l 1
 556.176 100 l 1
 557.103 100.116 l 2
 573.488 102.171 585.682 103.959 595.76 108.055 c 0
EndSplineSet
Validated: 33
EndChar

StartChar: tah.fina
Encoding: 65565 -1 102
Width: 865
VWidth: 921
GlyphClass: 2
Flags: W
HStem: 0 100<72.752 134.575 234 588.857 764.458 865> 253 99<234.758 590.857>
VStem: 134.575 100.183<100.931 253 352 658.764> 672.998 106.223<121.929 228.477>
AnchorPoint: "harakaBelow" 434 -204 basechar 0
AnchorPoint: "harakaAbove" 510 680 basechar 0
AnchorPoint: "dotAbove" 510 680 basechar 0
LayerCount: 2
Fore
SplineSet
627.518 108.055 m 0
 658.648 120.704 672.998 144.179 672.998 175 c 0
 672.998 196.958 665.508 225.999 629.578 242.506 c 0
 615.278 249.074 594.888 252.378 590.857 252.884 c 2
 589.938 253 l 1
 234 253 l 1
 234 100 l 1
 587.938 100 l 1
 588.857 100.116 l 2
 605.248 102.171 617.438 103.959 627.518 108.055 c 0
865 0 m 25
 94.1699 0 l 2
 91.8945 0 79.9004 1.07227 71.5059 5.2207 c 0
 56.9945 12.3919 49.9073 26.7007 49.9073 49.1368 c 0
 49.9073 71.116 57.9149 86.4304 72.375 95.2168 c 0
 80.377 100.081 91.0801 100.67 93.7578 101 c 2
 134.575 100.931 l 1
 134.553 636.931 l 2
 134.553 639.348 136.623 651.339 140.92 659.658 c 0
 148.172 673.7 160.949 680.506 182.575 680.506 c 0
 205.436 680.506 219.786 674.119 228.525 659.146 c 0
 233.246 651.06 234.588 639.348 234.598 636.931 c 2
 234.758 352 l 17
 624.118 352 l 2
 650.979 352 673.788 341.551 693.288 331 c 0
 720.498 316.271 740.898 295.312 754.968 271 c 0
 769.036 246.697 779.221 214.405 779.221 176.675 c 0
 779.221 150.544 774.314 123.538 764.458 100 c 1
 865 100.002 l 1
 865 0 l 25
EndSplineSet
Validated: 1
EndChar

StartChar: ain.isol
Encoding: 65566 -1 103
Width: 508
VWidth: 921
GlyphClass: 2
Flags: W
HStem: -213 101.002<163.71 440.395> 0 100<214.394 423.221> 286 91.936<209.936 317.68>
VStem: 66.2645 85.7355<-99.7013 -8.7259> 92.6313 94.2747<128.412 262.749>
AnchorPoint: "harakaBelow" 275 -300 basechar 0
AnchorPoint: "harakaAbove" 255 680 basechar 0
AnchorPoint: "dotAbove" 255 680 basechar 0
LayerCount: 2
Fore
SplineSet
101.334 138 m 0xf0
 94.9468 158.452 92.6313 180.454 92.6313 200.582 c 0
 92.6313 205.166 92.7513 209.652 92.9707 214 c 0
 94.4668 243.654 102.961 263.219 106.016 272.707 c 0
 114.931 293.212 128.354 311.4 148.286 330.091 c 0
 172.31 352.619 204.236 366.618 246.593 376.244 c 0
 255.919 377.386 264.889 377.936 273.507 377.936 c 0
 294.378 377.936 313.187 374.71 330 368.848 c 0
 354.51 360.304 374.775 346.158 391 328.247 c 0
 408.102 309.367 420.712 286.302 429.068 261.197 c 0
 432.38 251.248 432.865 237.176 432.738 234.562 c 0
 431.868 216.467 425.021 204.468 406.5 197 c 0
 398.314 193.7 390.987 192.045 384.132 192.045 c 0
 373.966 192.045 364.841 195.686 355.5 203 c 0
 331.89 221.494 332.943 286 266 286 c 0
 239.892 286 219.194 277.351 202.856 255 c 0
 193.069 241.611 187 223.307 187 199 c 0
 187 197.34 186.906 194.889 186.906 191.811 c 0xe8
 186.906 172.495 190.625 128.463 244.738 100 c 0
 397.466 100.02 l 2
 413.477 98.875 421.165 94.5586 423.542 93.4639 c 0
 439.999 85.8906 448 70.9697 448 51 c 0
 448 29.082 440.624 15.8672 423.42 5.94336 c 0
 419.309 3.57129 406.757 0 398.979 0 c 2
 206 0 l 2
 197.149 1 187.98 -1.46875 181.86 -4.32812 c 0
 168.834 -10.4141 152 -24.3506 152 -54 c 0
 152 -83.5244 169.29 -97.5 179.889 -103.207 c 0
 192.005 -109.731 216.282 -111.356 253.841 -111.998 c 2
 392 -111 l 2
 400.601 -110.938 410.447 -113.994 421.292 -119.416 c 0
 444.812 -131.177 449 -147.158 449 -162 c 0
 449 -177.363 445.446 -195.045 422.733 -205.903 c 1
 416.149 -207.768 406.48 -210.331 390.748 -213 c 1
 213.007 -213 l 1
 206.788 -212.096 194.927 -209.947 164.621 -202.448 c 0
 145.231 -197.651 122.508 -183.919 104 -164.146 c 0
 90.6466 -149.88 79.4875 -132.469 73.3574 -113 c 0
 68.3989 -97.2517 66.2645 -80.5285 66.2645 -63.8664 c 0
 66.2645 -44.6314 69.1089 -25.4779 73.7366 -8 c 0
 81.1455 19.982 93.1251 43.669 105.32 56.5195 c 0
 112.248 63.8194 133.025 84.4081 133.025 85.9319 c 0
 133.025 87.9873 113.751 98.2463 101.334 138 c 0xf0
EndSplineSet
Validated: 33
EndChar

StartChar: ain.init
Encoding: 65567 -1 104
Width: 469
VWidth: 921
GlyphClass: 2
Flags: W
HStem: 0 100<0 78.8115 180.576 385.221> 286 91.936<166.592 279.68>
VStem: 54.7443 88.2557<138.017 262.31>
AnchorPoint: "harakaBelow" 222 -205 basechar 0
AnchorPoint: "harakaAbove" 220 680 basechar 0
AnchorPoint: "dotAbove" 220 680 basechar 0
LayerCount: 2
Fore
SplineSet
228 286 m 0
 201.892 286 175.194 277.351 158.856 255 c 0
 149.069 241.611 143 223.307 143 199 c 0
 143 172.01 148.838 154.722 169.468 133 c 0
 178.678 123.303 190.835 112.722 206.738 100 c 1
 359.466 100.02 l 2
 375.477 98.875 383.165 94.5586 385.542 93.4639 c 0
 401.999 85.8906 410 70.9697 410 51 c 0
 410 29.082 402.624 15.8672 385.42 5.94336 c 0
 381.309 3.57129 368.757 0 360.979 0 c 2
 0 0 l 1
 0 100 l 1
 78.8115 100 l 1
 64.2988 143.526 l 2
 57.237 167.067 54.7443 187.546 54.7443 204.965 c 0
 54.7443 208.074 54.8237 211.086 54.9707 214 c 0
 56.4668 243.654 64.9609 263.219 68.0156 272.707 c 0
 76.9307 293.212 90.3545 311.4 110.286 330.091 c 0
 134.31 352.619 166.236 366.618 208.593 376.244 c 0
 217.919 377.386 226.889 377.936 235.507 377.936 c 0
 256.378 377.936 275.187 374.71 292 368.848 c 0
 316.51 360.304 336.775 346.158 353 328.247 c 0
 370.102 309.367 382.712 286.302 391.068 261.197 c 0
 394.38 251.248 394.865 237.176 394.738 234.562 c 0
 393.868 216.467 387.021 204.468 368.5 197 c 0
 360.314 193.7 352.987 192.045 346.132 192.045 c 0
 335.966 192.045 326.841 195.686 317.5 203 c 0
 293.89 221.494 294.943 286 228 286 c 0
EndSplineSet
Validated: 33
EndChar

StartChar: ain.medi
Encoding: 65568 -1 105
Width: 424
VWidth: 921
GlyphClass: 2
Flags: W
HStem: 0 100<0 79.5 180.576 424> 286 91.936<166.592 279.68>
VStem: 54.6513 88.3487<138.017 262.31>
AnchorPoint: "harakaBelow" 222 -205 basechar 0
AnchorPoint: "harakaAbove" 210 680 basechar 0
AnchorPoint: "dotAbove" 210 680 basechar 0
LayerCount: 2
Fore
SplineSet
328.466 100.02 m 1
 424 100 l 1
 424 0 l 1
 0 0 l 1
 0 100 l 1
 79.5 100 l 1
 64.2988 143.526 l 2
 56.6583 165.403 54.6513 185.069 54.6513 201.911 c 0
 54.6513 206.12 54.7766 210.153 54.9707 214 c 0
 56.4668 243.654 64.9609 263.219 68.0156 272.707 c 0
 76.9307 293.212 90.3545 311.4 110.286 330.091 c 0
 134.31 352.619 166.236 366.618 208.593 376.244 c 0
 217.919 377.386 226.889 377.936 235.507 377.936 c 0
 256.378 377.936 275.187 374.71 292 368.848 c 0
 316.51 360.304 336.775 346.158 353 328.247 c 0
 370.102 309.367 382.712 286.302 391.068 261.197 c 0
 394.38 251.248 394.865 237.176 394.738 234.562 c 0
 393.868 216.467 387.021 204.468 368.5 197 c 0
 360.314 193.7 352.987 192.045 346.132 192.045 c 0
 335.966 192.045 326.841 195.686 317.5 203 c 0
 293.89 221.494 294.943 286 228 286 c 0
 201.892 286 175.194 277.351 158.856 255 c 0
 149.069 241.611 143 223.307 143 199 c 0
 143 172.01 148.838 154.722 169.468 133 c 0
 178.678 123.303 190.835 112.722 206.738 100 c 1
 328.466 100.02 l 1
EndSplineSet
Validated: 33
EndChar

StartChar: ain.fina
Encoding: 65569 -1 106
Width: 499
VWidth: 921
GlyphClass: 2
Flags: W
HStem: -213 101.002<163.71 440.395> 0 100<214.394 499> 286 91.936<209.936 317.68>
VStem: 66.2645 85.7355<-99.7013 -8.7259> 92.6313 94.2747<128.412 262.749>
AnchorPoint: "harakaBelow" 261 -300 basechar 0
AnchorPoint: "harakaAbove" 250 680 basechar 0
AnchorPoint: "dotAbove" 250 680 basechar 0
LayerCount: 2
Fore
SplineSet
206 0 m 2xe8
 197.093 0 187.98 -1.46875 181.86 -4.32812 c 0
 168.834 -10.4141 152 -24.3506 152 -54 c 0
 152 -83.5244 169.29 -97.5 179.889 -103.207 c 0
 192.005 -109.731 216.282 -111.356 253.841 -111.998 c 2
 392 -111 l 2
 400.601 -110.938 410.447 -113.994 421.292 -119.416 c 0
 444.812 -131.177 449 -147.158 449 -162 c 0
 449 -177.363 445.446 -195.045 422.733 -205.903 c 1
 416.149 -207.768 406.48 -210.331 390.748 -213 c 1
 213.007 -213 l 1
 206.788 -212.096 194.927 -209.947 164.621 -202.448 c 0
 145.231 -197.651 122.508 -183.919 104 -164.146 c 0
 90.6466 -149.88 79.4875 -132.469 73.3574 -113 c 0
 68.3989 -97.2517 66.2645 -80.5285 66.2645 -63.8664 c 0xf0
 66.2645 -44.6314 69.1089 -25.4779 73.7366 -8 c 0
 81.1455 19.982 93.1251 43.669 105.32 56.5195 c 0
 112.248 63.8194 133.025 84.4081 133.025 85.9319 c 0
 133.025 87.9873 113.751 98.2463 101.334 138 c 0
 94.9468 158.452 92.6313 180.454 92.6313 200.582 c 0
 92.6313 205.166 92.7513 209.652 92.9707 214 c 0
 94.4668 243.654 102.961 263.219 106.016 272.707 c 0
 114.931 293.212 128.354 311.4 148.286 330.091 c 0
 172.31 352.619 204.236 366.618 246.593 376.244 c 0
 255.919 377.386 264.889 377.936 273.507 377.936 c 0
 294.378 377.936 313.187 374.71 330 368.848 c 0
 354.51 360.304 374.775 346.158 391 328.247 c 0
 408.102 309.367 420.712 286.302 429.068 261.197 c 0
 432.38 251.248 432.865 237.176 432.738 234.562 c 0
 431.868 216.467 425.021 204.468 406.5 197 c 0
 398.314 193.7 390.987 192.045 384.132 192.045 c 0
 373.966 192.045 364.841 195.686 355.5 203 c 0
 331.89 221.494 332.943 286 266 286 c 0
 239.892 286 219.194 277.351 202.856 255 c 0
 193.069 241.611 187 223.307 187 199 c 0
 187 197.34 186.906 194.889 186.906 191.811 c 0
 186.906 172.495 190.625 128.463 244.738 100 c 1
 324.826 100 418.913 100 499 100 c 1
 499 0 l 1
 206 0 l 2xe8
EndSplineSet
Validated: 33
EndChar

StartChar: feh.isol
Encoding: 65570 -1 107
Width: 1051
VWidth: 921
GlyphClass: 2
Flags: W
HStem: 0 99.0117<176.139 886.323> 171.979 96.021<772.397 875.961> 244.866 98.134<178.177 460.775> 420 76<772.44 875.714>
VStem: 59 97<117.764 223.313> 665 84<290.917 396.579> 896.602 89.497<113.069 184.633> 899 91.394<132.203 184.633 211.651 396.305>
AnchorPoint: "dotAbove.alt" 830 680 basechar 0
AnchorPoint: "harakaBelow" 231 -205 basechar 0
AnchorPoint: "harakaAbove" 830 680 basechar 0
AnchorPoint: "dotAbove" 830 680 basechar 0
LayerCount: 2
Fore
SplineSet
986.099 129.557 m 0xde
 977.537 6.97561 875.236 -0.136209 851.46 -0.136209 c 0
 848.329 -0.136209 846.56 -0.0128764 846.546 -0.0136719 c 2
 207.485 0 l 1
 176.139 5.69336 l 2
 145.754 14.1133 120.785 28.5039 101.078 50.1133 c 0
 69.1318 85.1436 59 129.162 59 172 c 0
 59 214.458 69.8525 258.331 101.166 292.989 c 0
 123.242 317.424 156.456 331.052 176.874 336.515 c 0
 197.162 341.943 209.695 343 218 343 c 2
 426 343 l 2
 427.608 343 431.593 342.613 441.746 340.357 c 0
 445.872 339.44 451.16 337.525 460.439 328.315 c 0
 469.775 319.051 473 308.297 473 295 c 0
 473 273.162 463.353 261.713 460.936 259.104 c 0
 457.562 255.467 450.009 251.11 438.009 247.132 c 0
 433.708 245.706 428.286 245.002 426 245 c 2
 224.844 244.866 l 2
 212.143 243.711 194.08 240.295 177.394 223.606 c 0
 162.193 208.406 156 190.843 156 169 c 0
 156 148.945 163.128 133.935 176.942 118.864 c 2
 177.553 118.198 l 1
 178.238 117.611 l 2
 201.017 98.0879 236.697 99.0605 237.584 99.0117 c 2
 816 99 l 2
 886 98.999 897.614 120.751 896.602 161.564 c 2xbe
 896.029 184.633 l 1
 873.414 179.502 853.596 172.575 826.446 171.979 c 0
 783.535 171.979 744.807 186.406 712.606 218.606 c 0
 682.229 248.984 665 287.242 665 333 c 0
 665 379.619 680.529 416.683 712.529 448.317 c 0
 760.149 495.395 810.075 496 825.824 496 c 0
 827 496 l 0
 861.254 496 894.197 487.702 924.607 463.308 c 0
 952.768 440.718 972.207 411.287 983.416 375.386 c 2
 986.1 361.077 l 2
 988.047 333.866 990.394 306.338 990.394 259.823 c 0xdd
 990.394 227.59 989.267 186.239 986.099 129.557 c 0xde
899 343 m 0xbd
 899 362.842 890.909 381.078 877.04 396.155 c 0
 863.36 411.026 844.424 420 823.849 420 c 0
 818.318 420 793.684 419.896 771.394 397.606 c 0
 755.949 382.163 749 364.827 749 342.849 c 0
 749 337.318 749.104 312.684 771.394 290.394 c 0
 785.778 276.009 804.19 268 824.151 268 c 0xdd
 829.682 268 854.316 268.104 876.606 290.394 c 0
 891.606 305.393 899 321.958 899 343 c 0xbd
EndSplineSet
EndChar

StartChar: feh.init
Encoding: 65571 -1 108
Width: 460
VWidth: 921
GlyphClass: 2
Flags: W
HStem: -0.138074 99.1255<0 295.352> 171.979 96.021<181.397 284.961> 420 76<181.44 284.714>
VStem: 74 84<290.917 396.579> 305.602 89.497<113.073 184.633> 308 91.394<132.203 184.633 211.651 396.305>
AnchorPoint: "dotAbove.alt" 240 680 basechar 0
AnchorPoint: "harakaBelow" 222 -205 basechar 0
AnchorPoint: "harakaAbove" 240 680 basechar 0
AnchorPoint: "dotAbove" 240 680 basechar 0
LayerCount: 2
Fore
SplineSet
225 99 m 2xf8
 225.948 98.9916 226.885 98.9874 227.812 98.9874 c 0
 295.309 98.9874 306.6 121.304 305.602 161.564 c 2xf8
 305.029 184.633 l 1
 282.414 179.502 262.596 172.575 235.446 171.979 c 0
 192.535 171.979 153.807 186.406 121.606 218.606 c 0
 91.2285 248.984 74 287.242 74 333 c 0
 74 379.619 89.5293 416.683 121.529 448.317 c 0
 169.15 495.395 219.075 496 234.824 496 c 0
 236 496 l 0
 270.254 496 303.197 487.702 333.607 463.308 c 0
 361.768 440.718 381.207 411.287 392.416 375.386 c 2
 395.1 361.077 l 2
 397.047 333.866 399.394 306.338 399.394 259.823 c 0xf4
 399.394 227.59 398.267 186.239 395.099 129.557 c 0
 386.54 7.00546 284.285 -0.138074 260.478 -0.138074 c 0
 257.336 -0.138074 255.56 -0.0136719 255.546 -0.0136719 c 2
 0 1 l 1
 0 101 l 1
 225 99 l 2xf8
308 343 m 0xf4
 308 362.842 299.909 381.078 286.04 396.155 c 0
 272.36 411.026 253.424 420 232.849 420 c 0
 227.318 420 202.684 419.896 180.394 397.606 c 0
 164.949 382.163 158.002 364.827 158 342.849 c 0
 158 337.318 158.104 312.684 180.394 290.394 c 0
 194.778 276.009 213.19 268 233.151 268 c 0
 238.682 268 263.316 268.104 285.606 290.394 c 0
 300.606 305.393 308 321.958 308 343 c 0xf4
EndSplineSet
EndChar

StartChar: feh.medi
Encoding: 65572 -1 109
Width: 475
VWidth: 921
GlyphClass: 2
Flags: W
HStem: 0 100<0 85.2441 187.473 286.245 385.152 475> 257.029 100.722<182.213 292.359>
VStem: 66.6853 93.9197<126.71 236.012> 313.755 91.628<127.188 236.014>
AnchorPoint: "harakaBelow" 222 -205 basechar 0
AnchorPoint: "harakaAbove" 240 680 basechar 0
AnchorPoint: "dotAbove" 240 680 basechar 0
LayerCount: 2
Fore
SplineSet
475 0 m 1
 0 0 l 1
 0 100 l 1
 85.2441 100 l 1
 81.1138 113.573 66.6853 151.93 66.6853 191.151 c 0
 66.6853 200.735 67.5469 210.371 69.6309 219.71 c 0
 79.498 263.947 91.7998 294.566 118 316 c 0
 141.568 335.279 167.142 357.751 240.856 357.751 c 0
 305.02 357.751 336.74 333.909 364 304 c 0
 389.539 275.979 399.59 246.132 403.965 208.5 c 0
 404.913 200.343 405.383 192.175 405.383 184.089 c 0
 405.383 153.107 398.484 123.332 385.152 100 c 1
 475 100 l 1
 475 0 l 1
310.976 202.551 m 0
 307.679 214.594 301.53 225.881 293 235 c 0
 284.527 244.057 273.609 250.832 261.674 254.201 c 0
 255.46 255.955 248.721 257.029 240.408 257.029 c 0
 239.62 257.029 238.817 257.02 238 257 c 0
 221.785 256.61 205.463 252.313 191.93 243.371 c 0
 181.312 236.355 172.737 226.286 167.562 214.659 c 0
 163.307 205.096 160.605 193.645 160.605 179.635 c 0
 160.605 168.548 162.543 157.408 167.199 147.369 c 0
 172.611 135.701 181.67 125.912 192.354 118.751 c 0
 205.752 109.771 221.747 104.491 237.869 104.491 c 0
 254.45 104.491 268.945 110.263 279.321 117.174 c 0
 290.305 124.488 299.398 134.635 305.399 146.388 c 0
 310.958 157.274 313.755 169.496 313.755 181.722 c 0
 313.755 188.748 312.831 195.775 310.976 202.551 c 0
  Spiro
    310.976 202.551 o
    293 235 o
    261.674 254.201 o
    238 257 o
    191.93 243.371 o
    167.562 214.659 o
    160.696 183.827 o
    167.199 147.369 o
    192.354 118.751 o
    239 104.5 o
    279.321 117.174 o
    305.399 146.388 o
    0 0 z
  EndSpiro
EndSplineSet
EndChar

StartChar: feh.fina
Encoding: 65573 -1 110
Width: 1017
VWidth: 921
GlyphClass: 2
Flags: W
HStem: 0 100<138.139 629.244 731.473 830.245 929.152 1017> 244.866 98.134<140.177 422.775> 257.029 100.722<726.213 836.359>
VStem: 21 97<117.764 223.313> 610.685 93.92<126.71 236.012> 857.755 91.628<127.188 236.014>
AnchorPoint: "harakaBelow" 222 -205 basechar 0
AnchorPoint: "harakaAbove" 774 680 basechar 0
AnchorPoint: "dotAbove" 774 680 basechar 0
LayerCount: 2
Fore
SplineSet
203 100 m 2xdc
 629.244 100 l 1
 625.113 113.573 610.685 151.93 610.685 191.151 c 0
 610.685 200.735 611.547 210.371 613.631 219.71 c 0
 623.498 263.947 635.8 294.566 662 316 c 0
 685.568 335.279 711.142 357.751 784.856 357.751 c 0xbc
 849.02 357.751 880.74 333.909 908 304 c 0
 933.539 275.979 943.59 246.132 947.965 208.5 c 0
 948.913 200.343 949.383 192.175 949.383 184.089 c 0
 949.383 153.107 942.484 123.332 929.152 100 c 1
 1017 100 l 1
 1017 0 l 1
 172 0 l 1
 138.139 5.69336 l 2
 107.046 10.9209 82.7852 28.5039 63.0781 50.1133 c 0
 31.1318 85.1436 21 129.162 21 172 c 0
 21 214.458 31.8525 258.331 63.166 292.989 c 0
 85.2422 317.424 118.456 331.052 138.874 336.515 c 0
 159.162 341.943 171.695 343 180 343 c 2
 388 343 l 2
 389.608 343 393.593 342.613 403.746 340.357 c 0
 407.872 339.44 413.16 337.525 422.439 328.315 c 0
 431.775 319.051 435 308.297 435 295 c 0
 435 273.162 425.353 261.713 422.936 259.104 c 0
 419.562 255.467 412.009 251.11 400.009 247.132 c 0
 395.708 245.706 390.286 245.002 388 245 c 2
 186.844 244.866 l 2
 174.143 243.711 156.08 240.295 139.394 223.606 c 0
 124.193 208.406 118 190.843 118 169 c 0
 118 148.945 125.128 133.935 138.942 118.864 c 2
 139.553 118.198 l 1
 140.238 117.611 l 2
 159.313 101.28 187.342 99.9496 198.554 99.9496 c 0
 200.737 99.9496 202.282 100 203 100 c 2xdc
854.976 202.551 m 0
 851.679 214.594 845.53 225.881 837 235 c 0
 828.527 244.057 817.609 250.832 805.674 254.201 c 0
 799.46 255.955 792.721 257.029 784.408 257.029 c 0
 783.62 257.029 782.817 257.02 782 257 c 0
 765.785 256.61 749.463 252.313 735.93 243.371 c 0
 725.312 236.355 716.737 226.286 711.562 214.659 c 0
 707.307 205.096 704.605 193.645 704.605 179.635 c 0
 704.605 168.548 706.543 157.408 711.199 147.369 c 0
 716.611 135.701 725.67 125.912 736.354 118.751 c 0
 749.752 109.771 765.747 104.491 781.869 104.491 c 0
 798.45 104.491 812.945 110.263 823.321 117.174 c 0
 834.305 124.488 843.398 134.635 849.399 146.388 c 0
 854.958 157.274 857.755 169.496 857.755 181.722 c 0
 857.755 188.748 856.831 195.775 854.976 202.551 c 0
  Spiro
    854.976 202.551 o
    837 235 o
    805.674 254.201 o
    782 257 o
    735.93 243.371 o
    711.562 214.659 o
    704.696 183.827 o
    711.199 147.369 o
    736.354 118.751 o
    783 104.5 o
    823.321 117.174 o
    849.399 146.388 o
    0 0 z
  EndSpiro
EndSplineSet
Validated: 1
EndChar

StartChar: qaf.isol
Encoding: 65574 -1 111
Width: 712
VWidth: 921
GlyphClass: 2
Flags: W
HStem: -0.0136719 99.0111<184.405 541.352> 171.979 96.021<432.397 535.917> 420 84<432.44 535.714>
VStem: 60 105<150.945 388.881> 325 84<290.917 396.595> 548.682 97.417<107.905 184.633> 559 91.815<200.91 396.348>
AnchorPoint: "dotAbove.alt" 482 680 basechar 0
AnchorPoint: "harakaBelow" 222 -205 basechar 0
AnchorPoint: "harakaAbove" 482 680 basechar 0
AnchorPoint: "dotAbove" 482 680 basechar 0
LayerCount: 2
Fore
SplineSet
476 99 m 2xfc
 476.412 98.9983 476.821 98.9974 477.228 98.9974 c 0
 538.715 98.9974 548.682 118.811 548.682 155.484 c 0xfc
 548.682 157.462 548.653 159.488 548.602 161.564 c 2
 548.029 184.633 l 1
 525.414 179.502 513.596 172.575 486.446 171.979 c 0
 443.535 171.979 404.807 186.406 372.606 218.606 c 0
 342.229 248.984 325 287.242 325 333 c 0
 325 379.619 340.529 424.683 372.529 456.317 c 0
 420.15 503.395 470.075 504 485.824 504 c 0
 487 504 l 0
 521.254 504 554.197 495.702 584.607 471.308 c 0
 612.768 448.718 632.207 419.287 643.416 383.386 c 2
 646.1 361.077 l 2
 648.702 339.444 650.815 312.884 650.815 269.416 c 0xfa
 650.815 235.212 649.507 190.538 646.099 129.557 c 0
 637.54 7.00546 535.285 -0.138074 511.477 -0.138074 c 0
 508.336 -0.138074 506.56 -0.0136719 506.546 -0.0136719 c 2
 238 0 l 2
 201.782 0.00195312 179.216 2.7334 165.134 5.66602 c 0
 141.501 10.5879 119.98 19.6826 102.469 36.7412 c 0
 85.7275 53.0488 73.2539 76.2969 64.7656 105.914 c 1
 60 147.85 l 1
 60 340.058 l 2
 60.6143 344.861 61.8652 359.898 66.7881 371.131 c 0
 74.8945 389.624 90.3926 397 112 397 c 0
 139.95 397 151.625 384.209 158.584 370.292 c 2
 159.001 369.456 l 1
 159.52 368.68 l 2
 162.372 364.4 164.452 345.262 165 340.188 c 2
 165 167.605 l 1
 168.124 150.945 l 2
 170.145 129.649 181.266 118.207 183.896 115.935 c 0
 194.637 106.654 212.671 103.359 219.938 102.147 c 2
 239.169 100 l 1
 476 99 l 2xfc
559 343 m 0xfa
 559 362.842 550.909 381.078 537.04 396.155 c 0
 523.36 411.026 504.424 420 483.849 420 c 0
 478.318 420 453.684 419.896 431.394 397.606 c 0
 415.949 382.163 409 364.827 409 342.849 c 0
 409 337.318 409.104 312.684 431.394 290.394 c 0
 445.778 276.009 464.19 268 484.151 268 c 0
 489.682 268 514.316 268.104 536.606 290.394 c 0
 551.606 305.393 559 321.958 559 343 c 0xfa
EndSplineSet
EndChar

StartChar: qaf.fina
Encoding: 65575 -1 112
Width: 728
VWidth: 921
GlyphClass: 2
Flags: W
HStem: 0 100<184.405 548.643 647 728> 171.979 96.021<432.397 535.961> 420 84<432.44 535.714>
VStem: 60 105<150.945 388.881> 325 84<290.917 396.595> 556.602 90.398<108.866 161.564 161.564 184.633 291.098 383.386>
AnchorPoint: "dotAbove.alt" 486 680 basechar 0
AnchorPoint: "harakaBelow" 222 -205 basechar 0
AnchorPoint: "harakaAbove" 486 680 basechar 0
AnchorPoint: "dotAbove" 486 680 basechar 0
LayerCount: 2
Fore
SplineSet
238 0 m 2
 201.782 0 179.216 2.7334 165.134 5.66602 c 0
 141.501 10.5879 119.98 19.6826 102.469 36.7412 c 0
 85.7275 53.0488 73.2539 76.2969 64.7656 105.914 c 1
 60 147.85 l 1
 60 340.058 l 2
 60.6143 344.861 61.8652 359.898 66.7881 371.131 c 0
 74.8945 389.624 90.3926 397 112 397 c 0
 139.95 397 151.625 384.209 158.584 370.292 c 2
 159.001 369.456 l 1
 159.52 368.68 l 2
 162.372 364.4 164.452 345.262 165 340.188 c 2
 165 167.605 l 1
 168.124 150.945 l 2
 170.145 129.649 181.266 118.207 183.896 115.935 c 0
 194.637 106.654 212.671 103.359 219.938 102.147 c 2
 239.169 100 l 1
 476 99 l 2
 476.437 98.9983 476.871 98.9974 477.304 98.9974 c 0
 546.143 98.9974 557.608 121.006 556.602 161.564 c 2
 556.029 184.633 l 1
 533.414 179.502 513.596 172.575 486.446 171.979 c 0
 443.535 171.979 404.807 186.406 372.606 218.606 c 0
 342.229 248.984 325 287.242 325 333 c 0
 325 379.619 340.529 424.683 372.529 456.317 c 0
 420.15 503.395 470.075 504 485.824 504 c 0
 487 504 l 0
 521.254 504 554.197 495.702 584.607 471.308 c 0
 612.768 448.718 639.142 413.95 643.416 383.386 c 2
 647 349.759 l 17
 647 100 l 1
 728 100 l 1
 728 0 l 9
 238 0 l 2
559 343 m 0
 559 362.842 550.909 381.078 537.04 396.155 c 0
 523.36 411.026 504.424 420 483.849 420 c 0
 478.318 420 453.684 419.896 431.394 397.606 c 0
 415.949 382.163 409 364.827 409 342.849 c 0
 409 337.318 409.104 312.684 431.394 290.394 c 0
 445.778 276.009 464.19 268 484.151 268 c 0
 489.682 268 514.316 268.104 536.606 290.394 c 0
 551.606 305.393 559 321.958 559 343 c 0
EndSplineSet
EndChar

StartChar: kaf.isol
Encoding: 65576 -1 113
Width: 691
VWidth: 921
GlyphClass: 2
Flags: W
HStem: 0 102.116<175.154 522.044> 252 105<175.822 368.56 368.56 413.376>
VStem: 60 95<122.693 231.212> 526 105<104.08 142.066 142.066 665.614>
AnchorPoint: "harakaBelow" 222 -205 basechar 0
AnchorPoint: "harakaAbove" 270 780 basechar 0
AnchorPoint: "hamzaKaf" 270 450 basechar 0
LayerCount: 2
Fore
SplineSet
368.926 357 m 2
 380.785 357 390.983 353.407 397.692 350.824 c 1
 413.814 341.215 421.02 326.48 421.02 305.894 c 0
 421.02 283.046 413.361 267.786 395.944 258.287 c 1
 389.819 256.362 381.029 252.151 367.95 252.094 c 2
 232 252 l 2
 217.494 251.99 204.506 248.175 193.004 242.265 c 0
 159.113 224.85 155 194.846 155 177 c 0
 155 157.762 159.917 127.676 193.135 111.645 c 0
 202.51 107.12 217.108 103.75 230.14 102.116 c 2
 495 102 l 1
 503.628 104.517 521.059 102.537 526 142.066 c 2
 525.98 638.466 l 2
 526.826 650.294 529.229 658.961 531.672 665.722 c 1
 541.225 682.536 556.416 690 578 690 c 0
 599.506 690 614.656 682.609 624.225 665.901 c 1
 626.277 659.818 629.294 651.01 631 638.043 c 2
 631 101 l 2
 631 95.1982 628.271 10.6826 523.254 -0.0371094 c 2
 502 0 l 1
 211 0 l 2
 198.437 0 186.021 1.27832 172.17 5.40527 c 0
 141.988 14.3984 116.699 29.2881 99.1943 48.9834 c 0
 73.8867 77.457 60 118.594 60 172 c 0
 60 300.038 167.851 348.362 171.994 349.546 c 0
 187.015 353.836 199.549 357 211 357 c 2
 368.926 357 l 2
EndSplineSet
Validated: 1
EndChar

StartChar: kaf.init
Encoding: 65577 -1 114
Width: 807
VWidth: 921
GlyphClass: 2
Flags: W
HStem: 0 100<0 626.661> 249 101<184.812 629.116>
VStem: 649 100<122.202 233.033>
AnchorPoint: "ring" 394.823 472.785 basechar 0
AnchorPoint: "harakaBelow" 396 -205 basechar 0
AnchorPoint: "longDash" 216 507 basechar 0
AnchorPoint: "harakaAbove" 311 680 basechar 0
LayerCount: 2
Fore
SplineSet
749 203 m 0
 749 164.525 743.738 118.753 718.906 74.3184 c 0
 694.606 30.834 658.043 7.25488 611.854 0 c 1
 0 0 l 1
 0 100 l 1
 569 100 l 2
 587.486 100 599.829 104.927 615.573 114.057 c 0
 637.936 127.024 649 146.602 649 175 c 0
 649 205.048 640.758 222.034 629.83 232 c 0
 614.808 245.698 586.712 246.134 575.966 249 c 1
 172 249 l 2
 167.389 249 157.714 250.247 148.583 251.771 c 0
 130.855 254.731 116.988 260.649 104.595 269.293 c 0
 84.6966 283.171 74.7436 306.378 74.7436 331.592 c 0
 74.7436 355.437 83.6455 381.077 101.456 402.317 c 0
 105.943 407.668 113.841 414.191 128.259 424.49 c 2
 356.889 563.633 l 2
 366.954 567.957 380.919 575.56 395.039 575.985 c 1
 413.916 573.288 419.668 574.327 432.377 554.92 c 0
 436.812 548.146 440 539.577 440 529 c 0
 440 517.43 436.306 507.943 427.814 496.733 c 0
 426.774 495.36 422.212 490.484 415.655 485.495 c 2
 184.812 350 l 1
 592 350 l 2
 613.279 350 631.99 345.923 650.066 338.226 c 0
 680.726 325.17 706.8 303.617 726.986 268.544 c 0
 742.84 240.998 749 218.944 749 203 c 0
EndSplineSet
EndChar

StartChar: kaf.medi
Encoding: 65578 -1 115
Width: 827
VWidth: 921
GlyphClass: 2
Flags: W
HStem: 0 100<0 626.962 730.729 827> 249 101<184.812 629.116>
VStem: 649 100<122.028 233.033>
AnchorPoint: "ring" 394.823 472.785 basechar 0
AnchorPoint: "harakaAbove" 311 680 basechar 0
AnchorPoint: "harakaBelow" 396 -205 basechar 0
AnchorPoint: "longDash" 216 507 basechar 0
LayerCount: 2
Fore
SplineSet
827 0 m 1
 0 0 l 1
 0 100 l 1
 569 100 l 2
 587.486 100 599.829 104.927 615.573 114.057 c 0
 637.936 127.024 649 146.602 649 175 c 0
 649 205.048 640.758 222.034 629.83 232 c 0
 614.808 245.698 586.712 246.134 575.966 249 c 1
 172 249 l 2
 167.389 249 157.714 250.247 148.583 251.771 c 0
 130.855 254.731 116.988 260.649 104.595 269.293 c 0
 84.6966 283.171 74.7436 306.378 74.7436 331.592 c 0
 74.7436 355.437 83.6455 381.077 101.456 402.317 c 0
 105.943 407.668 113.841 414.191 128.259 424.49 c 2
 356.889 563.633 l 2
 366.954 567.957 380.919 575.56 395.039 575.985 c 1
 413.916 573.288 419.668 574.327 432.377 554.92 c 0
 436.812 548.146 440 539.577 440 529 c 0
 440 517.43 436.306 507.943 427.814 496.733 c 0
 426.774 495.36 422.212 490.484 415.655 485.495 c 2
 184.812 350 l 1
 592 350 l 2
 613.279 350 631.99 345.923 650.066 338.226 c 0
 680.726 325.17 706.8 303.617 726.986 268.544 c 0
 742.84 240.998 749 218.944 749 203 c 0
 749 171.607 745.497 136.354 730.729 100 c 1
 827 100 l 1
 827 0 l 1
EndSplineSet
EndChar

StartChar: kaf.fina
Encoding: 65579 -1 116
Width: 705
VWidth: 921
GlyphClass: 2
Flags: W
HStem: 0 102.116<175.154 522.044 631 705 705 705> 252 105<175.822 368.56 368.56 413.376>
VStem: 60 95<122.693 231.212> 526 105<104.08 142.066 142.066 665.614>
AnchorPoint: "harakaBelow" 222 -205 basechar 0
AnchorPoint: "harakaAbove" 270 780 basechar 0
AnchorPoint: "hamzaKaf" 270 450 basechar 0
LayerCount: 2
Fore
SplineSet
705 0 m 5
 211 0 l 6
 198.437 0 186.021 1.27832 172.17 5.40527 c 4
 141.988 14.3984 116.699 29.2881 99.1943 48.9834 c 4
 73.8867 77.457 60 118.594 60 172 c 4
 60 300.038 167.851 348.362 171.994 349.546 c 4
 187.015 353.836 199.549 357 211 357 c 6
 368.926 357 l 6
 380.785 357 390.983 353.407 397.692 350.824 c 5
 413.814 341.215 421.02 326.48 421.02 305.894 c 4
 421.02 283.046 413.361 267.786 395.944 258.287 c 5
 389.819 256.362 381.029 252.151 367.95 252.094 c 6
 232 252 l 6
 217.494 251.99 204.506 248.175 193.004 242.265 c 4
 159.113 224.85 155 194.846 155 177 c 4
 155 157.762 159.917 127.676 193.135 111.645 c 4
 202.51 107.12 217.108 103.75 230.14 102.116 c 6
 495 102 l 5
 503.628 104.517 521.059 102.537 526 142.066 c 6
 525.98 638.466 l 6
 526.826 650.294 529.229 658.961 531.672 665.722 c 5
 541.225 682.536 556.416 690 578 690 c 4
 599.506 690 614.656 682.609 624.225 665.901 c 5
 626.277 659.818 631 651.121 631 638.043 c 6
 631 101 l 5
 705 101 l 5
 705 0 l 5
EndSplineSet
Validated: 1
EndChar

StartChar: lam.isol
Encoding: 65580 -1 117
Width: 521
VWidth: 921
GlyphClass: 2
Flags: W
HStem: -204 104<194.545 326.884>
VStem: 60 106<-15.9824 170.143 170.143 211.237> 355 106<-18.4355 659.794>
AnchorPoint: "harakaBelow" 175 -268 basechar 0
AnchorPoint: "harakaAbove" 406 780 basechar 0
LayerCount: 2
Fore
SplineSet
461 -12.874 m 1
 453.308 -64.0615 l 2
 443.982 -101.364 426.425 -131.524 401.615 -155.18 c 0
 367.401 -187.802 319.328 -204 257 -204 c 0
 208.214 -204 156.366 -193.505 118.531 -156.319 c 0
 94.7734 -132.969 78.2012 -101.64 66.7119 -63.8291 c 1
 60 -13.0137 l 1
 60 169.983 l 2
 61.4102 180.125 64.1484 190.84 66.6719 194.981 c 0
 81.8232 219.849 106.226 220 112 220 c 0
 136.274 220 154.636 209.154 160.265 196.99 c 0
 161.435 194.462 163.837 181.084 166 169.603 c 1
 166 -14.9961 l 1
 166.132 -15.9824 l 2
 167.258 -24.4062 169.831 -42.5361 177.85 -57.2148 c 0
 193.828 -86.4639 222.091 -100 260 -100 c 0
 310.491 -100 333.244 -76.1553 343.367 -57.8887 c 0
 347 -51.333 352.516 -27.3184 354.602 -18.4355 c 2
 355 -16.7412 l 1
 355 634 l 2
 355 642.002 356.293 646.301 357.147 649.06 c 0
 364.698 673.427 381.855 684 408 684 c 0
 429.959 684 445.47 676.519 454.78 659.925 c 0
 456.296 657.222 458.799 649.244 461 632.058 c 2
 461 -12.874 l 1
EndSplineSet
Validated: 1
EndChar

StartChar: lam.init
Encoding: 65581 -1 118
Width: 240
VWidth: 921
GlyphClass: 2
Flags: W
HStem: 0 100<0 39.8604>
VStem: 75 106<103.14 660.731>
AnchorPoint: "harakaBelow" 117 -205 basechar 0
AnchorPoint: "harakaAbove" 124 780 basechar 0
LayerCount: 2
Fore
SplineSet
181 113 m 2
 181 77.5801 172.659 45.8008 146.655 24.7256 c 0
 132.019 12.8633 102.69 0 48 0 c 2
 0 0 l 1
 0 100 l 1
 38.9336 100 l 1
 39.8604 100.116 l 2
 62.8663 102.991 75 112.334 75 139 c 2
 75 631.999 l 2
 76.79 645.266 78.5557 654.076 81.0957 658.688 c 0
 90.6875 676.1 106.033 684 128 684 c 0
 149.291 684 164.583 676.553 174.099 661.041 c 1
 175.944 654.481 178.44 644.998 181 631.594 c 1
 181 113 l 2
EndSplineSet
Validated: 1
Substitution2: "Single Substitution lookup 7-1" lam.init.Allah
Substitution2: "Single Substitution lookup 1-1" lam.init.lamAlif
EndChar

StartChar: lam.medi
Encoding: 65582 -1 119
Width: 255
VWidth: 921
GlyphClass: 2
Flags: W
HStem: 0 100<0 77 183 255>
VStem: 77 106<100 659.375>
AnchorPoint: "harakaBelow" 129 -205 basechar 0
AnchorPoint: "harakaAbove" 130 780 basechar 0
LayerCount: 2
Fore
SplineSet
255 0 m 1
 0 0 l 1
 0 100 l 1
 77 100 l 1
 77 631.986 l 2
 78.7715 644.788 81.3633 654.112 83.4658 659.319 c 1
 92.9375 675.304 108.381 683 130 683 c 0
 151.094 683 165.57 675.92 176.215 659.721 c 1
 178.46 652.343 181.335 644.664 183 632.041 c 2
 183 100 l 1
 255 100 l 1
 255 0 l 1
EndSplineSet
Validated: 1
Substitution2: "Single Substitution lookup 8-1" lam.medi.Allah.alt
Substitution2: "Single Substitution lookup 7-1" lam.medi.Allah.alt2
Substitution2: "Single Substitution lookup 6-1" lam.medi.Allah
Substitution2: "Single Substitution lookup 1-1" lam.medi.lamAlif
EndChar

StartChar: lam.fina
Encoding: 65583 -1 120
Width: 521
VWidth: 921
GlyphClass: 2
Flags: W
HStem: -204 104<194.545 326.884> 0 100<461.059 521>
VStem: 60 106<-15.9824 170.143 170.143 211.401> 355 166<0 100> 355 106<-18.4355 0 100 659.794>
AnchorPoint: "harakaBelow" 175 -268 basechar 0
AnchorPoint: "harakaAbove" 404 780 basechar 0
LayerCount: 2
Fore
SplineSet
461 100 m 1xe8
 521 100 l 1
 521 0 l 1xf0
 461.059 0 l 1
 461 -12.874 l 1
 453.308 -64.0615 l 2
 443.982 -101.364 426.425 -131.524 401.615 -155.18 c 0
 367.401 -187.802 319.328 -204 257 -204 c 0
 208.214 -204 156.366 -193.505 118.531 -156.319 c 0
 94.7734 -132.969 78.2012 -101.64 66.7119 -63.8291 c 1
 60 -13.0137 l 1
 60 169.983 l 2
 61.4102 180.125 64.1484 190.84 66.6719 194.981 c 0
 81.8232 219.849 105.226 220 111 220 c 0
 135.274 220 154.636 209.154 160.265 196.99 c 0
 161.435 194.462 163.837 181.084 166 169.603 c 1
 166 -14.9961 l 1
 166.132 -15.9824 l 2
 167.258 -24.4062 169.831 -42.5361 177.85 -57.2148 c 0
 193.828 -86.4639 222.091 -100 260 -100 c 0
 310.491 -100 333.244 -76.1553 343.367 -57.8887 c 0
 347 -51.333 352.516 -27.3184 354.602 -18.4355 c 2
 355 -16.7412 l 1
 355 634 l 2
 355 642.002 356.293 646.301 357.147 649.06 c 0
 364.698 673.427 381.855 684 408 684 c 0
 429.959 684 445.47 676.519 454.78 659.925 c 0
 456.296 657.222 461 649.385 461 632.058 c 2
 461 100 l 1xe8
EndSplineSet
Validated: 1
EndChar

StartChar: meem.isol
Encoding: 65584 -1 121
Width: 659
VWidth: 921
GlyphClass: 2
Flags: W
HStem: -199.159 92.159<253.437 414.903> 0.528982 96.471<378.414 486.169> 249 101.943<378.117 485.883>
VStem: 60.5339 94.9571<-19.5585 163.093> 263.568 91.432<119.99 226.05> 509 90.826<118.61 225.572>
AnchorPoint: "harakaBelow" 120 -205 basechar 0
AnchorPoint: "harakaAbove" 380 680 basechar 0
LayerCount: 2
Fore
SplineSet
486.606 226.606 m 0
 471.207 242.007 453.843 249 432 249 c 0
 410.157 249 392.793 242.007 377.394 226.606 c 0
 355.378 204.59 355 180.096 355 173.622 c 0
 355.017 151.841 362.063 134.251 377.609 119.186 c 0
 392.639 104.623 412.198 97 432 97 c 0
 452.543 97 471.543 104.566 486.136 117.942 c 0
 501.576 132.096 508.983 151.814 509 173.622 c 0
 509 180.096 508.622 204.59 486.606 226.606 c 0
268.609 235.075 m 1
 259.361 230.446 225.241 218.486 196.87 189 c 0
 175.935 167.242 158.13 135.94 155.759 91 c 0
 155.582 87.6483 155.491 84.2207 155.491 80.7155 c 0
 155.491 58.6093 159.109 33.4175 167.625 4.71387 c 0
 175.667 -22.3496 191.158 -45.8076 217.34 -64.2402 c 0
 249.465 -86.8584 295.136 -107 347 -107 c 2
 382 -107 l 2
 410.643 -107 425 -127.579 425 -149.87 c 0
 424.974 -172.5 408.546 -183.957 401.292 -187.584 c 0
 382.359 -197.495 362.735 -199.034 354.055 -199.034 c 0
 349.537 -199.032 343.829 -199.159 337.03 -199.159 c 0
 314.485 -199.159 280.453 -197.771 243 -185.751 c 0
 216.276 -177.175 187.812 -163.186 160.537 -140.425 c 0
 136.502 -120.366 117.569 -98.2188 102.948 -75 c 0
 73.2988 -27.9189 61.375 23.5713 60.5771 71 c 0
 60.5482 72.7179 60.5339 74.4305 60.5339 76.1374 c 0
 60.5339 125.857 72.6529 170.716 89.1406 200.767 c 0
 108.242 235.58 137.058 271.409 180.57 301.689 c 0
 219.021 328.447 256.238 342.354 293.245 346.054 c 0
 323.931 348.507 357.165 350.943 390.216 350.943 c 0
 401.43 350.943 412.623 350.662 423.688 350.007 c 0
 457.668 350.007 497.527 338.118 530 315.576 c 0
 555.784 297.676 576.912 273.06 586.742 242.343 c 0
 595.761 215.284 599.826 190.214 599.826 167.278 c 0
 599.826 165.506 599.802 163.746 599.754 162 c 0
 598.736 125.054 587.044 93.8408 568.561 69 c 0
 541.109 32.1084 498.682 9.27148 454 2.58594 c 0
 444.874 1.22058 435.654 0.528982 426.448 0.528982 c 0
 391.842 0.528982 357.44 10.3026 329 30.7979 c 0
 305.524 47.7158 286.112 71.9385 274 104 c 0
 266.68 123.377 263.568 145.814 263.568 171.198 c 0
 263.568 190.758 265.416 212.068 268.609 235.075 c 1
EndSplineSet
Validated: 1
EndChar

StartChar: meem.init
Encoding: 65585 -1 122
Width: 479
VWidth: 921
GlyphClass: 2
Flags: W
HStem: 0 100<0 87.2119 194.938 293.573> 258 94.636<189.513 297.887>
VStem: 73.9746 93.0254<127.874 235.419> 321 99<127.132 235.149>
AnchorPoint: "harakaBelow" 224 -205 basechar 0
AnchorPoint: "harakaAbove" 225 680 basechar 0
LayerCount: 2
Fore
SplineSet
298.606 235.606 m 0
 283.207 251.007 265.843 258 244 258 c 0
 211.236 258 193.232 239.445 189.394 235.606 c 0
 173.993 220.207 167 202.843 167 181 c 0
 167 161.244 174.727 142.061 189.394 127.394 c 0
 193.232 123.555 211.236 105 244 105 c 0
 263.804 105 283.121 112.792 298.147 125.972 c 0
 302.229 129.551 321 148.236 321 181 c 0
 321 202.843 314.007 220.207 298.606 235.606 c 0
0 0 m 1
 0 100 l 1
 87.2119 100 l 1
 80.6273 124.91 73.9746 149.752 73.9746 181.245 c 0
 73.9746 201.343 77.0701 220.397 84.248 242.337 c 0
 90.9355 262.776 103.554 282.235 123.361 301.154 c 0
 140.376 317.405 162.521 333.467 192.411 342.663 c 0
 214.43 349.438 235.506 352.636 255.337 352.636 c 0
 265.57 352.636 275.471 351.784 285 350.134 c 0
 316.125 344.743 343.272 330.828 365 310.21 c 0
 383.575 292.584 398.189 270.058 407.939 243.773 c 0
 416.317 221.191 420 200.993 420 183 c 0
 420 170.339 416.733 132.71 396.495 95 c 0
 383.963 71.6479 364.923 48.2648 336.121 30.7607 c 0
 320.318 21.1575 300.968 14.5354 282 9.97092 c 0
 249.284 2.09814 217.704 0.346705 207.425 -0.0224609 c 2
 0 0 l 1
EndSplineSet
Validated: 1
EndChar

StartChar: meem.medi
Encoding: 65586 -1 123
Width: 472
VWidth: 921
GlyphClass: 2
Flags: W
HStem: -122 96<181.577 289.865> 0 100<0 79.0304 394.742 472> 127 99<181.822 288.978>
VStem: 0 159<0.0508023 99.4044> 313 159<0.276597 99.3823>
AnchorPoint: "harakaBelow" 224 -205 basechar 0
AnchorPoint: "harakaAbove" 230 680 basechar 0
LayerCount: 2
Fore
SplineSet
290.606 103.606 m 0
 275.007 119.207 257.843 127 236 127 c 0
 216.283 127 195.87 119.664 181.186 104.391 c 0
 166.983 89.6182 159 70.8594 159 51 c 0
 159 18.2363 177.555 0.232422 181.394 -3.60645 c 0
 196.793 -19.0068 214.157 -26 236 -26 c 0
 268.764 -26 286.402 -7.53613 290.371 -3.83203 c 0
 305.497 10.2861 313 29.7451 313 51 c 0
 313 56.2178 313 81.2129 290.606 103.606 c 0
472 0 m 1
 402.357 0 l 1
 388.782 -38.8386 387.973 -43.7027 367.053 -66.7578 c 0
 354.007 -81.1336 333.263 -94.8209 314.837 -104.821 c 0
 284.799 -121.121 244.571 -122 227 -122 c 0
 167.96 -122 128.088 -90.2263 108.393 -67.2432 c 0
 83.3034 -37.9663 77.8925 -19.3428 70.1553 0 c 1
 0 0 l 1
 0 100 l 1
 69.96 100 l 1
 84.2698 134.001 87.3513 142.726 107.582 167.469 c 0
 111.719 172.528 119.886 180.156 130.053 188.892 c 0
 142.726 199.78 172.432 226 236 226 c 0
 267.957 226 295.486 219.321 315.619 207.941 c 0
 342.837 192.557 357.542 178.877 365.512 169.358 c 0
 384.635 146.517 391.896 124.093 402.04 100 c 1
 472 100 l 1
 472 0 l 1
EndSplineSet
Validated: 1
EndChar

StartChar: meem.fina
Encoding: 65587 -1 124
Width: 673
VWidth: 921
GlyphClass: 2
Flags: W
HStem: -200.159 92.159<253.437 414.903> 0 96<378.317 485.449 586.787 673> 248 102.131<378.117 485.883>
VStem: 60.5339 94.9571<-20.5585 162.093> 263.568 91.432<118.99 225.05> 509 90.826<117.674 224.572>
AnchorPoint: "harakaBelow" 120 -205 basechar 0
AnchorPoint: "harakaAbove" 432 680 basechar 0
LayerCount: 2
Fore
SplineSet
486.606 225.606 m 0
 471.207 241.007 453.843 248 432 248 c 0
 410.157 248 392.793 241.007 377.394 225.606 c 0
 355.378 203.59 355 179.096 355 172.622 c 0
 355.017 150.841 362.063 133.251 377.609 118.186 c 0
 392.639 103.623 412.198 96 432 96 c 0
 452.543 96 471.543 103.566 486.136 116.942 c 0
 501.576 131.096 508.983 150.814 509 172.622 c 0
 509 179.096 508.622 203.59 486.606 225.606 c 0
586.787 99.999 m 1
 673 100 l 1
 673 0 l 1
 438.934 0 l 1
 399.696 0 360.807 6.87654 329 29.7979 c 0
 305.524 46.7158 286.112 70.9385 274 103 c 0
 266.68 122.377 263.568 144.814 263.568 170.198 c 0
 263.568 189.758 265.416 211.068 268.609 234.075 c 1
 259.361 229.446 225.241 217.486 196.87 188 c 0
 175.935 166.242 158.13 134.94 155.759 90 c 0
 155.582 86.6483 155.491 83.2207 155.491 79.7155 c 0
 155.491 57.6093 159.109 32.4175 167.625 3.71387 c 0
 175.667 -23.3496 191.158 -46.8076 217.34 -65.2402 c 0
 249.465 -87.8584 295.136 -108 347 -108 c 2
 382 -108 l 2
 410.643 -108 425 -128.579 425 -150.87 c 0
 424.974 -173.5 408.546 -184.957 401.292 -188.584 c 0
 382.359 -198.495 362.735 -200.034 354.055 -200.034 c 0
 349.537 -200.032 343.829 -200.159 337.03 -200.159 c 0
 314.485 -200.159 280.453 -198.771 243 -186.751 c 0
 216.276 -178.175 187.812 -164.186 160.537 -141.425 c 0
 136.502 -121.366 117.569 -99.2188 102.948 -76 c 0
 73.2988 -28.9189 61.375 22.5713 60.5771 70 c 0
 60.5482 71.7179 60.5339 73.4305 60.5339 75.1374 c 0
 60.5339 124.857 72.6529 169.716 89.1406 199.767 c 0
 108.242 234.58 137.058 270.409 180.57 300.689 c 0
 219.021 327.447 256.238 342.354 293.245 346.054 c 0
 321.874 348.342 352.723 350.131 383.57 350.131 c 0
 397.004 350.131 410.438 349.792 423.688 349.007 c 0
 457.668 349.007 497.527 337.118 530 314.576 c 0
 555.784 296.676 576.912 272.06 586.742 241.343 c 0
 595.761 214.284 599.826 189.214 599.826 166.278 c 0
 599.826 164.506 599.802 162.746 599.754 161 c 0
 599.118 137.917 594.81 118.45 586.787 99.999 c 1
EndSplineSet
Validated: 1
EndChar

StartChar: noon.isol
Encoding: 65588 -1 125
Width: 520
VWidth: 921
GlyphClass: 2
Flags: W
HStem: -183 96<198.769 319.398>
VStem: 60 104.082<-33.1089 233.926> 353.862 106.138<-36.2549 368.296>
AnchorPoint: "ring" 294 -177 basechar 0
AnchorPoint: "harakaBelow" 121 -205 basechar 0
AnchorPoint: "harakaAbove" 260 680 basechar 0
AnchorPoint: "dotAbove" 260 680 basechar 0
LayerCount: 2
Fore
SplineSet
460 16.9512 m 1
 453.229 -36.2549 l 2
 445.682 -66.7451 430.438 -101.908 401.323 -131.465 c 0
 363.703 -169.654 314.351 -183 262 -183 c 0
 208.393 -183 159.294 -170.778 119.465 -132.256 c 0
 96.4004 -109.947 79.1904 -78.542 67.7158 -36.9434 c 2
 60 17.0664 l 1
 60 203.988 l 6
 61.6758 216.14 64.0205 225.475 66.9248 234.332 c 5
 75.6748 251.952 90.5674 260 113 260 c 4
 139.746 260 151.175 247.657 158.12 234.205 c 5
 160.076 228.312 165.069 218.42 165 204.101 c 6
 164.082 14.4297 l 2
 164.617 9.35254 168.271 -16.4316 176.398 -34.3086 c 0
 190.217 -64.709 215.995 -87 258 -87 c 0
 294.779 -87 324.383 -69.7422 341.462 -34.6143 c 0
 345.757 -25.7822 350.479 -10.8359 353.862 13.9736 c 2
 353.983 326.501 l 2
 353.986 334.264 356.114 342.7 361.096 351.688 c 0
 370.732 369.074 386.033 377 408 377 c 0
 433.108 377 445.273 366.907 453.001 351.457 c 0
 455.35 346.76 456.095 346.601 460 325.6 c 1
 460 16.9512 l 1
EndSplineSet
EndChar

StartChar: noon.fina
Encoding: 65589 -1 126
Width: 568
VWidth: 921
GlyphClass: 2
Flags: W
HStem: -180 96<199.146 322.509> 0 100<461 568>
VStem: 61 105<17.4297 236.158> 355 106<100 359.009>
AnchorPoint: "ring" 294 -177 basechar 0
AnchorPoint: "harakaBelow" 120 -205 basechar 0
AnchorPoint: "harakaAbove" 260 680 basechar 0
AnchorPoint: "dotAbove" 260 680 basechar 0
LayerCount: 2
Fore
SplineSet
568 0 m 1
 460.441 0 l 1
 458.233 -12.3633 l 2
 453.458 -39.1055 445.439 -61.585 435.605 -81.2529 c 0
 421.305 -109.854 402.796 -132.222 377.481 -149.654 c 0
 346.603 -170.919 310.096 -180 262 -180 c 0
 200.708 -180 155.036 -163.742 120.461 -130.252 c 0
 96.4375 -106.981 79.2217 -74.5947 68.7324 -34.0615 c 2
 61 20.0664 l 1
 61 205.998 l 6
 62.8496 219.679 64.6641 228.936 67.6064 236.608 c 5
 74.2949 248.508 86.5117 262 114 262 c 4
 139.151 262 152.106 251.748 159.525 236.41 c 4
 162.019 231.256 165.087 211.693 166 205.821 c 5
 166 18.2129 l 1
 166.082 17.4297 l 2
 166.617 12.3525 169.168 -13.6152 177.448 -31.4219 c 0
 194.411 -67.9014 223.186 -84 258 -84 c 0
 300.565 -84 322.222 -62.7891 329.116 -55.0684 c 0
 345.746 -36.4443 355 -11.1846 355 17 c 2
 355 320.996 l 1
 355.602 322.986 356.521 324.515 357.379 327.761 c 0
 365.336 357.851 382.68 368 408 368 c 0
 423.923 368 441.771 364.436 453.345 339.8 c 0
 456.149 333.83 458.76 320.923 461 307.746 c 1
 461 100 l 1
 568 100 l 1
 568 0 l 1
EndSplineSet
EndChar

StartChar: heh.isol
Encoding: 65590 -1 127
Width: 472
VWidth: 921
GlyphClass: 2
Flags: W
HStem: 0 100<183.811 290.814> 256 100<183.474 289.04>
VStem: 60 99<123.544 230.195> 315 98<124.04 229.591>
AnchorPoint: "hamzaAbove" 236 682 basechar 0
AnchorPoint: "harakaBelow" 243 -205 basechar 0
AnchorPoint: "harakaAbove" 235 680 basechar 0
AnchorPoint: "dotAbove" 235 680 basechar 0
LayerCount: 2
Fore
SplineSet
60 177 m 0
 60 284.348 149.43 356 236 356 c 0
 323.214 356 413 283.855 413 177 c 0
 413 66.4365 318.66 0 236 0 c 0
 140.141 0 60 76.1504 60 177 c 0
315 177 m 0
 315 217.642 280.314 256 236 256 c 0
 205.692 256 159 230.586 159 177 c 0
 159 131.061 198.561 100 236 100 c 0
 280.431 100 315 134.968 315 177 c 0
EndSplineSet
EndChar

StartChar: heh.init
Encoding: 65591 -1 128
Width: 711
VWidth: 921
GlyphClass: 2
Flags: W
HStem: 0 100<0 80.7344 183.783 282.321 379.729 544.294> 257 95<180.154 287.591>
AnchorPoint: "harakaBelow" 243 -205 basechar 0
AnchorPoint: "harakaAbove" 260 780 basechar 0
LayerCount: 2
Fore
SplineSet
300.479 147.422 m 0
 303.573 153.834 305.759 161.245 308.85 182.879 c 2
 309.152 185 l 1
 308.85 187.121 l 2
 307.245 198.351 303.418 211.684 297.588 221.224 c 0
 283.681 243.98 264.407 257 234 257 c 0
 219.439 257 189.744 253.822 169.147 220.726 c 0
 165.466 214.81 163.968 210.567 158.384 186.373 c 2
 157.755 183.647 l 1
 158.15 180.879 l 2
 158.662 177.3 160.375 158.709 166.584 146.292 c 0
 174.458 130.544 192.75 103 232 103 c 4
 273.126 103 291.837 129.507 300.479 147.422 c 0
379.729 100 m 1
 544.294 100 l 1
 416.93 267.093 l 2
 412.36 273.088 405.059 274.787 398.312 271.427 c 0
 391.565 268.065 388.523 261.214 390.556 253.955 c 2
 397.436 229.448 l 2
 401.075 211.981 404.655 195.58 404.655 178.23 c 0
 404.655 160.985 401.117 142.803 390.584 121.708 c 2
 379.729 100 l 1
613.238 8.38867 m 0
 611.091 6.54785 602.351 0 582.197 0 c 2
 0 0 l 1
 0 100 l 1
 80.7344 100 l 1
 70.5029 136.826 l 2
 66.7881 151.685 65 166.332 65 180 c 0
 65 191.443 66.8838 202.602 68.8105 214.627 c 0
 70.7402 226.668 73.9219 236.43 77.8398 246.236 c 0
 88.2178 272.211 104.425 294.876 129.449 315.354 c 0
 146.038 328.93 162.964 337.052 179.852 342.811 c 0
 195.642 348.195 213.674 352 236 352 c 0
 260.771 352 287.917 346.477 316.429 335.073 c 0
 325.477 331.454 336.644 325.877 347.68 318.52 c 0
 354.062 314.265 361.674 315.137 366.928 320.725 c 0
 372.182 326.312 372.584 333.965 367.945 340.072 c 2
 249.173 496.456 l 1
 246.012 504.349 l 2
 242.217 514.787 241 521.625 241 526 c 0
 241 533.438 241.726 539.067 243.642 544.614 c 1
 248.369 552.499 253.627 558.096 259 562.075 c 0
 270.327 570.465 282.166 571.669 290.619 571.975 c 1
 299.449 570.16 304.472 569.036 309.666 565.537 c 0
 316.18 561.146 321.408 556.379 328.38 548.536 c 2
 625.339 149.888 l 2
 637.098 128.453 651 114.545 651 82 c 0
 651 32.2983 613.254 8.40226 613.238 8.38867 c 0
EndSplineSet
EndChar

StartChar: heh.medi
Encoding: 65592 -1 129
Width: 721
VWidth: 921
GlyphClass: 2
Flags: W
HStem: 0 100<0 80.7344 379.729 544.294 649.222 721> 0 108<177.34 289.05> 257 95<180.154 287.591>
VStem: 649 72<0 66.0215>
AnchorPoint: "harakaBelow" 243 -205 basechar 0
AnchorPoint: "harakaAbove" 260 780 basechar 0
LayerCount: 2
Fore
SplineSet
300.479 147.422 m 0x70
 303.573 153.834 305.759 161.245 308.85 182.879 c 2
 309.152 185 l 1
 308.85 187.121 l 2
 307.245 198.351 303.418 211.684 297.588 221.224 c 0
 283.681 243.98 264.407 257 234 257 c 0
 219.439 257 189.744 253.822 169.147 220.726 c 0
 165.466 214.81 163.968 210.567 158.384 186.373 c 2
 157.755 183.647 l 1
 158.15 180.879 l 2
 158.662 177.3 160.375 158.709 166.584 146.292 c 0
 174.458 130.544 192.75 108 232 108 c 0
 273.126 108 291.837 129.507 300.479 147.422 c 0x70
379.729 100 m 1xb0
 544.294 100 l 1
 416.93 267.093 l 2
 412.36 273.088 405.059 274.787 398.312 271.427 c 0
 391.565 268.065 388.523 261.214 390.556 253.955 c 2
 397.436 229.448 l 2
 401.075 211.981 404.655 195.58 404.655 178.23 c 0
 404.655 160.985 401.117 142.803 390.584 121.708 c 2
 379.729 100 l 1xb0
649.009 66.0215 m 1
 642.531 26.6211 613.252 8.40079 613.238 8.38867 c 0
 611.091 6.54785 602.351 0 582.197 0 c 2x70
 0 0 l 1
 0 100 l 1
 80.7344 100 l 1
 70.5029 136.826 l 2
 66.7881 151.685 65 166.332 65 180 c 0
 65 191.443 66.8838 202.602 68.8105 214.627 c 0
 70.7402 226.668 73.9219 236.43 77.8398 246.236 c 0
 88.2178 272.211 104.425 294.876 129.449 315.354 c 0
 146.038 328.93 162.964 337.052 179.852 342.811 c 0
 195.642 348.195 213.674 352 236 352 c 0
 260.771 352 287.917 346.477 316.429 335.073 c 0
 325.477 331.454 336.644 325.877 347.68 318.52 c 0
 354.062 314.265 361.674 315.137 366.928 320.725 c 0
 372.182 326.312 372.584 333.965 367.945 340.072 c 2
 249.173 496.456 l 1
 246.012 504.349 l 2
 242.217 514.787 241 521.625 241 526 c 0
 241 533.438 241.726 539.067 243.642 544.614 c 1
 248.369 552.499 253.627 558.096 259 562.075 c 0
 270.327 570.465 282.166 571.669 290.619 571.975 c 1
 299.449 570.16 304.472 569.036 309.666 565.537 c 0
 316.18 561.146 321.408 556.379 328.38 548.536 c 2
 625.339 149.888 l 2
 637.148 134.034 646.172 121.322 650 100 c 1
 721 100 l 1
 721 0 l 1xb0
 649 0 l 1x70
 649.009 66.0215 l 1
EndSplineSet
Validated: 33
EndChar

StartChar: heh.fina
Encoding: 65593 -1 130
Width: 475
VWidth: 921
GlyphClass: 2
Flags: W
HStem: 0 100<407.321 475> 25 88<176.172 281.623> 258 91.084<176.678 282.36>
VStem: 59.9893 95.0107<136.025 237.07> 303 104<134.157 237.493 332.488 421.982>
AnchorPoint: "hamzaAbove" 226 682 basechar 0
AnchorPoint: "harakaBelow" 243 -205 basechar 0
AnchorPoint: "harakaAbove" 226 680 basechar 0
AnchorPoint: "dotAbove" 226 680 basechar 0
LayerCount: 2
Fore
SplineSet
304 185 m 4x78
 304 205.041 296.77 219.854 283.064 235.104 c 4
 278.669 239.997 261.439 258 229 258 c 4
 220.578 258 195.192 255.429 176.935 237.104 c 4
 164.944 225.072 155 209.572 155 185 c 4
 155 165.66 162.587 149.463 174 137.359 c 4
 188.675 121.795 209.675 113 229 113 c 4
 254.435 113 275.294 125.48 288.5 142.483 c 4
 298.401 155.231 304 170.521 304 185 c 4x78
475 0 m 5xb8
 405.147 0 l 6xb8
 360.426 2.70183 333.5 36.5 327 58 c 5
 295.5 31.5 261.845 25 228 25 c 4x78
 206.089 25 183.95 28.5693 163.667 36.876 c 4
 142.298 45.6279 124.821 57.3916 110.606 71.6064 c 4
 95.7061 86.5068 83.0186 104.75 73.4121 124.695 c 4
 60.4873 151.527 61.2884 163.65 59.9893 188.395 c 4
 59.9893 206.445 63.4727 226.966 73.6016 248.691 c 4
 82.4297 267.626 93.5254 285.786 108.433 300.226 c 4
 123.038 314.371 141.097 325.744 162.345 335.414 c 4
 183.767 345.162 206.69 349.084 228.087 349.084 c 4
 248.63 349.084 267.765 345.469 282.814 339.925 c 6
 303 332.488 l 5
 303 391.593 l 5
 306.165 401.273 310.841 406.618 316.5 413.436 c 4
 326.808 425.854 340.5 433 354 433.323 c 4
 354.564 433.336 355.127 433.343 355.69 433.343 c 4
 369.734 433.343 383.622 429.042 394 415.139 c 4
 399.507 407.762 404.013 401.163 407 389.153 c 5
 407 120.738 l 5
 413.803 110.329 423.474 102.788 437.899 100 c 5
 475 100 l 5
 475 0 l 5xb8
EndSplineSet
Substitution2: "Dummy heh-1" heh.fina.dummy
EndChar

StartChar: waw.isol
Encoding: 65594 -1 131
Width: 470
VWidth: 921
GlyphClass: 2
Flags: W
HStem: 0 95<179.148 232.667> 248 98<177.888 285.864>
VStem: 59.9932 94.0068<119.794 224.332> 309 102<117.865 225.538>
AnchorPoint: "harakaBelow" 153 -300 basechar 0
AnchorPoint: "dotBleow" 153 -298 basechar 0
AnchorPoint: "ring" 328 -27 basechar 0
AnchorPoint: "harakaAbove" 229 680 basechar 0
AnchorPoint: "hamzaAbove" 230 680 basechar 0
LayerCount: 2
Fore
SplineSet
243 -158.648 m 0
 237 -167 231.261 -174.596 219 -177 c 0
 214.737 -177.836 210.478 -178.56 205.928 -178.56 c 0
 199.738 -178.56 193.009 -177.22 185 -173 c 0
 174.212 -167.315 164.667 -156.333 163 -147 c 0
 160.918 -135.343 161.369 -128.782 166.712 -116 c 0
 173.917 -98.763 192.08 -68.9863 232.667 0 c 1
 197.502 0 154.256 4.1311 115.146 40.0479 c 0
 67.4482 83.8535 59.9932 147.354 59.9932 170.688 c 0
 60.9697 194.126 62.3545 256.657 127.328 308.253 c 0
 158.812 333.256 195.188 346 236 346 c 0
 284.558 346 324.636 326.251 357.539 294.252 c 0
 392.588 260.166 411 221.097 411 173 c 0
 411 152.801 407.537 137.392 400.293 121.092 c 0
 377.477 69.7561 250.218 -148.6 243 -158.648 c 0
284.932 115.764 m 0
 289.068 119.332 309 137.986 309 171 c 0
 309 203.764 290.445 221.768 286.606 225.606 c 0
 271.207 241.007 253.843 248 232 248 c 0
 199.236 248 181.569 229.528 177.609 225.814 c 0
 161.613 210.812 154 193.009 154 171 c 0
 154 149.791 161.924 133.163 177.402 118.402 c 0
 181.355 114.632 198.986 95 232 95 c 0
 251.849 95 270.12 102.989 284.932 115.764 c 0
EndSplineSet
EndChar

StartChar: waw.fina
Encoding: 65595 -1 132
Width: 475
VWidth: 921
GlyphClass: 2
Flags: W
HStem: 0 100<173.913 232.667 390.919 475> 248 98<177.888 285.864>
VStem: 59.9932 94.0068<119.794 224.332> 309 102<117.316 225.538>
AnchorPoint: "dotBleow" 153 -298 basechar 0
AnchorPoint: "harakaBelow" 153 -300 basechar 0
AnchorPoint: "ring" 328 -27 basechar 0
AnchorPoint: "harakaAbove" 229 680 basechar 0
AnchorPoint: "hamzaAbove" 230 680 basechar 0
LayerCount: 2
Fore
SplineSet
475 100 m 1
 475 0 l 1
 335.234 0 l 1
 263.18 -127.894 253.258 -144.368 243 -158.648 c 0
 237 -167 231.261 -174.596 219 -177 c 0
 214.737 -177.836 210.478 -178.56 205.928 -178.56 c 0
 199.738 -178.56 193.009 -177.22 185 -173 c 0
 174.212 -167.315 164.667 -156.333 163 -147 c 0
 160.918 -135.343 161.369 -128.782 166.712 -116 c 0
 173.917 -98.763 192.08 -68.9863 232.667 0 c 1
 197.502 0 154.256 4.1311 115.146 40.0479 c 0
 67.4482 83.8535 59.9932 147.354 59.9932 170.688 c 0
 60.9697 194.126 62.3545 256.657 127.328 308.253 c 0
 158.812 333.256 195.188 346 236 346 c 0
 284.558 346 324.636 326.251 357.539 294.252 c 0
 392.588 260.166 411 221.097 411 173 c 0
 411 152.801 407.537 137.392 400.293 121.092 c 2
 390.919 100 l 1
 475 100 l 1
284.932 115.764 m 0
 289.068 119.332 309 137.986 309 171 c 0
 309 203.764 290.445 221.768 286.606 225.606 c 0
 271.207 241.007 253.843 248 232 248 c 0
 199.236 248 181.569 229.528 177.609 225.814 c 0
 161.613 210.812 154 193.009 154 171 c 0
 154 149.791 161.924 133.163 177.402 118.402 c 0
 181.355 114.632 198.986 95 232 95 c 0
 251.849 95 270.12 102.989 284.932 115.764 c 0
EndSplineSet
EndChar

StartChar: yeh.isol
Encoding: 65596 -1 133
Width: 876
VWidth: 921
GlyphClass: 2
Flags: W
HStem: 0 99<183.15 598.501> 245 98<195.732 271.794> 397 103<561.49 663.178>
VStem: 60 103<118.834 227.499> 438 103<274.804 376.576>
AnchorPoint: "harakaBelow" 160 -205 basechar 0
AnchorPoint: "harakaAbove" 209 780 basechar 0
AnchorPoint: "hamzaAbove" 210 680 basechar 0
AnchorPoint: "dotBleow" 430 -140 basechar 0
LayerCount: 2
Fore
SplineSet
806.289 369.572 m 1
 812.496 360.724 l 2
 817.338 353.821 819.333 346.864 819.411 338.985 c 0
 819.411 326.693 813.63 314.474 804.642 305.25 c 0
 797.336 297.751 787.91 292.231 777.75 290.261 c 0
 775.084 289.744 772.367 289.471 769.625 289.471 c 0
 760.442 289.471 750.971 292.53 742.152 299.711 c 2
 732.974 307.186 l 1
 663.559 374.626 l 1
 647.619 385.662 631.423 397 610 397 c 0
 600.172 397 592.32 394.683 585.429 391.927 c 0
 580.091 389.792 571.698 384.911 561.394 374.606 c 0
 554.215 367.428 549.18 359.899 545.584 352.708 c 0
 541.104 343.748 541 334.646 541 327 c 0
 541 313.02 544.926 300.622 550.399 291.865 c 2
 559.373 278.398 l 1
 768 72.7656 l 2
 776.784 61.6172 780.961 49.9535 780.961 39.3039 c 0
 780.961 17.3872 763.271 -0.235207 731.645 -0.235207 c 0
 729.641 -0.235207 727.581 -0.164445 725.466 -0.0195312 c 2
 233 0 l 2
 219.339 0.000976562 204.694 2.12988 187.826 6.50293 c 0
 154.296 15.1963 126.635 30.0166 104.945 53.2549 c 0
 75.3262 84.9883 60 126.749 60 184 c 0
 60 231.726 75.1211 268.077 104.175 294.979 c 0
 123.92 313.261 151.217 328.511 187.454 337.408 c 0
 205.517 341.843 221.508 343 233 343 c 2
 247.843 343 l 1
 259.869 341.115 267.581 339.095 271.799 336.845 c 0
 287.822 328.295 295 314.485 295 293 c 0
 295 274.035 288.001 260.486 271.981 250.672 c 0
 268.117 248.305 255.73 246.052 247.995 245 c 2
 240 245 l 2
 230.936 245 209.774 243.988 195.037 234.705 c 0
 182.507 226.812 163 210.558 163 174 c 0
 163 136.242 182.346 118.822 195.339 111.104 c 0
 207.755 103.73 223.322 99 241 99 c 2
 598.501 100 l 1
 482.999 214.178 l 2
 472.377 226.73 465.624 237.302 461.096 245.285 c 0
 454.451 256.999 448.228 271.436 444.37 284.298 c 0
 439.994 298.887 438 312.331 438 326 c 0
 438 345.723 442.788 365.979 449.876 383.304 c 0
 459.103 405.857 475.222 428.1 496.36 448.158 c 0
 511.854 462.859 529.737 477.898 555.91 489.219 c 0
 576.295 498.034 594.362 500 611 500 c 0
 631.816 500 652.543 496.174 673.655 486.414 c 0
 689.444 479.114 703.816 470.391 718.854 459.113 c 2
 736.775 444.961 l 1
 806.289 369.572 l 1
EndSplineSet
EndChar

StartChar: yeh.fina
Encoding: 65597 -1 134
Width: 1129
VWidth: 921
GlyphClass: 2
Flags: W
HStem: -0.235207 100.235<181.608 598.501 1056.16 1129> 245 98<195.732 271.794> 397 103<561.49 663.843>
VStem: 60 103<118.834 227.499> 438 103<274.804 376.576>
AnchorPoint: "harakaBelow" 160 -205 basechar 0
AnchorPoint: "harakaAbove" 209 780 basechar 0
AnchorPoint: "hamzaAbove" 210 680 basechar 0
AnchorPoint: "dotBleow" 430 -140 basechar 0
LayerCount: 2
Fore
SplineSet
718.854 459.113 m 2
 1053.04 124.711 l 1
 1070 109.667 1081.11 100 1109 100 c 2
 1129 100 l 1
 1129 0 l 1
 1070 0 l 2
 1049.08 0 1026.75 12.4157 1010.11 29.0576 c 2
 663.905 375.32 l 1
 647.965 386.356 631.423 397 610 397 c 0
 600.172 397 592.32 394.683 585.429 391.927 c 0
 580.091 389.792 571.698 384.911 561.394 374.606 c 0
 554.215 367.428 549.18 359.899 545.584 352.708 c 0
 541.104 343.748 541 334.646 541 327 c 0
 541 313.02 544.926 300.622 550.399 291.865 c 2
 559.373 278.398 l 1
 768 72.7656 l 2
 776.784 61.6172 780.961 49.9535 780.961 39.3039 c 0
 780.961 17.3872 763.271 -0.235207 731.645 -0.235207 c 0
 729.641 -0.235207 727.581 -0.164446 725.466 -0.0195312 c 2
 233 0 l 2
 219.339 0.000976562 204.694 2.12988 187.826 6.50293 c 0
 154.296 15.1963 126.635 30.0166 104.945 53.2549 c 0
 75.3262 84.9883 60 126.749 60 184 c 0
 60 231.726 75.1211 268.077 104.175 294.979 c 0
 123.92 313.261 151.217 328.511 187.454 337.408 c 0
 205.517 341.843 221.508 343 233 343 c 2
 247.843 343 l 1
 259.869 341.115 267.581 339.095 271.799 336.845 c 0
 287.822 328.295 295 314.485 295 293 c 0
 295 274.035 288.001 260.486 271.981 250.672 c 0
 268.117 248.305 255.73 246.052 247.995 245 c 2
 240 245 l 2
 230.936 245 209.774 243.988 195.037 234.705 c 0
 182.507 226.812 163 210.558 163 174 c 0
 163 136.242 182.346 118.822 195.339 111.104 c 0
 207.755 103.73 223.322 99 241 99 c 2
 598.501 100 l 1
 482.999 214.178 l 2
 472.377 226.73 465.624 237.302 461.096 245.285 c 0
 454.451 256.999 448.228 271.436 444.37 284.298 c 0
 439.994 298.887 438 312.331 438 326 c 0
 438 345.723 442.788 365.979 449.876 383.304 c 0
 459.103 405.857 475.222 428.1 496.36 448.158 c 0
 511.854 462.859 529.737 477.898 555.91 489.219 c 0
 576.295 498.034 594.362 500 611 500 c 0
 631.816 500 652.543 496.174 673.655 486.414 c 0
 689.444 479.114 705.567 472.407 718.854 459.113 c 2
EndSplineSet
Validated: 1
EndChar

StartChar: lam.init.lamAlif
Encoding: 65598 -1 135
Width: 250
VWidth: 921
GlyphClass: 2
Flags: HW
HStem: -205 97<-52.965 56.124>
VStem: -172.019 105.019<-83.1172 -25.4619 -25.4619 -10.2614> 73.4785 105.521<-90.268 651.819>
AnchorPoint: "harakaBelow" 170 -205 basechar 0
AnchorPoint: "harakaAbove" 122 780 basechar 0
LayerCount: 2
Fore
SplineSet
178 625.229 m 5
 178 -51.584 l 5
 169.865 -94.4229 165.019 -132.121 125.247 -165.615 c 4
 86.9248 -197.887 39.0576 -205 -3 -205 c 4
 -56.7949 -205 -95.792 -192.361 -124.648 -169.272 c 4
 -170.983 -132.2 -173.019 -83.6543 -173.019 -44.0186 c 4
 -173.019 -40.2002 -173 -36.4648 -173 -32.8311 c 6
 -172.182 -25.4619 l 5
 -170.527 -18.0186 l 6
 -167.207 -8.16406 -159.62 11 -120 11 c 4
 -95.7148 11 -81.1328 4.47363 -73.2803 -9.96875 c 4
 -69.9492 -16.0938 -66.9238 -29.8496 -68 -34.1533 c 5
 -68 -43 l 6
 -68 -57.4688 -64.4893 -72.125 -56.2402 -83.6602 c 4
 -44.3438 -100.297 -23.752 -108 -1 -108 c 4
 58.71 -108 72.4785 -67.2158 72.4785 -29.1836 c 4
 72.4785 -24.8945 72.3037 -20.6416 72 -16.4854 c 5
 71.9805 626.466 l 6
 72.9014 639.355 76.1562 647.62 78.3398 652.176 c 4
 86.1299 668.433 100.698 677 123 677 c 4
 144.966 677 160.312 669.602 169.708 652.055 c 4
 172.335 647.146 175.838 634.099 178 625.229 c 5
EndSplineSet
EndChar

StartChar: dotAbove
Encoding: 65620 -1 136
Width: 0
VWidth: 921
GlyphClass: 4
Flags: W
HStem: 0 107<-36.6671 41.9283>
VStem: -54 107<10.6337 89.9044>
AnchorPoint: "harakaAboveDot" 0 107 basemark 0
AnchorPoint: "dotAbove" 0 107 mark 0
LayerCount: 2
Fore
SplineSet
53 53 m 0
 53 38.1963 48.4414 25.8789 37.793 15.9922 c 2
 37.167 15.4102 l 1
 36.6113 14.7617 l 2
 32.0508 9.44141 21.9668 0 0 0 c 0
 -14.957 0 -26.793 5.00684 -37.3936 15.6064 c 0
 -48.1934 26.4062 -54 38.043 -54 53 c 0
 -54 67.8037 -47.8047 79.8418 -37.4004 90.4004 c 0
 -21.7949 106.239 -3.69531 107 0 107 c 0
 14.8027 107 26.9219 101.655 37.0078 90.793 c 0
 48.002 78.9541 53 67.0273 53 53 c 0
EndSplineSet
Validated: 1
EndChar

StartChar: dotBelow
Encoding: 65621 -1 137
Width: 0
VWidth: 921
GlyphClass: 4
Flags: W
HStem: 0 107<-36.6671 41.9283>
VStem: -54 107<10.6337 89.9044>
AnchorPoint: "dotBelow.alt" 0 53 mark 0
AnchorPoint: "harakaBelowDot" 0 0 basemark 0
AnchorPoint: "dotBleow" 0 53 mark 0
LayerCount: 2
Fore
SplineSet
53 53 m 0
 53 38.1963 48.4414 25.8789 37.793 15.9922 c 2
 37.167 15.4102 l 1
 36.6113 14.7617 l 2
 32.0508 9.44141 21.9668 0 0 0 c 0
 -14.957 0 -26.793 5.00684 -37.3936 15.6064 c 0
 -48.1934 26.4062 -54 38.043 -54 53 c 0
 -54 67.8037 -47.8047 79.8418 -37.4004 90.4004 c 0
 -21.7949 106.239 -3.69531 107 0 107 c 0
 14.8027 107 26.9219 101.655 37.0078 90.793 c 0
 48.002 78.9541 53 67.0273 53 53 c 0
EndSplineSet
EndChar

StartChar: twodotsAbove
Encoding: 65622 -1 138
Width: 0
VWidth: 921
GlyphClass: 4
Flags: W
HStem: 0 108<-131.328 -49.9373 45.7486 133.085>
VStem: -142 108<10.2089 91.6939> 34 110<11.7221 96.5351>
AnchorPoint: "harakaAboveDot" 0 107 basemark 0
AnchorPoint: "dotAbove" 0 107 mark 0
LayerCount: 2
Fore
SplineSet
-88 108 m 0
 -72.4824 108 -60.7285 103.11 -49.4062 92.2012 c 0
 -38.2041 81.4072 -34 68.7578 -34 53 c 0
 -34 38.1973 -38.5596 25.8789 -49.207 15.9922 c 2
 -49.833 15.4102 l 1
 -50.3887 14.7617 l 2
 -58.7861 4.96484 -71.9961 0 -88 0 c 0
 -103.357 0 -115.758 5.46191 -126.815 15.998 c 0
 -131.889 20.8311 -142 31.0332 -142 53 c 0
 -142 68.3574 -137.193 80.5938 -126.394 91.3936 c 0
 -115.394 102.394 -103.357 108 -88 108 c 0
90 108 m 0
 104.957 108 116.793 102.993 127.394 92.3936 c 0
 138.594 81.1934 144 68.7578 144 53 c 0
 144 38.8838 138.817 26.2285 127.793 15.9922 c 2
 127.167 15.4102 l 1
 126.611 14.7617 l 2
 122.051 9.44141 111.967 0 90 0 c 0
 74.6426 0 62.3818 5.61035 51.1846 15.998 c 0
 40.4648 25.9414 34 38.3555 34 53 c 0
 34 68.7578 40.207 80.9932 51.6064 92.3936 c 0
 54.292 95.0781 66.9639 108 90 108 c 0
EndSplineSet
Validated: 1
EndChar

StartChar: twodotsBelow
Encoding: 65623 -1 139
Width: 0
VWidth: 921
GlyphClass: 4
Flags: W
HStem: 0 108<-131.328 -49.9373 45.7486 133.085>
VStem: -142 108<10.2089 91.6939> 34 110<11.7221 96.5351>
AnchorPoint: "dotBelow.alt" 0 70 mark 0
AnchorPoint: "harakaBelowDot" 0 0 basemark 0
AnchorPoint: "dotBleow" 0 53 mark 0
LayerCount: 2
Fore
SplineSet
-88 108 m 0
 -72.4824 108 -60.7285 103.11 -49.4062 92.2012 c 0
 -38.2041 81.4072 -34 68.7578 -34 53 c 0
 -34 38.1973 -38.5596 25.8789 -49.207 15.9922 c 2
 -49.833 15.4102 l 1
 -50.3887 14.7617 l 2
 -58.7861 4.96484 -71.9961 0 -88 0 c 0
 -103.357 0 -115.758 5.46191 -126.815 15.998 c 0
 -131.889 20.8311 -142 31.0332 -142 53 c 0
 -142 68.3574 -137.193 80.5938 -126.394 91.3936 c 0
 -115.394 102.394 -103.357 108 -88 108 c 0
90 108 m 0
 104.957 108 116.793 102.993 127.394 92.3936 c 0
 138.594 81.1934 144 68.7578 144 53 c 0
 144 38.8838 138.817 26.2285 127.793 15.9922 c 2
 127.167 15.4102 l 1
 126.611 14.7617 l 2
 122.051 9.44141 111.967 0 90 0 c 0
 74.6426 0 62.3818 5.61035 51.1846 15.998 c 0
 40.4648 25.9414 34 38.3555 34 53 c 0
 34 68.7578 40.207 80.9932 51.6064 92.3936 c 0
 54.292 95.0781 66.9639 108 90 108 c 0
EndSplineSet
EndChar

StartChar: twodotsVAbove
Encoding: 65624 -1 140
Width: 0
VWidth: 921
GlyphClass: 4
Flags: W
HStem: 0 108<-36.5426 37.7033> 170.971 108.029<-36.7656 42.1613>
VStem: -53 107<12.1949 92.0626 186.131 268.113>
AnchorPoint: "dotAbove.alt" 0 142 mark 0
AnchorPoint: "harakaAboveDot" 0 280 basemark 0
AnchorPoint: "dotAbove" 0 280 mark 0
LayerCount: 2
Fore
SplineSet
54 224 m 0
 54 211.216 48.7617 199.378 37.2012 187.406 c 0
 26.9033 176.744 14.8027 171 0 171 c 0
 -0.548675 171 -1.38661 170.971 -2.46812 170.971 c 0
 -8.81107 170.971 -23.5324 171.965 -37.417 185.614 c 0
 -48.6299 196.638 -53 208.482 -53 224 c 0
 -53 247.036 -39.8057 259.83 -37.2012 262.594 c 0
 -27.0322 273.379 -14.8027 279 0 279 c 0
 15.3574 279 27.3936 273.394 38.3936 262.394 c 0
 41.0781 259.708 54 247.036 54 224 c 0
54 54 m 0
 54 41.2158 48.7598 29.3799 37.2012 17.4062 c 0
 26.7021 6.53125 14.8027 0 0 0 c 0
 -13.3789 0 -25.6602 4.87012 -37.4004 16.5996 c 0
 -48.8301 28.0176 -53 39.9727 -53 54 c 0
 -53 69.5176 -47.707 81.2715 -37.0078 92.793 c 0
 -27.1211 103.441 -14.8027 108 0 108 c 0
 15.3574 108 27.6055 103.594 38.2012 92.5938 c 0
 49.1084 81.2686 54 69.5176 54 54 c 0
EndSplineSet
EndChar

StartChar: twodotsVBelow
Encoding: 65625 -1 141
Width: 0
VWidth: 921
GlyphClass: 4
Flags: W
HStem: 0 108<-36.5426 37.7033> 170.971 108.029<-36.7656 42.1613>
VStem: -53 107<12.1949 92.0626 186.131 268.113>
AnchorPoint: "harakaBelowDot" 0 0 basemark 0
AnchorPoint: "dotBleow" 0 224 mark 0
LayerCount: 2
Fore
SplineSet
54 224 m 0
 54 211.216 48.7617 199.378 37.2012 187.406 c 0
 26.9033 176.744 14.8027 171 0 171 c 0
 -0.548675 171 -1.38661 170.971 -2.46812 170.971 c 0
 -8.81107 170.971 -23.5324 171.965 -37.417 185.614 c 0
 -48.6299 196.638 -53 208.482 -53 224 c 0
 -53 247.036 -39.8057 259.83 -37.2012 262.594 c 0
 -27.0322 273.379 -14.8027 279 0 279 c 0
 15.3574 279 27.3936 273.394 38.3936 262.394 c 0
 41.0781 259.708 54 247.036 54 224 c 0
54 54 m 0
 54 41.2158 48.7598 29.3799 37.2012 17.4062 c 0
 26.7021 6.53125 14.8027 0 0 0 c 0
 -13.3789 0 -25.6602 4.87012 -37.4004 16.5996 c 0
 -48.8301 28.0176 -53 39.9727 -53 54 c 0
 -53 69.5176 -47.707 81.2715 -37.0078 92.793 c 0
 -27.1211 103.441 -14.8027 108 0 108 c 0
 15.3574 108 27.6055 103.594 38.2012 92.5938 c 0
 49.1084 81.2686 54 69.5176 54 54 c 0
EndSplineSet
EndChar

StartChar: threedotsAbove
Encoding: 65626 -1 142
Width: 0
VWidth: 921
GlyphClass: 4
Flags: W
HStem: 0 110<-128.221 -47.1137 48.4751 124.703> 150 110<-43.776 40.7568>
VStem: -140 109<10.9784 93.8768> -56 110<160.978 246.584> 32 109<15.7575 94.0525>
AnchorPoint: "dotAbove.alt" 0 142 mark 0
AnchorPoint: "harakaAboveDot" 0 260 basemark 0
AnchorPoint: "dotAbove" 0 260 mark 0
LayerCount: 2
Fore
SplineSet
54 205 m 0xd0
 54 190.379 47.999 178.293 36.8359 166.016 c 0
 31.9082 160.596 21.5986 150 -1 150 c 0
 -16.3574 150 -28.5938 154.807 -39.3936 165.606 c 0
 -50.5938 176.807 -56 189.242 -56 205 c 0
 -56 219.116 -50.4209 231.757 -39.5938 242.201 c 0
 -28.1934 253.197 -16.3574 260 -1 260 c 0
 12.4824 260 25.459 253.343 36.4004 242.4 c 0
 47.3457 231.456 54 218.489 54 205 c 0xd0
141 55 m 0xc8
 141 40.9844 136.026 29.043 125.021 17.2207 c 0
 114.515 5.93359 102.214 0 87 0 c 0
 71.3965 0 58.249 4.16016 47.9922 15.207 c 0
 37.0938 26.9434 32 39.083 32 55 c 0
 32 69.0156 37.5742 81.1064 48.3164 93.167 c 0
 53.2334 98.6875 63.9854 110 87 110 c 0
 102.357 110 114.607 105.596 125.201 94.5938 c 0
 136.31 83.0547 141 70.917 141 55 c 0xc8
-31 55 m 0xe0
 -31 39.7969 -35.7529 27.0752 -46.4062 16.7988 c 0
 -57.6035 6 -69.6426 0 -85 0 c 0
 -100.357 0 -112.594 4.80664 -123.394 15.6064 c 0
 -134.594 26.8066 -140 39.2422 -140 55 c 0
 -140 69.0156 -134.426 81.1055 -123.684 93.167 c 0
 -118.767 98.6875 -108.015 110 -85 110 c 0
 -69.6426 110 -57.4062 105.193 -46.6064 94.3936 c 0
 -35.6064 83.3936 -31 70.7578 -31 55 c 0xe0
EndSplineSet
EndChar

StartChar: threedotsBelow
Encoding: 65627 -1 143
Width: 0
VWidth: 921
GlyphClass: 4
Flags: W
HStem: 0 110<-128.221 -47.1137 48.4751 124.703> 150 110<-43.776 40.7568>
VStem: -140 109<10.9784 93.8768> -56 110<160.978 246.584> 32 109<15.7575 94.0525>
AnchorPoint: "harakaBelowDot" 0 0 basemark 0
AnchorPoint: "dotBleow" 0 205 mark 0
LayerCount: 2
Fore
SplineSet
54 205 m 0xd0
 54 190.379 47.999 178.293 36.8359 166.016 c 0
 31.9082 160.596 21.5986 150 -1 150 c 0
 -16.3574 150 -28.5938 154.807 -39.3936 165.606 c 0
 -50.5938 176.807 -56 189.242 -56 205 c 0
 -56 219.116 -50.4209 231.757 -39.5938 242.201 c 0
 -28.1934 253.197 -16.3574 260 -1 260 c 0
 12.4824 260 25.459 253.343 36.4004 242.4 c 0
 47.3457 231.456 54 218.489 54 205 c 0xd0
141 55 m 0xc8
 141 40.9844 136.026 29.043 125.021 17.2207 c 0
 114.515 5.93359 102.214 0 87 0 c 0
 71.3965 0 58.249 4.16016 47.9922 15.207 c 0
 37.0938 26.9434 32 39.083 32 55 c 0
 32 69.0156 37.5742 81.1064 48.3164 93.167 c 0
 53.2334 98.6875 63.9854 110 87 110 c 0
 102.357 110 114.607 105.596 125.201 94.5938 c 0
 136.31 83.0547 141 70.917 141 55 c 0xc8
-31 55 m 0xe0
 -31 39.7969 -35.7529 27.0752 -46.4062 16.7988 c 0
 -57.6035 6 -69.6426 0 -85 0 c 0
 -100.357 0 -112.594 4.80664 -123.394 15.6064 c 0
 -134.594 26.8066 -140 39.2422 -140 55 c 0
 -140 69.0156 -134.426 81.1055 -123.684 93.167 c 0
 -118.767 98.6875 -108.015 110 -85 110 c 0
 -69.6426 110 -57.4062 105.193 -46.6064 94.3936 c 0
 -35.6064 83.3936 -31 70.7578 -31 55 c 0xe0
EndSplineSet
EndChar

StartChar: threedotsIAbove
Encoding: 65628 -1 144
Width: 0
VWidth: 921
GlyphClass: 4
Flags: W
HStem: 0 110<-42.776 41.7568> 150 110<-128.221 -47.1137 48.4751 124.703>
VStem: -140 109<166.123 249.022> -55 110<13.4159 99.0214> 32 109<165.947 244.243>
AnchorPoint: "dotAbove.alt" 0 142 mark 0
AnchorPoint: "harakaAboveDot" 0 260 basemark 0
AnchorPoint: "dotAbove" 0 260 mark 0
LayerCount: 2
Fore
SplineSet
55 55 m 0xd0
 55 41.5107 48.3457 28.5439 37.4004 17.5996 c 0
 26.459 6.65723 13.4824 0 0 0 c 0
 -15.3574 0 -27.1934 6.80273 -38.5938 17.7988 c 0
 -49.4209 28.2432 -55 40.8838 -55 55 c 0
 -55 70.7578 -49.5938 83.1934 -38.3936 94.3936 c 0
 -27.5938 105.193 -15.3574 110 0 110 c 0
 22.5986 110 32.9082 99.4043 37.8359 93.9844 c 0
 48.999 81.707 55 69.6211 55 55 c 0xd0
141 205 m 0xc8
 141 189.083 136.31 176.945 125.201 165.406 c 0
 114.607 154.404 102.357 150 87 150 c 0
 63.9854 150 53.2334 161.312 48.3164 166.833 c 0
 37.5742 178.894 32 190.984 32 205 c 0
 32 220.917 37.0938 233.057 47.9922 244.793 c 0
 58.249 255.84 71.3965 260 87 260 c 0
 102.214 260 114.515 254.066 125.021 242.779 c 0
 136.026 230.957 141 219.016 141 205 c 0xc8
-31 205 m 0xe0
 -31 189.242 -35.6064 176.606 -46.6064 165.606 c 0
 -57.4062 154.807 -69.6426 150 -85 150 c 0
 -108.015 150 -118.767 161.312 -123.684 166.833 c 0
 -134.426 178.895 -140 190.984 -140 205 c 0
 -140 220.758 -134.594 233.193 -123.394 244.394 c 0
 -112.594 255.193 -100.357 260 -85 260 c 0
 -69.6426 260 -57.6035 254 -46.4062 243.201 c 0
 -35.7529 232.925 -31 220.203 -31 205 c 0xe0
EndSplineSet
EndChar

StartChar: threedotsIBelow
Encoding: 65629 -1 145
Width: 0
VWidth: 921
GlyphClass: 4
Flags: W
HStem: 0 110<-42.776 41.7568> 150 110<-128.221 -47.1137 48.4751 124.703>
VStem: -140 109<166.123 249.022> -55 110<13.4159 99.0214> 32 109<165.947 244.243>
AnchorPoint: "harakaBelowDot" 0 0 basemark 0
AnchorPoint: "dotBleow" 0 205 mark 0
LayerCount: 2
Fore
SplineSet
55 55 m 0xd0
 55 41.5107 48.3457 28.5439 37.4004 17.5996 c 0
 26.459 6.65723 13.4824 0 0 0 c 0
 -15.3574 0 -27.1934 6.80273 -38.5938 17.7988 c 0
 -49.4209 28.2432 -55 40.8838 -55 55 c 0
 -55 70.7578 -49.5938 83.1934 -38.3936 94.3936 c 0
 -27.5938 105.193 -15.3574 110 0 110 c 0
 22.5986 110 32.9082 99.4043 37.8359 93.9844 c 0
 48.999 81.707 55 69.6211 55 55 c 0xd0
141 205 m 0xc8
 141 189.083 136.31 176.945 125.201 165.406 c 0
 114.607 154.404 102.357 150 87 150 c 0
 63.9854 150 53.2334 161.312 48.3164 166.833 c 0
 37.5742 178.894 32 190.984 32 205 c 0
 32 220.917 37.0938 233.057 47.9922 244.793 c 0
 58.249 255.84 71.3965 260 87 260 c 0
 102.214 260 114.515 254.066 125.021 242.779 c 0
 136.026 230.957 141 219.016 141 205 c 0xc8
-31 205 m 0xe0
 -31 189.242 -35.6064 176.606 -46.6064 165.606 c 0
 -57.4062 154.807 -69.6426 150 -85 150 c 0
 -108.015 150 -118.767 161.312 -123.684 166.833 c 0
 -134.426 178.895 -140 190.984 -140 205 c 0
 -140 220.758 -134.594 233.193 -123.394 244.394 c 0
 -112.594 255.193 -100.357 260 -85 260 c 0
 -69.6426 260 -57.6035 254 -46.4062 243.201 c 0
 -35.7529 232.925 -31 220.203 -31 205 c 0xe0
EndSplineSet
EndChar

StartChar: fourdotsAbove
Encoding: 65630 -1 146
Width: 0
VWidth: 921
GlyphClass: 4
Flags: W
HStem: 0 108<-131.328 -49.9373 45.7486 133.085> 170 108<-131.328 -49.9373 45.7486 133.085>
VStem: -142 108<10.2089 91.6939 180.209 261.694> 34 110<11.7221 96.5351 181.722 266.535>
AnchorPoint: "dotAbove.alt" 0 142 mark 0
AnchorPoint: "harakaAboveDot" 0 277 basemark 0
AnchorPoint: "dotAbove" 0 277 mark 0
LayerCount: 2
Fore
SplineSet
-88 278 m 0
 -72.4824 278 -60.7285 273.11 -49.4062 262.201 c 0
 -38.2041 251.407 -34 238.758 -34 223 c 0
 -34 208.197 -38.5596 195.879 -49.207 185.992 c 2
 -49.833 185.41 l 1
 -50.3887 184.762 l 2
 -58.7861 174.965 -71.9961 170 -88 170 c 0
 -103.357 170 -115.758 175.462 -126.815 185.998 c 0
 -131.889 190.831 -142 201.033 -142 223 c 0
 -142 238.357 -137.193 250.594 -126.394 261.394 c 0
 -115.394 272.394 -103.357 278 -88 278 c 0
90 278 m 0
 104.957 278 116.793 272.993 127.394 262.394 c 0
 138.594 251.193 144 238.758 144 223 c 0
 144 208.884 138.817 196.229 127.793 185.992 c 2
 127.167 185.41 l 1
 126.611 184.762 l 2
 122.051 179.441 111.967 170 90 170 c 0
 74.6426 170 62.3818 175.61 51.1846 185.998 c 0
 40.4648 195.941 34 208.355 34 223 c 0
 34 238.758 40.207 250.993 51.6064 262.394 c 0
 54.292 265.078 66.9639 278 90 278 c 0
-88 108 m 0
 -72.4824 108 -60.7285 103.11 -49.4062 92.2012 c 0
 -38.2041 81.4072 -34 68.7578 -34 53 c 0
 -34 38.1973 -38.5596 25.8789 -49.207 15.9922 c 2
 -49.833 15.4102 l 1
 -50.3887 14.7617 l 2
 -58.7861 4.96484 -71.9961 0 -88 0 c 0
 -103.357 0 -115.758 5.46191 -126.815 15.998 c 0
 -131.889 20.8311 -142 31.0332 -142 53 c 0
 -142 68.3574 -137.193 80.5938 -126.394 91.3936 c 0
 -115.394 102.394 -103.357 108 -88 108 c 0
90 108 m 0
 104.957 108 116.793 102.993 127.394 92.3936 c 0
 138.594 81.1934 144 68.7578 144 53 c 0
 144 38.8838 138.817 26.2285 127.793 15.9922 c 2
 127.167 15.4102 l 1
 126.611 14.7617 l 2
 122.051 9.44141 111.967 0 90 0 c 0
 74.6426 0 62.3818 5.61035 51.1846 15.998 c 0
 40.4648 25.9414 34 38.3555 34 53 c 0
 34 68.7578 40.207 80.9932 51.6064 92.3936 c 0
 54.292 95.0781 66.9639 108 90 108 c 0
EndSplineSet
EndChar

StartChar: fourdotsBelow
Encoding: 65631 -1 147
Width: 0
VWidth: 921
GlyphClass: 4
Flags: W
HStem: 0 108<-131.328 -49.9373 45.7486 133.085> 170 108<-131.328 -49.9373 45.7486 133.085>
VStem: -142 108<10.2089 91.6939 180.209 261.694> 34 110<11.7221 96.5351 181.722 266.535>
AnchorPoint: "harakaBelowDot" 0 0 basemark 0
AnchorPoint: "dotBleow" 0 223 mark 0
LayerCount: 2
Fore
SplineSet
-88 278 m 0
 -72.4824 278 -60.7285 273.11 -49.4062 262.201 c 0
 -38.2041 251.407 -34 238.758 -34 223 c 0
 -34 208.197 -38.5596 195.879 -49.207 185.992 c 2
 -49.833 185.41 l 1
 -50.3887 184.762 l 2
 -58.7861 174.965 -71.9961 170 -88 170 c 0
 -103.357 170 -115.758 175.462 -126.815 185.998 c 0
 -131.889 190.831 -142 201.033 -142 223 c 0
 -142 238.357 -137.193 250.594 -126.394 261.394 c 0
 -115.394 272.394 -103.357 278 -88 278 c 0
90 278 m 0
 104.957 278 116.793 272.993 127.394 262.394 c 0
 138.594 251.193 144 238.758 144 223 c 0
 144 208.884 138.817 196.229 127.793 185.992 c 2
 127.167 185.41 l 1
 126.611 184.762 l 2
 122.051 179.441 111.967 170 90 170 c 0
 74.6426 170 62.3818 175.61 51.1846 185.998 c 0
 40.4648 195.941 34 208.355 34 223 c 0
 34 238.758 40.207 250.993 51.6064 262.394 c 0
 54.292 265.078 66.9639 278 90 278 c 0
-88 108 m 0
 -72.4824 108 -60.7285 103.11 -49.4062 92.2012 c 0
 -38.2041 81.4072 -34 68.7578 -34 53 c 0
 -34 38.1973 -38.5596 25.8789 -49.207 15.9922 c 2
 -49.833 15.4102 l 1
 -50.3887 14.7617 l 2
 -58.7861 4.96484 -71.9961 0 -88 0 c 0
 -103.357 0 -115.758 5.46191 -126.815 15.998 c 0
 -131.889 20.8311 -142 31.0332 -142 53 c 0
 -142 68.3574 -137.193 80.5938 -126.394 91.3936 c 0
 -115.394 102.394 -103.357 108 -88 108 c 0
90 108 m 0
 104.957 108 116.793 102.993 127.394 92.3936 c 0
 138.594 81.1934 144 68.7578 144 53 c 0
 144 38.8838 138.817 26.2285 127.793 15.9922 c 2
 127.167 15.4102 l 1
 126.611 14.7617 l 2
 122.051 9.44141 111.967 0 90 0 c 0
 74.6426 0 62.3818 5.61035 51.1846 15.998 c 0
 40.4648 25.9414 34 38.3555 34 53 c 0
 34 68.7578 40.207 80.9932 51.6064 92.3936 c 0
 54.292 95.0781 66.9639 108 90 108 c 0
EndSplineSet
EndChar

StartChar: hamzaAbove
Encoding: 65640 -1 148
Width: 0
VWidth: 921
GlyphClass: 4
Flags: W
HStem: -0.00292969 61.0029<-111.579 -70.2324 -19.8855 111.782> 149 57.572<-23.1831 49.4801>
VStem: -84.3252 56.4385<72.5847 145.042>
AnchorPoint: "harakaAboveDot" -0.49707 206 basemark 0
AnchorPoint: "hamzaAbove" -0.49707 206 mark 0
LayerCount: 2
Fore
SplineSet
112.503 30 m 0
 112.503 4.62109 98.4922 -0.00683594 82.3184 -0.00683594 c 2
 -70.3721 -0.00292969 l 2
 -91.9902 1.07715 -112.503 2.33203 -112.503 30.7734 c 0
 -112.503 60.9834 -83.3857 60.0059 -70.2324 60.6514 c 1
 -78.9062 77.999 l 2
 -82.5566 87.7998 -84.3252 98.1074 -84.3252 108.476 c 0
 -84.3252 138.862 -69.1318 169.764 -41.5811 189.939 c 0
 -30.5059 198.05 -10.6357 205.581 11.5029 206.482 c 0
 12.9648 206.542 14.4365 206.572 15.916 206.572 c 0
 49.4473 206.572 87.0928 190.834 106.997 139.09 c 1
 106.685 114.646 93.7158 106.231 80.0576 106.231 c 0
 71.5635 106.231 63.6426 109.5 58.6348 113.49 c 0
 43.3828 133.92 44.4053 149 12.5029 149 c 0
 -16.4893 149 -27.8867 125.948 -27.8867 105.12 c 0
 -27.8867 89.4482 -21.9697 80.9629 -20.4971 79 c 0
 -7.46875 61.6289 6.78613 62.6338 11.6914 61 c 1
 82.3604 61.0039 l 2
 100.013 61.0049 112.503 54.8066 112.503 30 c 0
EndSplineSet
EndChar

StartChar: hamzaBelow
Encoding: 65641 -1 149
Width: 0
VWidth: 921
GlyphClass: 4
Flags: W
HStem: -0.00292969 61.0029<-111.579 -70.2324 -19.8855 111.782> 149 57.572<-23.1831 49.4801>
VStem: -84.3252 56.4385<72.5847 145.042>
AnchorPoint: "harakaBelowDot" -0.49707 0 basemark 0
AnchorPoint: "hamzaBelow" -0.49707 30 mark 0
LayerCount: 2
Fore
SplineSet
112.503 30 m 0
 112.503 4.62109 98.4922 -0.00683594 82.3184 -0.00683594 c 2
 -70.3721 -0.00292969 l 2
 -91.9902 1.07715 -112.503 2.33203 -112.503 30.7734 c 0
 -112.503 60.9834 -83.3857 60.0059 -70.2324 60.6514 c 1
 -78.9062 77.999 l 2
 -82.5566 87.7998 -84.3252 98.1074 -84.3252 108.476 c 0
 -84.3252 138.862 -69.1318 169.764 -41.5811 189.939 c 0
 -30.5059 198.05 -10.6357 205.581 11.5029 206.482 c 0
 12.9648 206.542 14.4365 206.572 15.916 206.572 c 0
 49.4473 206.572 87.0928 190.834 106.997 139.09 c 1
 106.685 114.646 93.7158 106.231 80.0576 106.231 c 0
 71.5635 106.231 63.6426 109.5 58.6348 113.49 c 0
 43.3828 133.92 44.4053 149 12.5029 149 c 0
 -16.4893 149 -27.8867 125.948 -27.8867 105.12 c 0
 -27.8867 89.4482 -21.9697 80.9629 -20.4971 79 c 0
 -7.46875 61.6289 6.78613 62.6338 11.6914 61 c 1
 82.3604 61.0039 l 2
 100.013 61.0049 112.503 54.8066 112.503 30 c 0
EndSplineSet
EndChar

StartChar: NameMe.65642
Encoding: 65642 -1 150
Width: 527
VWidth: 921
Flags: W
HStem: 0 101<235.506 424.721> 279 93<233.248 340.955>
VStem: 112.728 91.994<130.964 250.816>
AnchorPoint: "harakaBelow" 292 -110 basechar 0
AnchorPoint: "harakaAbove" 288 522 basechar 0
LayerCount: 2
Fore
SplineSet
467 53 m 0
 467 31.2393 460.702 17.2578 443.681 6.70703 c 1
 437.719 4.74023 427.91 1.67188 416.901 0 c 1
 116.939 0 l 2
 101.821 1.91211 92.1846 3.58691 86.8232 6.35742 c 0
 68.0957 16.0371 60 31.5488 60 53 c 0
 60 67.4912 63.0947 84.4434 85.7588 94.1592 c 0
 97.9023 99.3652 114.544 100.701 117.86 101.116 c 2
 138.897 103.745 l 1
 119.846 141.85 l 2
 117.378 149.003 112.728 166.853 112.728 190.804 c 0
 112.728 220.554 119.903 259.717 147.347 299.482 c 0
 196.658 370.931 271.534 372 297 372 c 0
 343.807 372 386.535 344.132 407.235 322.557 c 0
 415.391 314.057 426.988 299.524 440.361 272.778 c 0
 444.991 259.342 452.796 249.08 454.037 232.254 c 0
 454.037 222.938 451.705 215.951 448.584 209.708 c 0
 444.713 201.967 436.662 194.303 422.443 189.284 c 0
 415.093 187.05 407.565 184.994 398.958 184.017 c 1
 358.965 185.255 365.533 236.031 336.997 261.365 c 2
 336.271 261.988 l 2
 329.534 269.067 315.286 279 286 279 c 0
 261.484 279 241.313 267.851 224.711 248.878 c 2
 224.064 248.138 l 1
 223.52 247.32 l 2
 210.618 227.968 204.722 207.94 204.722 189.097 c 0
 204.722 152.908 226.47 121.092 262.099 106.841 c 2
 279.768 101.609 l 1
 281.84 101 l 1
 416.759 101 l 1
 433.534 98.2041 l 2
 439.485 97.2119 441.521 96.4688 443.292 95.584 c 0
 457.691 88.3838 467 76.5381 467 53 c 0
EndSplineSet
EndChar

StartChar: hamzaKaf
Encoding: 65643 -1 151
Width: 0
VWidth: 921
GlyphClass: 4
Flags: W
HStem: 0 42<-86 59.9062> 74 40<-50 67.8826> 148 46<-50 63>
VStem: -101 42<114.423 146.846> 68 41<43.4739 73.5232>
AnchorPoint: "hamzaKaf" 0 0 mark 0
LayerCount: 2
Fore
SplineSet
109 62 m 0
 109 37 99 20 80 9 c 0
 74 6 64.5 0.5 50 0 c 1
 -74 0 l 2
 -78 0 -82 1 -86 2 c 0
 -94 6 -98 12 -98 22 c 0
 -98 30 -94 36 -86 40 c 1
 -74 42 l 1
 52 42 l 2
 56 42 58 43 60 44 c 0
 66 48 68 52 68 58 c 0
 68 66 64 70 57 74 c 1
 52 74 l 1
 -47 74 l 2
 -60 76 -68 79 -75 83 c 0
 -94 94 -101 111 -101 136 c 0
 -101 158 -92 175 -74 185 c 0
 -69 188 -62 190 -48 194 c 1
 63 194 l 2
 70 192 76 191 79 189 c 0
 84 186 87 180 87 172 c 0
 87 164 83 158 75 152 c 1
 63 148 l 1
 -40 148 l 1
 -50 146 l 1
 -56 143 -59 137 -59 131 c 0
 -59 124 -56 121 -50 117 c 1
 -40 114 l 1
 50 114 l 2
 57 114 62 114 66 114 c 0
 70 113 74 112 80 109 c 0
 99 101 109 85 109 62 c 0
EndSplineSet
Validated: 1
EndChar

StartChar: maddah
Encoding: 65644 -1 152
Width: 0
GlyphClass: 4
Flags: W
HStem: 582.75 53.533<-4.79171 111.189> 622.25 50.845<-108.754 -9.57839>
AnchorPoint: "hamzaAbove" -1.5 699 mark 0
LayerCount: 2
Fore
SplineSet
-54.4209 622.244 m 0x80
 -55.0818 622.25 l 0
 -70.544 622.25 -90.2545 612.185 -106.954 601.385 c 0
 -126.283 588.884 -141.577 575.401 -141.579 575.4 c 0
 -145.997 572.365 -149.748 571.314 -154.192 571.314 c 0
 -155.087 571.314 -156.01 571.356 -156.972 571.434 c 0
 -164 572 -170 574.5 -174.608 583.982 c 0
 -176.307 587.478 -176.986 591.115 -176.986 594.646 c 0
 -176.986 597.683 -176.484 600.642 -175.696 603.367 c 0
 -174.756 606.62 -171.345 614.807 -164.662 619.87 c 0
 -155.184 628.788 -146.023 636.346 -137.201 642.711 c 0
 -121.52 654.025 -106.898 661.577 -93.4229 666.323 c 0
 -79.6383 671.178 -67.0541 673.095 -55.7638 673.095 c 0x40
 -53.6798 673.095 -51.6398 673.029 -49.6445 672.905 c 0
 -11.8496 670.553 9.91699 647.07 11.6436 646.103 c 0
 23.6441 639.381 36.0099 636.283 48.6139 636.283 c 0
 52.5858 636.283 56.5814 636.59 60.5967 637.189 c 0
 78.626 639.882 97.0518 648.448 115.518 661.409 c 0
 129.021 670.884 135.922 678.846 139.396 680.773 c 0
 143.726 683.747 148.915 685.225 153.776 685.225 c 0
 154.872 685.225 155.951 685.15 157 685 c 0
 164 684 167.3 681.535 171 677 c 0
 174.791 672.351 175.293 668.284 175.293 661.131 c 0
 175.293 661.129 175.293 661.123 175.293 661.121 c 0
 175.293 661.117 175.293 661.112 175.293 661.107 c 0
 175.293 656.544 174.787 652.265 171.667 647.097 c 0
 169.753 643.924 166.852 640.417 162.479 636.304 c 0
 157.075 631.218 149.423 625.208 138.6 617.759 c 0
 121.603 605.594 105.937 597.255 91.6387 591.778 c 0
 74.4762 585.204 59.2838 582.75 46.1258 582.75 c 0
 43.0077 582.75 40.0039 582.888 37.1152 583.141 c 0
 17.8516 584.827 3.70703 591.651 -5.07129 597.021 c 0
 -17.627 604.702 -28.1543 621.747 -54.4209 622.244 c 0x80
EndSplineSet
Validated: 1
EndChar

StartChar: alif.fina.short.lamAlif
Encoding: 65600 -1 161
Width: 203
VWidth: 921
GlyphClass: 2
Flags: W
VStem: 25.998 107.002<75.7344 415.784>
AnchorPoint: "harakaBelow" 80 -205 basechar 0
AnchorPoint: "harakaAbove" 80 780 basechar 0
AnchorPoint: "hamzaAbove" 82 690 basechar 0
LayerCount: 2
Fore
SplineSet
133 114 m 2
 133 96.4824 128.586 87.665 126.183 81.8311 c 0
 119.732 66.1729 108.044 54 81 54 c 0
 58.0723 54 42.8994 61.0322 33.6533 75.4424 c 1
 31.5146 81.6504 28.21 89.2236 27 101.958 c 2
 25.998 112.5 l 1
 25.0059 385.624 l 1
 27.9404 401.025 30.7227 410.718 33.4746 416.41 c 0
 42.0684 434.184 58.2051 443 81 443 c 0
 101.383 443 115.497 434.544 124.723 416.043 c 0
 127.402 410.667 130.899 395.073 133 385.376 c 1
 133 114 l 2
EndSplineSet
EndChar

StartChar: alif.fina.lamAlif.alt
Encoding: 65601 -1 162
Width: 201
VWidth: 921
GlyphClass: 2
Flags: W
VStem: 25 106.015<311.976 615.042 615.042 662.352>
AnchorPoint: "harakaBelow" 77 -205 basechar 0
AnchorPoint: "hamzaBelow" 78 79 basechar 0
LayerCount: 2
Fore
SplineSet
131.015 348.468 m 2
 131.015 334.975 128.24 325.16 124.219 315.91 c 0
 118.157 301.97 106.219 289 79 289 c 0
 55.0918 289 40.1953 297.188 31.8115 311.774 c 0
 29.4395 315.903 26.1787 330.958 25 337.375 c 1
 25 614.989 l 2
 25 629.872 29.751 638.96 32.416 644.292 c 0
 39.375 658.209 51.0498 671 79 671 c 0
 106.351 671 117.683 658.094 124.584 644.292 c 0
 127.065 639.327 130.044 620.602 131 614.759 c 1
 131.015 348.468 l 2
EndSplineSet
EndChar

StartChar: jeem.isol
Encoding: 65602 -1 163
Width: 650
VWidth: 921
Flags: W
HStem: -207 75<257.86 378.428> -207 100<164.579 254.787 341.648 468.096> -99.4004 114.4<276.289 353.711> 0 98<181.055 257.562 393.891 401.181> 44 54<257.562 352.466> 254 100<87.7864 402.432>
VStem: 60 94.987<-91.7594 -8.12806> 259.1 111.8<-81.2169 -3.18352> 423 104<120.654 233.055>
AnchorPoint: "harakaBelow" 169 -270 basechar 0
AnchorPoint: "harakaAbove" 319 780 basechar 0
LayerCount: 2
Fore
SplineSet
591 51 m 0x0f80
 591 28.8926 583.415 14.8652 567.04 6.28711 c 2
 566.338 5.91992 l 1
 565.68 5.48047 l 2
 561.809 2.90039 544.95 0.644531 540.021 0 c 2
 393.891 0 l 1x1780
 391.177 6.33301 l 1
 390.288 7.60156 l 2
 380.757 21.2178 359.773 44 314 44 c 0x0f80
 297.805 44 261.817 38.8269 240.721 0 c 1
 205.066 0 l 1
 204.14 -0.116211 l 2
 190.238 -1.85352 184.849 -3.55762 180.867 -5.81348 c 0
 164.818 -14.9064 154.987 -30.4523 154.987 -51.6485 c 0
 154.987 -65.2059 156.618 -74.6271 164.116 -85.542 c 0
 173.99 -99.911 183.5 -104.5 203.955 -107 c 1
 254.787 -107 l 1x5780
 257.168 -109.371 l 2
 271.819 -125.354 293.133 -132 316 -132 c 0x8780
 364.429 -132 380.551 -107.018 380.567 -107 c 1
 441.823 -107 l 1
 459.359 -109.763 l 2
 464.56 -110.803 467.659 -111.67 469.542 -112.536 c 0
 483.588 -118.995 493 -129.594 493 -155 c 0
 493 -176.321 485.707 -190.343 468.248 -200.176 c 0
 465.094 -201.952 455.686 -204.178 441.518 -207 c 1
 206 -207 l 2
 195.657 -207 182.739 -205.062 168.752 -201.478 c 0
 145.921 -195.625 119.624 -184.41 97.6064 -162.394 c 0
 69.0068 -133.793 60 -96.6299 60 -57 c 0
 60 -18.3428 68.1465 21.4268 97.0059 52.8105 c 0
 114.641 71.9873 137.908 85.1855 167.537 92.4229 c 0
 186.368 97.0234 198.287 98 206 98 c 2x5780
 351.241 98 l 1
 352.466 98.2041 l 2
 372.945 101.617 390.343 109.689 402.32 121.122 c 0
 417.378 135.493 423 156.673 423 179 c 0
 423 195.433 419.288 225.005 385.193 244.747 c 1
 374.37 248.885 362.064 251.54 349.562 254 c 1
 119.707 254 l 1
 105.016 257.523 94.916 263.244 87.7617 272.302 c 0
 80.2705 281.785 77 292.358 77 304 c 0
 77 318.089 80.3652 328.16 87.3545 336.206 c 0
 96.5176 346.754 109.024 351.422 119.712 354 c 1
 384.515 354 l 1
 407.703 348.645 l 2
 426.567 342.043 442.639 333.48 459.865 322.399 c 0
 481.574 308.436 496.269 291.493 506.564 270.346 c 0
 513.075 256.973 518.495 241.124 522.357 223.746 c 0
 526.062 207.07 527 192.338 527 178 c 0
 527 159.539 525.912 142.634 522.518 129.906 c 2
 515.795 105.257 l 1
 536.844 98.2412 l 1
 538.508 98.0742 l 1
 558.021 96.1396 l 2
 562.053 95.4668 564.611 93.8691 567.422 92.5215 c 0
 581.482 85.7695 591 73.9248 591 51 c 0x0f80
370.9 -42.2002 m 4
 370.9 -58.0859 364.935 -70.8242 354.219 -82.0176 c 4
 343.461 -93.2539 330.571 -99.4004 315 -99.4004 c 4
 299.429 -99.4004 286.59 -93.2051 275.781 -82.0176 c 4
 259.303 -64.9619 259.1 -46.1494 259.1 -42.2002 c 4
 259.1 -26.3145 265.065 -13.5762 275.781 -2.38281 c 4
 286.539 8.85449 299.429 15 315 15 c 4x2780
 330.571 15 343.41 8.80469 354.219 -2.38281 c 4
 370.697 -19.4385 370.9 -38.25 370.9 -42.2002 c 4
EndSplineSet
EndChar

StartChar: jeem.fina
Encoding: 65603 -1 164
Width: 616
VWidth: 921
Flags: W
HStem: -207 75<257.86 378.428> -207 100<164.579 254.787 341.648 468.096> -99.4004 114.4<276.289 353.711> 0 98<181.055 257.562 393.891 401.181 515.114 616> 44 54<257.562 352.466> 254 100<87.7864 402.432>
VStem: 60 94.987<-91.7594 -8.12806> 259.1 111.8<-81.2169 -3.18352> 423 104.007<120.837 233.037>
AnchorPoint: "harakaBelow" 169 -270 basechar 0
AnchorPoint: "harakaAbove" 319 780 basechar 0
LayerCount: 2
Fore
SplineSet
370.9 -42.2002 m 0x2780
 370.9 -58.0859 364.935 -70.8242 354.219 -82.0176 c 0
 343.461 -93.2539 330.571 -99.4004 315 -99.4004 c 0
 299.429 -99.4004 286.59 -93.2051 275.781 -82.0176 c 0
 259.303 -64.9619 259.1 -46.1494 259.1 -42.2002 c 0
 259.1 -26.3145 265.065 -13.5762 275.781 -2.38281 c 0
 286.539 8.85449 299.429 15 315 15 c 0
 330.571 15 343.41 8.80469 354.219 -2.38281 c 0
 370.697 -19.4385 370.9 -38.25 370.9 -42.2002 c 0x2780
616.021 0 m 25x1780
 393.891 0 l 1x1780
 391.177 6.33301 l 1
 390.288 7.60156 l 2
 380.757 21.2178 359.773 44 314 44 c 0x0f80
 297.805 44 261.817 38.8269 240.721 0 c 1
 205.066 0 l 1
 204.14 -0.116211 l 2
 190.238 -1.85352 184.849 -3.55762 180.867 -5.81348 c 0
 164.818 -14.9064 154.987 -30.4523 154.987 -51.6485 c 0
 154.987 -65.2059 156.618 -74.6271 164.116 -85.542 c 0
 173.99 -99.911 183.5 -104.5 203.955 -107 c 1
 254.787 -107 l 1x5780
 257.168 -109.371 l 2
 271.819 -125.354 293.133 -132 316 -132 c 0x8780
 364.429 -132 380.551 -107.018 380.567 -107 c 1
 441.823 -107 l 1
 459.359 -109.763 l 2
 464.56 -110.803 467.659 -111.67 469.542 -112.536 c 0
 483.588 -118.995 493 -129.594 493 -155 c 0
 493 -176.321 485.707 -190.343 468.248 -200.176 c 0
 465.094 -201.952 455.686 -204.178 441.518 -207 c 1
 206 -207 l 2
 195.657 -207 182.739 -205.062 168.752 -201.478 c 0
 145.921 -195.625 119.624 -184.41 97.6064 -162.394 c 0
 69.0068 -133.793 60 -96.6299 60 -57 c 0
 60 -18.3428 68.1465 21.4268 97.0059 52.8105 c 0
 114.641 71.9873 137.908 85.1855 167.537 92.4229 c 0
 186.368 97.0234 198.287 98 206 98 c 2x5780
 351.241 98 l 1x0f80
 352.466 98.2041 l 2
 372.945 101.617 390.343 109.689 402.32 121.122 c 0
 417.378 135.493 423 156.673 423 179 c 0
 423 195.433 419.288 225.005 385.193 244.747 c 1
 374.37 248.885 362.064 251.54 349.562 254 c 1
 119.707 254 l 1
 105.016 257.523 94.916 263.244 87.7617 272.302 c 0
 80.2705 281.785 77 292.358 77 304 c 0
 77 318.089 80.3652 328.16 87.3545 336.206 c 0
 96.5176 346.754 109.024 351.422 119.712 354 c 1
 384.515 354 l 1
 407.703 348.645 l 2
 426.567 342.043 442.639 333.48 459.865 322.399 c 0
 481.574 308.436 495.15 295.116 506.564 270.346 c 24
 522.211 236.39 526.688 184.493 527.007 176.688 c 0
 527.007 157.166 525.817 141.789 522.518 128.906 c 2
 515.114 100 l 1
 616 100 l 1
 616.021 0 l 25x1780
EndSplineSet
EndChar

StartChar: fatha.alt
Encoding: 65660 -1 165
Width: 0
VWidth: 921
GlyphClass: 4
Flags: W
HStem: 0.496094 51.5415<-141.095 141.678>
VStem: -141.5 283.5<0.811467 51.5618>
AnchorPoint: "harkaAboveHaraka" 0 0 mark 0
LayerCount: 2
Fore
SplineSet
114.5 52 m 5
 129.46 52.2588 142 40.7188 142 26.5 c 4
 142 26.4971 142 26.4922 142 26.4893 c 4
 142 26.4854 142 26.4785 142 26.4766 c 4
 142 12.2783 130.49 0.535156 116.3 0.5 c 5
 -115.678 0.496094 l 4
 -129.896 0.496094 -141.5 12.7803 -141.5 27 c 4
 -141.5 27.0029 -141.5 27.0088 -141.5 27.0127 c 4
 -141.5 27.0156 -141.5 27.0215 -141.5 27.0234 c 4
 -141.5 40.7852 -130.69 52.0376 -116.432 52.0376 c 0
 -115.958 52.0376 -115.481 52.0251 -115 52 c 5
 114.5 52 l 5
EndSplineSet
Validated: 33
EndChar

StartChar: kasra.alt
Encoding: 65661 -1 166
Width: 0
VWidth: 921
GlyphClass: 4
Flags: W
HStem: 0.496094 51.5415<-141.095 141.678>
VStem: -141.5 283.5<0.811467 51.5618>
LayerCount: 2
Fore
SplineSet
114.5 52 m 1
 129.46 52.2588 142 40.7188 142 26.5 c 0
 142 26.4971 142 26.4922 142 26.4893 c 0
 142 26.4854 142 26.4785 142 26.4766 c 0
 142 12.2783 130.49 0.535156 116.3 0.5 c 1
 -115.678 0.496094 l 0
 -129.896 0.496094 -141.5 12.7803 -141.5 27 c 0
 -141.5 27.0029 -141.5 27.0088 -141.5 27.0127 c 0
 -141.5 27.0156 -141.5 27.0215 -141.5 27.0234 c 0
 -141.5 40.7852 -130.69 52.0376 -116.432 52.0376 c 0
 -115.958 52.0376 -115.481 52.0251 -115 52 c 1
 114.5 52 l 1
EndSplineSet
Validated: 33
EndChar

StartChar: fathatan.alt
Encoding: 65662 -1 167
Width: 0
VWidth: 921
GlyphClass: 4
Flags: W
HStem: 0.496094 51.5415<-141.095 141.678> 104.496 51.542<-141.095 141.678>
VStem: -141.5 283.5<0.811467 51.5618 104.811 155.562>
AnchorPoint: "harkaAboveHaraka" 0 0 mark 0
LayerCount: 2
Fore
SplineSet
114.5 156 m 1
 129.46 156.259 142 144.719 142 130.5 c 0
 142 130.497 142 130.492 142 130.489 c 0
 142 130.485 142 130.479 142 130.477 c 0
 142 116.278 130.49 104.535 116.3 104.5 c 1
 -115.678 104.496 l 0
 -129.896 104.496 -141.5 116.78 -141.5 131 c 0
 -141.5 131.003 -141.5 131.009 -141.5 131.013 c 0
 -141.5 131.016 -141.5 131.021 -141.5 131.023 c 0
 -141.5 144.785 -130.69 156.038 -116.431 156.038 c 0
 -115.958 156.038 -115.481 156.025 -115 156 c 1
 114.5 156 l 1
114.5 52 m 1
 129.46 52.2588 142 40.7188 142 26.5 c 0
 142 26.4971 142 26.4922 142 26.4893 c 0
 142 26.4854 142 26.4785 142 26.4766 c 0
 142 12.2783 130.49 0.535156 116.3 0.5 c 1
 -115.678 0.496094 l 0
 -129.896 0.496094 -141.5 12.7803 -141.5 27 c 0
 -141.5 27.0029 -141.5 27.0088 -141.5 27.0127 c 0
 -141.5 27.0156 -141.5 27.0215 -141.5 27.0234 c 0
 -141.5 40.7852 -130.69 52.0376 -116.432 52.0376 c 0
 -115.958 52.0376 -115.481 52.0251 -115 52 c 1
 114.5 52 l 1
EndSplineSet
Validated: 33
EndChar

StartChar: kasratan.alt
Encoding: 65663 -1 168
Width: 0
VWidth: 921
GlyphClass: 4
Flags: W
HStem: 0.496094 51.5415<-141.095 141.678> 104.496 51.542<-141.095 141.678>
VStem: -141.5 283.5<0.811467 51.5618 104.811 155.562>
LayerCount: 2
Fore
SplineSet
114.5 156 m 1
 129.46 156.259 142 144.719 142 130.5 c 0
 142 130.497 142 130.492 142 130.489 c 0
 142 130.485 142 130.479 142 130.477 c 0
 142 116.278 130.49 104.535 116.3 104.5 c 1
 -115.678 104.496 l 0
 -129.896 104.496 -141.5 116.78 -141.5 131 c 0
 -141.5 131.003 -141.5 131.009 -141.5 131.013 c 0
 -141.5 131.016 -141.5 131.021 -141.5 131.023 c 0
 -141.5 144.785 -130.69 156.038 -116.431 156.038 c 0
 -115.958 156.038 -115.481 156.025 -115 156 c 1
 114.5 156 l 1
114.5 52 m 1
 129.46 52.2588 142 40.7188 142 26.5 c 0
 142 26.4971 142 26.4922 142 26.4893 c 0
 142 26.4854 142 26.4785 142 26.4766 c 0
 142 12.2783 130.49 0.535156 116.3 0.5 c 1
 -115.678 0.496094 l 0
 -129.896 0.496094 -141.5 12.7803 -141.5 27 c 0
 -141.5 27.0029 -141.5 27.0088 -141.5 27.0127 c 0
 -141.5 27.0156 -141.5 27.0215 -141.5 27.0234 c 0
 -141.5 40.7852 -130.69 52.0376 -116.432 52.0376 c 0
 -115.958 52.0376 -115.481 52.0251 -115 52 c 1
 114.5 52 l 1
EndSplineSet
Validated: 33
EndChar

StartChar: tahAbove
Encoding: 65645 -1 179
Width: 0
VWidth: 921
GlyphClass: 4
Flags: W
HStem: 0.338867 44.1826<-164.921 -134.803 -90.875 65.9092> 112.119 43.74<-90.54 66.793>
VStem: -134.803 44.263<44.9326 112.119 155.859 291.393> 103.084 46.933<47.8904 108.571>
AnchorPoint: "dotAbove" 0 200 mark 0
AnchorPoint: "harakaAboveDot" 0 295 basemark 0
LayerCount: 2
Fore
SplineSet
-155.314 44.8252 m 2
 -134.803 44.9326 l 1
 -134.812 281.748 l 2
 -134.811 282.815 -133.897 288.113 -131.999 291.789 c 0
 -128.795 297.993 -123.15 301 -113.596 301 c 0
 -103.495 301 -97.1553 298.178 -93.2939 291.562 c 0
 -91.208 287.99 -90.6152 282.815 -90.6113 281.748 c 2
 -90.54 155.859 l 1
 81.4883 155.859 l 2
 93.3535 155.859 103.435 151.243 112.048 146.581 c 0
 124.071 140.074 133.081 130.814 139.3 120.072 c 0
 145.515 109.336 150.017 95.0713 150.017 78.4043 c 0
 150.017 65.124 147.145 51.8447 141.666 40.1025 c 0
 136.278 28.5566 128.369 18.4971 118.195 11.3848 c 0
 108.301 4.46875 96.2646 0.338867 82.3184 0.338867 c 2
 -89.0322 0.338867 l 1
 -155.391 0.456055 l 2
 -156.458 0.450195 -161.764 0.81543 -165.473 2.64844 c 0
 -171.883 5.81641 -175.015 12.1377 -175.015 22.0508 c 0
 -175.015 31.7617 -171.477 38.5283 -165.088 42.4102 c 0
 -161.553 44.5596 -156.382 44.8193 -155.314 44.8252 c 2
82.9883 48.0801 m 1
 96.7412 53.668 103.084 64.04 103.084 77.6572 c 0
 103.084 87.3594 99.7754 100.189 83.8984 107.483 c 0
 77.5801 110.385 68.5742 111.845 66.793 112.068 c 2
 66.3838 112.119 l 1
 -90.875 112.119 l 1
 -90.875 44.5215 l 1
 65.5 44.5215 l 1
 65.9092 44.5723 l 2
 73.1494 45.4805 78.5361 46.2705 82.9883 48.0801 c 1
EndSplineSet
EndChar

StartChar: tahBelow
Encoding: 65646 -1 180
Width: 0
VWidth: 921
GlyphClass: 4
Flags: W
HStem: 0.338867 44.1826<-164.921 -134.803 -90.875 65.9092> 112.119 43.74<-90.54 66.793>
VStem: -134.803 44.263<44.9326 112.119 155.859 291.393> 103.084 46.933<47.8904 108.571>
AnchorPoint: "dotBleow" -1 232 mark 0
LayerCount: 2
Fore
SplineSet
-155.314 44.8252 m 6
 -134.803 44.9326 l 5
 -134.812 281.748 l 6
 -134.811 282.815 -133.897 288.113 -131.999 291.789 c 4
 -128.795 297.993 -123.15 301 -113.596 301 c 4
 -103.495 301 -97.1553 298.178 -93.2939 291.562 c 4
 -91.208 287.99 -90.6152 282.815 -90.6113 281.748 c 6
 -90.54 155.859 l 5
 81.4883 155.859 l 6
 93.3535 155.859 103.435 151.243 112.048 146.581 c 4
 124.071 140.074 133.081 130.814 139.3 120.072 c 4
 145.515 109.336 150.017 95.0713 150.017 78.4043 c 4
 150.017 65.124 147.145 51.8447 141.666 40.1025 c 4
 136.278 28.5566 128.369 18.4971 118.195 11.3848 c 4
 108.301 4.46875 96.2646 0.338867 82.3184 0.338867 c 6
 -89.0322 0.338867 l 5
 -155.391 0.456055 l 6
 -156.458 0.450195 -161.764 0.81543 -165.473 2.64844 c 4
 -171.883 5.81641 -175.015 12.1377 -175.015 22.0508 c 4
 -175.015 31.7617 -171.477 38.5283 -165.088 42.4102 c 4
 -161.553 44.5596 -156.382 44.8193 -155.314 44.8252 c 6
82.9883 48.0801 m 5
 96.7412 53.668 103.084 64.04 103.084 77.6572 c 4
 103.084 87.3594 99.7754 100.189 83.8984 107.483 c 4
 77.5801 110.385 68.5742 111.845 66.793 112.068 c 6
 66.3838 112.119 l 5
 -90.875 112.119 l 5
 -90.875 44.5215 l 5
 65.5 44.5215 l 5
 65.9092 44.5723 l 6
 73.1494 45.4805 78.5361 46.2705 82.9883 48.0801 c 5
EndSplineSet
EndChar

StartChar: keheh.isol
Encoding: 65604 -1 185
Width: 691
VWidth: 921
GlyphClass: 2
Flags: W
HStem: 0 102.116<175.154 523.879> 252 105<175.822 368.56 368.56 413.376>
VStem: 60 95<122.693 231.212> 526 105<103.72 142.066 142.066 578.614>
AnchorPoint: "ring" 772 720 basechar 0
AnchorPoint: "harakaBelow" 222 -205 basechar 0
AnchorPoint: "longDash" 704.996 827.965 basechar 0
AnchorPoint: "harakaAbove" 270 780 basechar 0
AnchorPoint: "hamzaKaf" 270 450 basechar 0
LayerCount: 2
Fore
SplineSet
631.47 637.981 m 2
 620.135 631.458 610.24 631.213 603.943 629.958 c 1
 584.691 629.917 564 650 560 658 c 0
 555.314 667.372 552.076 677.809 552.076 688.17 c 0
 552.076 695.723 553.797 703.235 557.934 710.264 c 1
 562.573 715.754 568.439 722.877 578.716 728.791 c 2
 860.337 890.874 l 2
 870.614 896.789 879.72 898.282 886.799 899.536 c 1
 906.138 899.645 920.25 891.25 930.949 871.495 c 0
 936.12 861.948 939.235 851.907 939.235 841.987 c 0
 939.235 834.294 937.362 826.673 933.122 819.411 c 1
 928.873 814.598 923.691 806.166 912.356 799.642 c 2
 631.47 637.981 l 2
368.926 357 m 2
 380.785 357 390.983 353.407 397.692 350.824 c 1
 413.814 341.215 421.02 326.48 421.02 305.894 c 0
 421.02 283.046 413.361 267.786 395.944 258.287 c 1
 389.819 256.362 381.029 252.151 367.95 252.094 c 2
 232 252 l 2
 217.494 251.99 204.506 248.175 193.004 242.265 c 0
 159.113 224.85 155 194.846 155 177 c 0
 155 157.762 159.917 127.676 193.135 111.645 c 0
 202.51 107.12 217.108 103.75 230.14 102.116 c 2
 495 102 l 1
 503.628 104.517 526.002 102.229 526 142.066 c 2
 525.98 551.466 l 2
 526.826 563.294 529.229 571.961 531.672 578.722 c 1
 541.225 595.536 556.416 603 578 603 c 0
 599.506 603 614.656 595.609 624.225 578.901 c 1
 626.277 572.818 629.294 564.01 631 551.043 c 2
 631 101 l 2
 631 95.1982 628.271 10.6826 523.254 -0.0371094 c 2
 502 0 l 1
 211 0 l 2
 198.437 0 186.021 1.27832 172.17 5.40527 c 0
 141.988 14.3984 116.699 29.2881 99.1943 48.9834 c 0
 73.8867 77.457 60 118.594 60 172 c 0
 60 300.038 167.851 348.362 171.994 349.546 c 0
 187.015 353.836 199.549 357 211 357 c 2
 368.926 357 l 2
EndSplineSet
EndChar

StartChar: keheh.fina
Encoding: 65605 -1 186
Width: 705
VWidth: 921
Flags: W
HStem: 0 102.116<175.154 523.879 631 705 705 705> 252 105<175.822 368.56 368.56 413.376>
VStem: 60 95<122.693 231.212> 526 105<103.72 142.066 142.066 578.614>
AnchorPoint: "ring" 772 720 basechar 0
AnchorPoint: "harakaBelow" 222 -205 basechar 0
AnchorPoint: "longDash" 704.996 827.965 basechar 0
AnchorPoint: "harakaAbove" 270 780 basechar 0
AnchorPoint: "hamzaKaf" 270 450 basechar 0
LayerCount: 2
Fore
SplineSet
631.47 637.981 m 2
 620.135 631.458 610.24 631.213 603.943 629.958 c 1
 584.691 629.917 564 650 560 658 c 0
 555.314 667.372 552.076 677.809 552.076 688.17 c 0
 552.076 695.723 553.797 703.235 557.934 710.264 c 1
 562.573 715.754 568.439 722.877 578.716 728.791 c 2
 860.337 890.874 l 2
 870.614 896.789 879.72 898.282 886.799 899.536 c 1
 906.138 899.645 920.25 891.25 930.949 871.495 c 0
 936.12 861.948 939.235 851.907 939.235 841.987 c 0
 939.235 834.294 937.362 826.673 933.122 819.411 c 1
 928.873 814.598 923.691 806.166 912.356 799.642 c 2
 631.47 637.981 l 2
705 0 m 1
 211 0 l 2
 198.437 0 186.021 1.27832 172.17 5.40527 c 0
 141.988 14.3984 116.699 29.2881 99.1943 48.9834 c 0
 73.8867 77.457 60 118.594 60 172 c 0
 60 300.038 167.851 348.362 171.994 349.546 c 0
 187.015 353.836 199.549 357 211 357 c 2
 368.926 357 l 2
 380.785 357 390.983 353.407 397.692 350.824 c 1
 413.814 341.215 421.02 326.48 421.02 305.894 c 0
 421.02 283.046 413.361 267.786 395.944 258.287 c 1
 389.819 256.362 381.029 252.151 367.95 252.094 c 2
 232 252 l 2
 217.494 251.99 204.506 248.175 193.004 242.265 c 0
 159.113 224.85 155 194.846 155 177 c 0
 155 157.762 159.917 127.676 193.135 111.645 c 0
 202.51 107.12 217.108 103.75 230.14 102.116 c 2
 495 102 l 1
 503.628 104.517 526.002 102.229 526 142.066 c 2
 525.98 551.466 l 2
 526.826 563.294 529.229 571.961 531.672 578.722 c 1
 541.225 595.536 556.416 603 578 603 c 0
 599.506 603 614.656 595.609 624.225 578.901 c 1
 626.277 572.818 631 564.121 631 551.043 c 2
 631 101 l 1
 705 101 l 1
 705 0 l 1
EndSplineSet
EndChar

StartChar: longDash
Encoding: 65647 -1 187
Width: 0
VWidth: 921
GlyphClass: 4
Flags: W
HStem: 659.025 223.784
VStem: -192.722 336.926
AnchorPoint: "longDash" 20 689 mark 0
LayerCount: 2
Fore
SplineSet
-173.635 659.12 m 0
 -180.703 659.962 -186.162 663.911 -190.004 670.965 c 0
 -191.821 674.302 -192.722 677.799 -192.722 681.222 c 0
 -192.722 685.413 -191.371 689.495 -188.695 693.044 c 0
 -187.669 694.403 -186.023 696.134 -185.039 696.89 c 0
 -183.012 698.446 109.454 878.289 113.428 880.39 c 0
 116.509 882.019 119.813 882.809 123.063 882.809 c 0
 128.672 882.809 134.123 880.456 138 876 c 0
 142.114 871.273 144.204 865.867 144.204 860.618 c 0
 144.204 856.442 142.881 852.365 140.199 848.811 c 0
 139.175 847.45 137.527 845.72 136.545 844.964 c 0
 134.495 843.393 -157.972 663.553 -161.977 661.437 c 0
 -164.798 659.944 -168.696 659.025 -171.929 659.025 c 0
 -172.524 659.025 -173.096 659.056 -173.635 659.12 c 0
EndSplineSet
Validated: 1
EndChar

StartChar: ring
Encoding: 65648 -1 188
Width: 0
VWidth: 0
GlyphClass: 4
Flags: W
HStem: 0.929688 30.9394<-41.5232 41.5338> 162.12 30.94<-41.5232 41.5338>
VStem: -96.0645 30.9395<55.4713 138.526> 65.1367 30.9278<55.4713 138.526>
AnchorPoint: "ring" 0.935547 145 mark 0
LayerCount: 2
Fore
SplineSet
0.00585938 193.06 m 0
 53.0332 193.06 96.0645 150.028 96.0645 97 c 0
 96.0645 43.9736 53.0332 0.929688 0.00585938 0.929688 c 0
 -53.0215 0.929688 -96.0645 43.9736 -96.0645 97 c 0
 -96.0645 150.027 -53.0215 193.06 0.00585938 193.06 c 0
0.00585938 162.12 m 0
 -35.9453 162.12 -65.125 132.951 -65.125 97 c 0
 -65.125 61.0498 -35.9453 31.8691 0.00585938 31.8691 c 0
 35.957 31.8691 65.1367 61.0498 65.1367 97 c 0
 65.1367 132.951 35.957 162.12 0.00585938 162.12 c 0
EndSplineSet
Validated: 1
EndChar

StartChar: secondDot
Encoding: 65632 -1 194
Width: 0
VWidth: 921
GlyphClass: 4
Flags: W
HStem: 0 107<-36.6671 41.9283>
VStem: -54 107<10.6337 89.9044>
AnchorPoint: "secondDot" 0 53 mark 0
AnchorPoint: "harakaAboveDot" 0 107 basemark 0
AnchorPoint: "dotAbove" 0 107 mark 0
LayerCount: 2
Fore
SplineSet
53 53 m 0
 53 38.1963 48.4414 25.8789 37.793 15.9922 c 2
 37.167 15.4102 l 1
 36.6113 14.7617 l 2
 32.0508 9.44141 21.9668 0 0 0 c 0
 -14.957 0 -26.793 5.00684 -37.3936 15.6064 c 0
 -48.1934 26.4062 -54 38.043 -54 53 c 0
 -54 67.8037 -47.8047 79.8418 -37.4004 90.4004 c 0
 -21.7949 106.239 -3.69531 107 0 107 c 0
 14.8027 107 26.9219 101.655 37.0078 90.793 c 0
 48.002 78.9541 53 67.0273 53 53 c 0
EndSplineSet
Validated: 1
EndChar

StartChar: yehTail.isol
Encoding: 65606 -1 198
Width: 876
VWidth: 921
GlyphClass: 2
Flags: W
HStem: 0 99<181.906 598.501> 397 103<561.49 663.178>
VStem: 438 103<274.804 376.576>
AnchorPoint: "harakaBelow" 160 -205 basechar 0
AnchorPoint: "harakaAbove" 209 780 basechar 0
LayerCount: 2
Fore
SplineSet
-67 186 m 17
 -18 239 101 329 172.5 336.5 c 1
 121.439 164.832 166.703 99 241 99 c 2
 598.501 100 l 1
 482.999 214.178 l 2
 472.377 226.73 465.624 237.302 461.096 245.285 c 0
 454.451 256.999 448.228 271.436 444.37 284.298 c 0
 439.994 298.887 438 312.331 438 326 c 0
 438 345.723 442.788 365.979 449.876 383.304 c 0
 459.103 405.857 475.222 428.1 496.36 448.158 c 0
 511.854 462.859 529.737 477.898 555.91 489.219 c 0
 576.295 498.034 594.362 500 611 500 c 0
 631.816 500 652.543 496.174 673.655 486.414 c 0
 689.444 479.114 703.816 470.391 718.854 459.113 c 2
 736.775 444.961 l 1
 806.289 369.572 l 1
 812.496 360.724 l 2
 817.338 353.821 819.333 346.864 819.411 338.985 c 0
 819.411 326.693 813.63 314.474 804.642 305.25 c 0
 797.336 297.751 787.91 292.231 777.75 290.261 c 0
 775.084 289.744 772.367 289.471 769.625 289.471 c 0
 760.442 289.471 750.971 292.53 742.152 299.711 c 2
 732.974 307.186 l 1
 663.559 374.626 l 1
 647.619 385.662 631.423 397 610 397 c 0
 600.172 397 592.32 394.683 585.429 391.927 c 0
 580.091 389.792 571.698 384.911 561.394 374.606 c 0
 554.215 367.428 549.18 359.899 545.584 352.708 c 0
 541.104 343.748 541 334.646 541 327 c 0
 541 313.02 544.926 300.622 550.399 291.865 c 2
 559.373 278.398 l 1
 768 72.7656 l 2
 776.784 61.6172 780.961 49.9535 780.961 39.3039 c 0
 780.961 17.3872 763.271 -0.235207 731.645 -0.235207 c 0
 729.641 -0.235207 727.581 -0.164445 725.466 -0.0195312 c 2
 233 0 l 2
 219.339 0.000976562 204.694 2.12988 187.826 6.50293 c 0
 154.296 15.1963 126.635 30.0166 104.945 53.2549 c 0
 75.3262 84.9883 60 126.749 60 184 c 1
 63 220.5 l 1
 47.5 205 16.0939 158.425 0 112 c 1
 -31 146 -67 186 -67 186 c 17
EndSplineSet
EndChar

StartChar: yehTail.fina
Encoding: 65607 -1 199
Width: 1129
VWidth: 921
GlyphClass: 2
Flags: W
HStem: -0.235207 100.235<180.075 598.501 1056.16 1129> 397 103<561.49 663.843>
VStem: 438 103<274.804 376.576>
AnchorPoint: "harakaBelow" 160 -205 basechar 0
AnchorPoint: "harakaAbove" 209 780 basechar 0
LayerCount: 2
Fore
SplineSet
241 99 m 2
 598.501 100 l 1
 482.999 214.178 l 2
 472.377 226.73 465.624 237.302 461.096 245.285 c 0
 454.451 256.999 448.228 271.436 444.37 284.298 c 0
 439.994 298.887 438 312.331 438 326 c 0
 438 345.723 442.788 365.979 449.876 383.304 c 0
 459.103 405.857 475.222 428.1 496.36 448.158 c 0
 511.854 462.859 529.737 477.898 555.91 489.219 c 0
 576.295 498.034 594.362 500 611 500 c 0
 631.816 500 652.543 496.174 673.655 486.414 c 0
 689.444 479.114 705.567 472.407 718.854 459.113 c 2
 1053.04 124.711 l 5
 1070 109.667 1081.11 100 1109 100 c 6
 1129 100 l 5
 1129 0 l 5
 1070 0 l 6
 1049.08 0 1026.75 12.4157 1010.11 29.0576 c 6
 663.905 375.32 l 1
 647.965 386.356 631.423 397 610 397 c 0
 600.172 397 592.32 394.683 585.429 391.927 c 0
 580.091 389.792 571.698 384.911 561.394 374.606 c 0
 554.215 367.428 549.18 359.899 545.584 352.708 c 0
 541.104 343.748 541 334.646 541 327 c 0
 541 313.02 544.926 300.622 550.399 291.865 c 2
 559.373 278.398 l 1
 768 72.7656 l 2
 776.784 61.6172 780.961 49.9535 780.961 39.3039 c 0
 780.961 17.3872 763.271 -0.235207 731.645 -0.235207 c 0
 729.641 -0.235207 727.586 -0.0195312 725.466 -0.0195312 c 2
 233 0 l 2
 219.339 0.000976562 204.694 2.12988 187.826 6.50293 c 0
 154.296 15.1963 126.635 30.0166 104.945 53.2549 c 0
 75.3262 84.9883 60 126.749 60 184 c 1
 63 220.5 l 1
 47.5 205 16.0938 158.425 0 112 c 1
 -31 146 -67 186 -67 186 c 17
 -18 239 101 329 172.5 336.5 c 1
 121.438 164.832 166.703 98.792 241 99 c 2
EndSplineSet
EndChar

StartChar: heh.fina.alt
Encoding: 65608 -1 203
Width: 475
VWidth: 921
Flags: W
HStem: 0 104.958<370.977 475> 251.89 107.743<132.051 238.969>
VStem: 0 107.745<25.7546 225.078> 263.255 107.722<104.958 225.078>
AnchorPoint: "dotAbove" 178 680 basechar 0
AnchorPoint: "harakaAbove" 178 680 basechar 0
AnchorPoint: "harakaBelow" 195 -205 basechar 0
AnchorPoint: "hamzaAbove" 178 682 basechar 0
LayerCount: 2
Fore
SplineSet
263.255 144.146 m 2
 263.266 213.009 237.328 251.89 185.512 251.89 c 24
 133.689 251.89 107.745 213.009 107.745 144.146 c 2
 107.745 59 l 1
 106.744 52.9893 103.676 30.4268 101.183 25.2725 c 0
 93.7637 9.93457 80.1514 0 55 0 c 0
 27.5117 0 13.2949 13.4922 6.60645 25.3916 c 1
 3.66406 33.0645 1.84961 45.3213 0 59 c 1
 0 144.146 l 2
 0 280.235 74.6191 359.633 185.512 359.633 c 24
 296.398 359.633 371.081 280.235 371 144.146 c 2
 370.977 104.958 l 9
 475 105 l 9
 475 0 l 17
 263.232 0 l 17
 263.255 144.146 l 2
EndSplineSet
EndChar

StartChar: yehBackward.isol
Encoding: 65609 -1 206
Width: 799
VWidth: 0
GlyphClass: 2
Flags: W
HStem: -205.814 96.812<123.329 764.958>
AnchorPoint: "harakaAbove" 358 420 basechar 0
AnchorPoint: "hamzaAbove" 140 450 basechar 0
AnchorPoint: "harakaBelow" 173 -271 basechar 0
LayerCount: 2
Fore
SplineSet
736.384 -109.324 m 0
 751.85 -111.781 763.771 -125.035 768.894 -139.457 c 0
 774.592 -155.121 773.91 -173.768 764.385 -187.828 c 0
 756.701 -199.703 742.408 -204.885 728.582 -205.248 c 2
 175.718 -205.814 l 2
 152.812 -206.295 129.638 -204.202 107.744 -197.145 c 0
 82.1396 -189.042 58.4814 -173.55 42.5938 -151.693 c 0
 25.8545 -129.003 18.4727 -100.152 20.2627 -72.167 c 0
 22.4902 -38.0352 37.6816 -5.37305 60.6309 19.7646 c 0
 115.163 75.9062 179.365 59.9473 220.908 130.545 c 0
 226.451 139.625 224.747 136.601 236.712 162.395 c 0
 248.818 188.343 263.183 213.811 283.666 234.127 c 0
 304.938 255.611 326.343 271.052 358.586 273.267 c 0
 396.795 276.432 437.535 258.403 460.191 225.909 c 0
 473.121 207.365 487.483 184.199 482.338 160.839 c 0
 477.161 137.333 448.946 118.666 421.169 127.809 c 0
 408.87 130.637 397.178 145.413 390.429 156.924 c 0
 368.482 193.893 343.783 169.938 325.677 125.342 c 0
 291.178 38.6992 214.798 1.1709 214.786 1.16406 c 0
 175.557 -21.0732 153.625 -14.7686 127.727 -45.4844 c 1
 120.893 -57.9473 117.901 -73.376 123.055 -86.9863 c 0
 127.468 -99.1143 139.694 -107.105 152.067 -109.002 c 1
 732.653 -109.58 730.909 -108.454 736.384 -109.324 c 0
EndSplineSet
EndChar

